<svg xmlns="http://www.w3.org/2000/svg" xmlns:xlink="http://www.w3.org/1999/xlink" viewBox="0 0 2900.18 2912.26"><defs><style>.cls-1{isolation:isolate;}.cls-2{fill:#e7eefc;}.cls-3{fill:#97a6b7;}.cls-4{fill:url(#linear-gradient);}.cls-30,.cls-5,.cls-8,.cls-87,.cls-9{fill:#fff;}.cls-39,.cls-6{fill:#d8dee8;}.cls-32,.cls-44,.cls-51,.cls-6,.cls-67,.cls-73,.cls-80,.cls-83{opacity:0.3;}.cls-32,.cls-44,.cls-51,.cls-6,.cls-67,.cls-73,.cls-80,.cls-83,.cls-99{mix-blend-mode:multiply;}.cls-7{fill:url(#linear-gradient-2);}.cls-8{opacity:0.6;}.cls-30,.cls-8,.cls-87,.cls-9{mix-blend-mode:soft-light;}.cls-9{opacity:0.36;}.cls-10{fill:url(#linear-gradient-3);}.cls-11,.cls-12,.cls-13,.cls-15,.cls-16,.cls-17,.cls-18,.cls-20,.cls-21,.cls-22,.cls-23,.cls-24,.cls-26,.cls-27,.cls-28{opacity:0.5;}.cls-11{fill:url(#linear-gradient-4);}.cls-12{fill:url(#linear-gradient-5);}.cls-13{fill:url(#linear-gradient-6);}.cls-14{fill:url(#linear-gradient-7);}.cls-15{fill:url(#linear-gradient-8);}.cls-16{fill:url(#linear-gradient-9);}.cls-17{fill:url(#linear-gradient-10);}.cls-18{fill:url(#linear-gradient-11);}.cls-19{fill:url(#linear-gradient-12);}.cls-20{fill:url(#linear-gradient-13);}.cls-21{fill:url(#linear-gradient-14);}.cls-22{fill:url(#linear-gradient-15);}.cls-23{fill:url(#linear-gradient-16);}.cls-24{fill:url(#linear-gradient-17);}.cls-25{fill:url(#linear-gradient-18);}.cls-26{fill:url(#linear-gradient-19);}.cls-27{fill:url(#linear-gradient-20);}.cls-28{fill:url(#linear-gradient-21);}.cls-29{fill:url(#linear-gradient-22);}.cls-31{fill:url(#linear-gradient-23);}.cls-32{fill:url(#linear-gradient-24);}.cls-33{fill:url(#linear-gradient-25);}.cls-34{fill:url(#linear-gradient-26);}.cls-35{fill:url(#linear-gradient-27);}.cls-36{fill:url(#linear-gradient-28);}.cls-37{fill:url(#linear-gradient-29);}.cls-38{fill:url(#linear-gradient-30);}.cls-40{fill:url(#linear-gradient-31);}.cls-41{fill:url(#linear-gradient-32);}.cls-42{fill:url(#linear-gradient-33);}.cls-43{fill:url(#linear-gradient-34);}.cls-45{fill:url(#linear-gradient-35);}.cls-46{fill:url(#linear-gradient-36);}.cls-47{fill:url(#linear-gradient-37);}.cls-48{fill:url(#linear-gradient-38);}.cls-49{fill:url(#linear-gradient-39);}.cls-50{fill:url(#linear-gradient-40);}.cls-51{fill:url(#linear-gradient-41);}.cls-52{fill:url(#linear-gradient-42);}.cls-53{fill:url(#linear-gradient-43);}.cls-54{fill:url(#linear-gradient-44);}.cls-55{fill:url(#linear-gradient-45);}.cls-56{fill:url(#linear-gradient-46);}.cls-57{fill:url(#linear-gradient-47);}.cls-58{fill:url(#linear-gradient-48);}.cls-59{fill:url(#linear-gradient-49);}.cls-60{fill:url(#linear-gradient-50);}.cls-61{fill:url(#linear-gradient-51);}.cls-62{fill:url(#linear-gradient-52);}.cls-63{fill:url(#linear-gradient-53);}.cls-64{fill:#26264f;}.cls-65{fill:url(#linear-gradient-54);}.cls-66{fill:url(#linear-gradient-55);}.cls-67{fill:url(#linear-gradient-56);}.cls-68{fill:url(#linear-gradient-57);}.cls-69{fill:url(#linear-gradient-58);}.cls-70{fill:url(#linear-gradient-59);}.cls-71{fill:url(#linear-gradient-60);}.cls-72{fill:url(#linear-gradient-61);}.cls-73{fill:url(#linear-gradient-62);}.cls-74{fill:url(#linear-gradient-63);}.cls-75{fill:url(#linear-gradient-64);}.cls-76{fill:url(#linear-gradient-65);}.cls-77{fill:url(#linear-gradient-66);}.cls-78{fill:url(#linear-gradient-67);}.cls-79{fill:url(#linear-gradient-68);}.cls-80{fill:url(#linear-gradient-69);}.cls-81{fill:url(#linear-gradient-70);}.cls-82{fill:url(#linear-gradient-71);}.cls-83{fill:url(#linear-gradient-72);}.cls-84{fill:url(#linear-gradient-73);}.cls-85{fill:url(#linear-gradient-74);}.cls-86{fill:url(#linear-gradient-75);}.cls-87{opacity:0.28;}.cls-88{fill:url(#linear-gradient-76);}.cls-89{fill:url(#linear-gradient-77);}.cls-90{fill:url(#linear-gradient-78);}.cls-91{fill:url(#linear-gradient-79);}.cls-92{fill:url(#linear-gradient-80);}.cls-93{fill:url(#linear-gradient-81);}.cls-94{fill:url(#linear-gradient-82);}.cls-95{fill:url(#linear-gradient-83);}.cls-96{fill:url(#linear-gradient-84);}.cls-97{fill:url(#linear-gradient-85);}.cls-98{fill:url(#linear-gradient-86);}.cls-99{opacity:0.2;}.cls-100{fill:url(#linear-gradient-87);}</style><linearGradient id="linear-gradient" x1="1491.43" y1="3225.45" x2="1498.23" y2="2647.69" gradientUnits="userSpaceOnUse"><stop offset="0.49" stop-color="#ebeff2"/><stop offset="1" stop-color="#fff"/></linearGradient><linearGradient id="linear-gradient-2" x1="1205.73" y1="1360.9" x2="2324.76" y2="3413.33" gradientUnits="userSpaceOnUse"><stop offset="0" stop-color="#444b8c"/><stop offset="1" stop-color="#26264f"/></linearGradient><linearGradient id="linear-gradient-3" x1="1372.52" y1="759.82" x2="1573.39" y2="1984.19" gradientUnits="userSpaceOnUse"><stop offset="0" stop-color="#e38ddd"/><stop offset="1" stop-color="#9571f6"/></linearGradient><linearGradient id="linear-gradient-4" x1="1268.02" y1="1116.6" x2="1739.03" y2="1116.6" gradientUnits="userSpaceOnUse"><stop offset="0" stop-color="#ff9085"/><stop offset="1" stop-color="#fb6fbb"/></linearGradient><linearGradient id="linear-gradient-5" x1="1268.02" y1="1162.98" x2="1739.03" y2="1162.98" xlink:href="#linear-gradient-4"/><linearGradient id="linear-gradient-6" x1="1185.28" y1="1300.07" x2="1519.93" y2="1300.07" xlink:href="#linear-gradient-4"/><linearGradient id="linear-gradient-7" x1="1376.8" y1="760.56" x2="1560.59" y2="1880.84" xlink:href="#linear-gradient-3"/><linearGradient id="linear-gradient-8" x1="1075.84" y1="1015.77" x2="1410.28" y2="1015.77" xlink:href="#linear-gradient-4"/><linearGradient id="linear-gradient-9" x1="1268.02" y1="2044.63" x2="1739.03" y2="2044.63" xlink:href="#linear-gradient-4"/><linearGradient id="linear-gradient-10" x1="1268.02" y1="2091" x2="1739.03" y2="2091" xlink:href="#linear-gradient-4"/><linearGradient id="linear-gradient-11" x1="1483.19" y1="2129.41" x2="1942" y2="2129.41" xlink:href="#linear-gradient-4"/><linearGradient id="linear-gradient-12" x1="1519.62" y1="998.95" x2="1663.18" y2="1874" xlink:href="#linear-gradient-3"/><linearGradient id="linear-gradient-13" x1="1075.84" y1="1958.71" x2="1410.28" y2="1958.71" xlink:href="#linear-gradient-4"/><linearGradient id="linear-gradient-14" x1="1185.28" y1="1487.42" x2="1661.02" y2="1487.42" xlink:href="#linear-gradient-4"/><linearGradient id="linear-gradient-15" x1="1268.02" y1="1580.86" x2="1739.03" y2="1580.86" xlink:href="#linear-gradient-4"/><linearGradient id="linear-gradient-16" x1="1268.02" y1="1627.24" x2="1739.03" y2="1627.24" xlink:href="#linear-gradient-4"/><linearGradient id="linear-gradient-17" x1="1076.67" y1="1676.06" x2="1378.51" y2="1676.06" xlink:href="#linear-gradient-4"/><linearGradient id="linear-gradient-18" x1="1328" y1="834.71" x2="1494.85" y2="1851.65" xlink:href="#linear-gradient-3"/><linearGradient id="linear-gradient-19" x1="1268.02" y1="1813.12" x2="1693.79" y2="1813.12" xlink:href="#linear-gradient-4"/><linearGradient id="linear-gradient-20" x1="1367.53" y1="1857.55" x2="1788.18" y2="1857.55" xlink:href="#linear-gradient-4"/><linearGradient id="linear-gradient-21" x1="1367.53" y1="1903.71" x2="1788.18" y2="1903.71" xlink:href="#linear-gradient-4"/><linearGradient id="linear-gradient-22" x1="1136.52" y1="790.93" x2="1321.42" y2="1917.89" xlink:href="#linear-gradient-3"/><linearGradient id="linear-gradient-23" x1="-177.34" y1="162.27" x2="194.38" y2="1071.43" gradientTransform="matrix(-0.99, -0.15, -0.15, 0.99, 2713.13, 141.46)" gradientUnits="userSpaceOnUse"><stop offset="0" stop-color="#aa80f9"/><stop offset="1" stop-color="#6165d7"/></linearGradient><linearGradient id="linear-gradient-24" x1="130.66" y1="1231.74" x2="144.92" y2="835.45" xlink:href="#linear-gradient-23"/><linearGradient id="linear-gradient-25" x1="-2291.55" y1="-1406.83" x2="-2356.39" y2="-923.08" gradientTransform="matrix(-0.78, -0.63, -0.63, 0.78, 30.37, 276.84)" xlink:href="#linear-gradient-23"/><linearGradient id="linear-gradient-26" x1="-2300.74" y1="-1543.79" x2="-2385.41" y2="-467.9" gradientTransform="matrix(-0.78, -0.63, -0.63, 0.78, 30.37, 276.84)" xlink:href="#linear-gradient-23"/><linearGradient id="linear-gradient-27" x1="-113.23" y1="1320.02" x2="-51.08" y2="739.02" gradientTransform="matrix(-0.99, -0.15, -0.15, 0.99, 2713.13, 141.46)" gradientUnits="userSpaceOnUse"><stop offset="0" stop-color="#ffc444"/><stop offset="1" stop-color="#f36f56"/></linearGradient><linearGradient id="linear-gradient-28" x1="6589.88" y1="2265.61" x2="6627.12" y2="1917.5" gradientTransform="translate(-3719.96 -1100.93) rotate(5.03)" xlink:href="#linear-gradient-27"/><linearGradient id="linear-gradient-29" x1="2305.98" y1="1482.22" x2="2025.36" y2="2827.67" gradientTransform="matrix(-1, 0, 0, 1, 4540.78, 0)" xlink:href="#linear-gradient-4"/><linearGradient id="linear-gradient-30" x1="-626.63" y1="2930.92" x2="-542.59" y2="2930.92" gradientTransform="matrix(1, 0.03, -0.03, 1, 3098.71, -20.2)" gradientUnits="userSpaceOnUse"><stop offset="0" stop-color="#311944"/><stop offset="1" stop-color="#893976"/></linearGradient><linearGradient id="linear-gradient-31" x1="-33.69" y1="3213.31" x2="55.6" y2="3213.31" gradientTransform="matrix(0.96, 0.27, -0.27, 0.96, 2999.17, -221.03)" xlink:href="#linear-gradient-30"/><linearGradient id="linear-gradient-32" x1="2396.63" y1="2722.98" x2="2158.47" y2="2186.13" gradientTransform="matrix(-1, 0, 0, 1, 4540.78, 0)" xlink:href="#linear-gradient-30"/><linearGradient id="linear-gradient-33" x1="1802.55" y1="2933.75" x2="1564.4" y2="2396.91" gradientTransform="matrix(-0.99, -0.12, -0.12, 0.99, 4409.53, 57.47)" xlink:href="#linear-gradient-30"/><linearGradient id="linear-gradient-34" x1="2208.81" y1="1461.95" x2="1928.19" y2="2807.4" gradientTransform="matrix(-1, 0, 0, 1, 4540.78, 0)" xlink:href="#linear-gradient-4"/><linearGradient id="linear-gradient-35" x1="1967.48" y1="2612.63" x2="2073.98" y2="2106.74" gradientTransform="matrix(-1, 0, 0, 1, 4540.78, 0)" xlink:href="#linear-gradient-4"/><linearGradient id="linear-gradient-36" x1="2016.58" y1="1421.86" x2="1735.95" y2="2767.31" gradientTransform="matrix(-1, 0, 0, 1, 4540.78, 0)" xlink:href="#linear-gradient-4"/><linearGradient id="linear-gradient-37" x1="2255.82" y1="2173.02" x2="2210.41" y2="2044.36" gradientTransform="matrix(-1, 0, 0, 1, 4540.78, 0)" xlink:href="#linear-gradient-3"/><linearGradient id="linear-gradient-38" x1="2057.45" y1="1986.61" x2="2074.1" y2="2101.65" gradientTransform="matrix(-1, 0, 0, 1, 4540.78, 0)" xlink:href="#linear-gradient-3"/><linearGradient id="linear-gradient-39" x1="2387.37" y1="1996.68" x2="2298.83" y2="1870.97" gradientTransform="matrix(-1, 0, 0, 1, 4540.78, 0)" xlink:href="#linear-gradient-3"/><linearGradient id="linear-gradient-40" x1="2217.54" y1="2204.74" x2="2411.29" y2="1811.19" gradientTransform="matrix(-1, 0, 0, 1, 4540.78, 0)" xlink:href="#linear-gradient-3"/><linearGradient id="linear-gradient-41" x1="2122.9" y1="1952.15" x2="2548.54" y2="1952.15" gradientTransform="matrix(-1, 0, 0, 1, 4540.78, 0)" xlink:href="#linear-gradient-3"/><linearGradient id="linear-gradient-42" x1="-776.96" y1="1501.43" x2="-840.51" y2="1340.01" gradientTransform="translate(3276.04 164.35) rotate(0.21)" gradientUnits="userSpaceOnUse"><stop offset="0" stop-color="#311944"/><stop offset="1" stop-color="#6b3976"/></linearGradient><linearGradient id="linear-gradient-43" x1="-796.38" y1="1509.16" x2="-859.99" y2="1347.58" xlink:href="#linear-gradient-42"/><linearGradient id="linear-gradient-44" x1="1223.26" y1="2029.63" x2="1311.15" y2="1678.08" gradientTransform="matrix(-1, 0, 0, 1, 1721.61, 0)" gradientUnits="userSpaceOnUse"><stop offset="0" stop-color="#6165d7"/><stop offset="1" stop-color="#aa80f9"/></linearGradient><linearGradient id="linear-gradient-45" x1="964.62" y1="2858.52" x2="1006.31" y2="2895.6" gradientTransform="matrix(-0.99, -0.14, -0.14, 0.99, 1769.8, 148.54)" xlink:href="#linear-gradient-2"/><linearGradient id="linear-gradient-46" x1="79.51" y1="2895.66" x2="79.51" y2="2823.03" gradientTransform="matrix(-0.99, -0.14, -0.14, 0.99, 853.59, 19.02)" xlink:href="#linear-gradient-27"/><linearGradient id="linear-gradient-47" x1="968.81" y1="2853.81" x2="1010.5" y2="2890.89" gradientTransform="matrix(-0.99, -0.14, -0.14, 0.99, 1769.8, 148.54)" xlink:href="#linear-gradient-2"/><linearGradient id="linear-gradient-48" x1="1012.09" y1="2867.05" x2="1053.78" y2="2904.13" gradientTransform="matrix(-1, 0, 0, 1, 1721.61, 0)" xlink:href="#linear-gradient-2"/><linearGradient id="linear-gradient-49" x1="126.94" y1="2904.21" x2="126.94" y2="2831.58" gradientTransform="matrix(-1, 0, 0, 1, 796.3, 0)" xlink:href="#linear-gradient-27"/><linearGradient id="linear-gradient-50" x1="451.1" y1="2937.51" x2="179.23" y2="1839.87" gradientTransform="translate(221.69)" xlink:href="#linear-gradient-2"/><linearGradient id="linear-gradient-51" x1="893.45" y1="2119.22" x2="206.01" y2="1641.13" gradientTransform="matrix(1, 0, 0, 1, 0, 0)" xlink:href="#linear-gradient-44"/><linearGradient id="linear-gradient-52" x1="1016.28" y1="2862.34" x2="1057.98" y2="2899.42" gradientTransform="matrix(-1, 0, 0, 1, 1721.61, 0)" xlink:href="#linear-gradient-2"/><linearGradient id="linear-gradient-53" x1="1147.17" y1="1413.83" x2="1372.95" y2="1697.88" gradientTransform="matrix(-1, 0.07, 0.07, 1, 1710.9, 46.55)" xlink:href="#linear-gradient-27"/><linearGradient id="linear-gradient-54" x1="1156.7" y1="1406.26" x2="1382.47" y2="1690.31" gradientTransform="matrix(-1, 0.07, 0.07, 1, 1710.9, 46.55)" xlink:href="#linear-gradient-27"/><linearGradient id="linear-gradient-55" x1="417.06" y1="1953.83" x2="458.57" y2="1953.83" gradientTransform="matrix(1, 0, 0, 1, 0, 0)" xlink:href="#linear-gradient-44"/><linearGradient id="linear-gradient-56" x1="446.84" y1="2018.27" x2="759.69" y2="2018.27" gradientTransform="matrix(1, 0, 0, 1, 0, 0)" xlink:href="#linear-gradient-44"/><linearGradient id="linear-gradient-57" x1="1001.26" y1="1807.05" x2="1063.64" y2="1885.52" gradientTransform="matrix(1, 0, 0, 1, 0, 0)" xlink:href="#linear-gradient-27"/><linearGradient id="linear-gradient-58" x1="1409.7" y1="2157.26" x2="752.73" y2="1700.36" xlink:href="#linear-gradient-44"/><linearGradient id="linear-gradient-59" x1="-3223.71" y1="695.8" x2="-3051.45" y2="695.8" gradientTransform="translate(4938.56)" xlink:href="#linear-gradient-27"/><linearGradient id="linear-gradient-60" x1="-2518.78" y1="1019.24" x2="-2184.72" y2="1019.24" gradientTransform="translate(3936.97)" xlink:href="#linear-gradient-23"/><linearGradient id="linear-gradient-61" x1="4440.6" y1="408.13" x2="4455.04" y2="668.04" gradientTransform="matrix(-0.96, 0.29, 0.29, 0.96, 5833.54, -297.23)" xlink:href="#linear-gradient-3"/><linearGradient id="linear-gradient-62" x1="-2361.75" y1="1031.81" x2="-2027.69" y2="1031.81" gradientTransform="translate(3936.97)" xlink:href="#linear-gradient-23"/><linearGradient id="linear-gradient-63" x1="1723.57" y1="1468.13" x2="1745.29" y2="1468.13" gradientUnits="userSpaceOnUse"><stop offset="0" stop-color="#311944"/><stop offset="1" stop-color="#a03976"/></linearGradient><linearGradient id="linear-gradient-64" x1="-2340.4" y1="811.82" x2="-2040.88" y2="1175.76" gradientTransform="translate(3936.97)" xlink:href="#linear-gradient-23"/><linearGradient id="linear-gradient-65" x1="-1444.94" y1="230.7" x2="-1841.08" y2="562.43" gradientTransform="translate(3863.53 6.93) rotate(-2.92)" xlink:href="#linear-gradient-2"/><linearGradient id="linear-gradient-66" x1="945.32" y1="822.61" x2="1267.03" y2="533.37" gradientTransform="matrix(-1, 0, 0, 1, 3058.2, 0)" xlink:href="#linear-gradient-27"/><linearGradient id="linear-gradient-67" x1="1907.22" y1="490.59" x2="2020.65" y2="490.59" xlink:href="#linear-gradient-63"/><linearGradient id="linear-gradient-68" x1="1921.59" y1="784.58" x2="1919.14" y2="560.73" xlink:href="#linear-gradient-63"/><linearGradient id="linear-gradient-69" x1="955.89" y1="834.37" x2="1277.6" y2="545.12" gradientTransform="matrix(-1, 0, 0, 1, 3058.2, 0)" xlink:href="#linear-gradient-27"/><linearGradient id="linear-gradient-70" x1="1061.91" y1="880.28" x2="1354.52" y2="880.28" gradientTransform="matrix(-1, 0, 0, 1, 3058.2, 0)" xlink:href="#linear-gradient-3"/><linearGradient id="linear-gradient-71" x1="1201.04" y1="803.44" x2="1602.67" y2="803.44" gradientTransform="matrix(-1, 0, 0, 1, 3058.2, 0)" xlink:href="#linear-gradient-3"/><linearGradient id="linear-gradient-72" x1="-544.51" y1="696.88" x2="-352.66" y2="887.19" gradientTransform="translate(2093.74)" xlink:href="#linear-gradient-3"/><linearGradient id="linear-gradient-73" x1="1078.63" y1="820.45" x2="832.95" y2="578.7" gradientTransform="matrix(-1, 0, 0, 1, 3058.2, 0)" xlink:href="#linear-gradient-27"/><linearGradient id="linear-gradient-74" x1="1852.74" y1="848.85" x2="1936.71" y2="848.85" xlink:href="#linear-gradient-63"/><linearGradient id="linear-gradient-75" x1="-460.65" y1="2498.42" x2="-732.81" y2="2822.05" gradientTransform="matrix(-1, 0, 0, 1, 587.07, 0)" xlink:href="#linear-gradient-3"/><linearGradient id="linear-gradient-76" x1="-304.48" y1="2842.41" x2="-326.03" y2="2646.45" gradientTransform="matrix(-1, 0.05, 0.05, 1, 617.51, 48.38)" xlink:href="#linear-gradient-23"/><linearGradient id="linear-gradient-77" x1="1034.48" y1="239.2" x2="1353.26" y2="314.5" gradientTransform="matrix(1, 0, 0, 1, 0, 0)" xlink:href="#linear-gradient-30"/><linearGradient id="linear-gradient-78" x1="-2334.31" y1="152.65" x2="-2061.02" y2="659.53" gradientTransform="matrix(-1, 0, 0, 1, -1034.14, 0)" xlink:href="#linear-gradient-3"/><linearGradient id="linear-gradient-79" x1="-2414.42" y1="186.14" x2="-2146.6" y2="723.58" gradientTransform="matrix(-1, 0, 0, 1, -1034.14, 0)" xlink:href="#linear-gradient-3"/><linearGradient id="linear-gradient-80" x1="1249.49" y1="305.66" x2="704.71" y2="631.41" gradientTransform="matrix(1, 0, 0, 1, 0, 0)" xlink:href="#linear-gradient-30"/><linearGradient id="linear-gradient-81" x1="-1881.07" y1="428.19" x2="-1576.98" y2="992.19" gradientTransform="matrix(-1, 0, 0, 1, -1034.14, 0)" xlink:href="#linear-gradient-4"/><linearGradient id="linear-gradient-82" x1="-1970.2" y1="465.45" x2="-1672.21" y2="1063.46" gradientTransform="matrix(-1, 0, 0, 1, -1034.14, 0)" xlink:href="#linear-gradient-4"/><linearGradient id="linear-gradient-83" x1="995.62" y1="868.26" x2="1314.4" y2="943.56" gradientTransform="matrix(1, 0, 0, 1, 0, 0)" xlink:href="#linear-gradient-27"/><linearGradient id="linear-gradient-84" x1="-2295.45" y1="781.7" x2="-2022.16" y2="1288.58" gradientTransform="matrix(-1, 0, 0, 1, -1034.14, 0)" xlink:href="#linear-gradient-27"/><linearGradient id="linear-gradient-85" x1="-2375.55" y1="815.19" x2="-2107.74" y2="1352.63" gradientTransform="matrix(-1, 0, 0, 1, -1034.14, 0)" xlink:href="#linear-gradient-27"/><linearGradient id="linear-gradient-86" x1="900.52" y1="1325.48" x2="929.88" y2="2182.37" xlink:href="#linear-gradient-3"/><linearGradient id="linear-gradient-87" x1="-72.69" y1="1296.38" x2="313.23" y2="1804.63" gradientTransform="matrix(-1, 0, 0, 1, 994.5, 0)" xlink:href="#linear-gradient-3"/></defs><title>01bra</title><g class="cls-1"><g id="Layer_2" data-name="Layer 2"><g id="Illustration"><path class="cls-2" d="M1434.42.64C722.17-21,105.22,510.48,12,1207.83-89.91,1970.29,471,2656.32,1161.19,2766.2c858.47,136.67,1691.14-654,1616.38-1511.72C2721.24,608.25,2158.43,22.62,1434.42.64Z"/><path class="cls-3" d="M1739.36,2729.24a112,112,0,0,1-74.25-84.31l-55.19-273.15-472.1,16.76-58.1,284.56c-8.14,39.85,24.44,79.83,62,94.51l197.52,77.28a256.77,256.77,0,0,0,115.48,16.74l417.43-35.71A25.89,25.89,0,0,0,1895.5,2803c1.42-12.31,10-26.12-1.67-30Z"/><path class="cls-4" d="M1744,2712.63a111,111,0,0,1-74.18-83.25l-55.13-269.71-460.6,16.57-58,281a82.21,82.21,0,0,0,50.86,93.31l197.32,76.31a259.26,259.26,0,0,0,115.36,16.53l417-35.26a25.73,25.73,0,0,0,5.85-50.09Z"/><path class="cls-3" d="M173.14,2553.33c-51.2,3.05-93.08-30.16-93.08-74.05V897.3c0-43.89,41.88-77.79,93.08-75.57L2551,986.36c37.59,1.63,57.76-28.71,57.76,8.62V2340.42c0,37.33-30.44,69.52-68,71.76Z"/><path class="cls-5" d="M194.42,2553.33c-51.2,3.05-93.08-30.16-93.08-74.05V897.3c0-43.89,41.88-77.79,93.08-75.57L2562,924.32c37.59,1.63,68,33.32,68,70.65V2340.42c0,37.33-30.44,69.52-68,71.76Z"/><path class="cls-6" d="M2562,956,194.42,858.59c-27.37-1.13-49.62,17-49.62,40.4v1577.9c0,23.44,22.25,41.16,49.62,39.59l2367.63-136c20.15-1.16,36.44-18.33,36.44-38.36V993.75C2598.48,973.72,2582.19,956.82,2562,956Z"/><path class="cls-7" d="M2544.45,2266.67,220.08,2381.41c-24.4,1.2-44.22-14.92-44.22-36V919.71c0-21.1,19.83-37.47,44.22-36.57l2324.38,86.28a34.47,34.47,0,0,1,33,34.15V2232.12A35,35,0,0,1,2544.45,2266.67Z"/><polygon class="cls-8" points="799.93 1033.7 269.09 1018.09 269.09 967.48 799.93 984.65 799.93 1033.7"/><polygon class="cls-9" points="1049.91 1027.06 927.29 1023.35 927.29 988.77 1049.91 992.73 1049.91 1027.06"/><polygon class="cls-9" points="1049.91 1074.74 927.29 1071.39 927.29 1036.81 1049.91 1040.42 1049.91 1074.74"/><polygon class="cls-10" points="1661.02 1091.47 1185.28 1078.45 1185.28 1044.41 1661.02 1058.42 1661.02 1091.47"/><polygon class="cls-11" points="1739.03 1139.3 1268.02 1127.77 1268.02 1093.9 1739.03 1106.41 1739.03 1139.3"/><polygon class="cls-12" points="1739.03 1185 1268.02 1174.83 1268.02 1140.96 1739.03 1152.11 1739.03 1185"/><polygon class="cls-8" points="1739.03 1230.69 1268.02 1221.89 1268.02 1188.02 1739.03 1197.81 1739.03 1230.69"/><polygon class="cls-9" points="1049.91 1122.43 927.29 1119.43 927.29 1084.85 1049.91 1088.11 1049.91 1122.43"/><polygon class="cls-9" points="1049.91 1170.12 927.29 1167.47 927.29 1132.9 1049.91 1135.8 1049.91 1170.12"/><polygon class="cls-9" points="1049.91 1217.81 927.29 1215.52 927.29 1180.94 1049.91 1183.49 1049.91 1217.81"/><polygon class="cls-9" points="1049.91 1265.5 927.29 1263.56 927.29 1228.98 1049.91 1231.17 1049.91 1265.5"/><polygon class="cls-8" points="1378.51 1270.69 1076.67 1265.92 1076.67 1231.65 1378.51 1237.05 1378.51 1270.69"/><polygon class="cls-9" points="1049.91 1313.18 927.29 1311.6 927.29 1277.02 1049.91 1278.86 1049.91 1313.18"/><polygon class="cls-9" points="1049.91 1360.87 927.29 1359.64 927.29 1325.07 1049.91 1326.55 1049.91 1360.87"/><polygon class="cls-9" points="1049.91 1408.56 927.29 1407.69 927.29 1373.11 1049.91 1374.24 1049.91 1408.56"/><polygon class="cls-13" points="1519.93 1319.26 1185.28 1314.93 1185.28 1280.89 1519.93 1285.91 1519.93 1319.26"/><polygon class="cls-8" points="1693.79 1367.33 1268.02 1363.06 1268.02 1329.19 1693.79 1334.35 1693.79 1367.33"/><polygon class="cls-14" points="1693.79 1413.15 1268.02 1410.12 1268.02 1376.25 1693.79 1380.17 1693.79 1413.15"/><polygon class="cls-9" points="1049.91 1456.25 927.29 1455.73 927.29 1421.15 1049.91 1421.93 1049.91 1456.25"/><polygon class="cls-9" points="1049.91 1503.94 927.29 1503.77 927.29 1469.19 1049.91 1469.62 1049.91 1503.94"/><polygon class="cls-9" points="1049.91 1551.63 927.29 1551.82 927.29 1517.24 1049.91 1517.3 1049.91 1551.63"/><polygon class="cls-9" points="1049.91 1599.32 927.29 1599.86 927.29 1565.28 1049.91 1564.99 1049.91 1599.32"/><polygon class="cls-9" points="1049.91 1647 927.29 1647.9 927.29 1613.32 1049.91 1612.68 1049.91 1647"/><polygon class="cls-9" points="1049.91 1694.69 927.29 1695.94 927.29 1661.37 1049.91 1660.37 1049.91 1694.69"/><polygon class="cls-9" points="1049.91 1742.38 927.29 1743.99 927.29 1709.41 1049.91 1708.06 1049.91 1742.38"/><polygon class="cls-9" points="1049.91 1790.07 927.29 1792.03 927.29 1757.45 1049.91 1755.74 1049.91 1790.07"/><polygon class="cls-9" points="1049.91 1837.76 927.29 1840.07 927.29 1805.49 1049.91 1803.43 1049.91 1837.76"/><polygon class="cls-9" points="1049.91 1885.44 927.29 1888.12 927.29 1853.54 1049.91 1851.12 1049.91 1885.44"/><polygon class="cls-9" points="1049.91 1933.13 927.29 1936.16 927.29 1901.58 1049.91 1898.81 1049.91 1933.13"/><polygon class="cls-9" points="1049.91 1980.82 927.29 1984.2 927.29 1949.62 1049.91 1946.5 1049.91 1980.82"/><polygon class="cls-9" points="1049.91 2028.51 927.29 2032.24 927.29 1997.66 1049.91 1994.19 1049.91 2028.51"/><polygon class="cls-9" points="1049.91 2076.2 927.29 2080.29 927.29 2045.71 1049.91 2041.87 1049.91 2076.2"/><polygon class="cls-9" points="1049.91 2123.89 927.29 2128.33 927.29 2093.75 1049.91 2089.56 1049.91 2123.89"/><polygon class="cls-9" points="1049.91 2171.57 927.29 2176.37 927.29 2141.79 1049.91 2137.25 1049.91 2171.57"/><polygon class="cls-9" points="1049.91 2219.26 927.29 2224.41 927.29 2189.84 1049.91 2184.94 1049.91 2219.26"/><polygon class="cls-9" points="1049.91 2266.95 927.29 2272.46 927.29 2237.88 1049.91 2232.63 1049.91 2266.95"/><polygon class="cls-15" points="1410.28 1037.96 1075.84 1027.84 1075.84 993.57 1410.28 1004.39 1410.28 1037.96"/><polygon class="cls-8" points="1661.02 2009.9 1185.28 2024.39 1185.28 1990.35 1661.02 1976.85 1661.02 2009.9"/><polygon class="cls-16" points="1739.03 2053.22 1268.02 2068.93 1268.02 2035.06 1739.03 2020.33 1739.03 2053.22"/><polygon class="cls-17" points="1739.03 2098.92 1268.02 2115.98 1268.02 2082.11 1739.03 2066.03 1739.03 2098.92"/><polygon class="cls-18" points="1942 2136.67 1483.19 2154.62 1483.19 2121.2 1942 2104.2 1942 2136.67"/><polygon class="cls-19" points="1942 2181.78 1483.19 2201.06 1483.19 2167.64 1942 2149.31 1942 2181.78"/><polygon class="cls-8" points="1942 2226.89 1483.19 2247.49 1483.19 2214.07 1942 2194.42 1942 2226.89"/><polygon class="cls-20" points="1410.28 1970.89 1075.84 1980.11 1075.84 1945.84 1410.28 1937.32 1410.28 1970.89"/><polygon class="cls-21" points="1661.02 1504.76 1185.28 1504.12 1185.28 1470.08 1661.02 1471.71 1661.02 1504.76"/><polygon class="cls-8" points="1739.03 1550.57 1268.02 1551.29 1268.02 1517.42 1739.03 1517.68 1739.03 1550.57"/><polygon class="cls-22" points="1739.03 1596.26 1268.02 1598.35 1268.02 1564.48 1739.03 1563.37 1739.03 1596.26"/><polygon class="cls-23" points="1739.03 1641.96 1268.02 1645.41 1268.02 1611.54 1739.03 1609.07 1739.03 1641.96"/><polygon class="cls-24" points="1378.51 1691.34 1076.67 1694.42 1076.67 1660.15 1378.51 1657.7 1378.51 1691.34"/><polygon class="cls-8" points="1519.93 1736.22 1185.28 1740.61 1185.28 1706.56 1519.93 1702.88 1519.93 1736.22"/><polygon class="cls-25" points="1693.79 1779.77 1268.02 1786.58 1268.02 1752.71 1693.79 1746.79 1693.79 1779.77"/><polygon class="cls-26" points="1693.79 1825.6 1268.02 1833.64 1268.02 1799.77 1693.79 1792.61 1693.79 1825.6"/><polygon class="cls-27" points="1788.18 1869.37 1367.53 1878.53 1367.53 1844.87 1788.18 1836.58 1788.18 1869.37"/><polygon class="cls-28" points="1788.18 1914.92 1367.53 1925.3 1367.53 1891.63 1788.18 1882.13 1788.18 1914.92"/><polygon class="cls-29" points="1410.28 1457.78 1075.84 1456.36 1075.84 1422.09 1410.28 1424.21 1410.28 1457.78"/><polygon class="cls-30" points="799.93 1110.36 496.09 1102.81 496.09 1052.86 799.93 1061.3 799.93 1110.36"/><polygon class="cls-8" points="417.5 1100.86 474.73 1102.28 474.73 1052.27 417.5 1050.68 417.5 1100.86"/><polygon class="cls-8" points="799.93 1180.87 496.09 1174.61 496.09 1124.66 799.93 1131.82 799.93 1180.87"/><polygon class="cls-8" points="417.5 1172.99 474.73 1174.17 474.73 1124.16 417.5 1122.81 417.5 1172.99"/><polygon class="cls-8" points="799.93 1251.39 496.09 1246.41 496.09 1196.46 799.93 1202.34 799.93 1251.39"/><polygon class="cls-8" points="417.5 1245.12 474.73 1246.06 474.73 1196.05 417.5 1194.94 417.5 1245.12"/><polygon class="cls-30" points="799.93 1751.95 269.09 1759.11 269.09 1708.5 799.93 1702.89 799.93 1751.95"/><polygon class="cls-8" points="799.93 1828.6 496.09 1834.09 496.09 1784.14 799.93 1779.55 799.93 1828.6"/><polygon class="cls-8" points="417.5 1835.51 474.73 1834.47 474.73 1784.46 417.5 1785.33 417.5 1835.51"/><polygon class="cls-8" points="799.93 1899.12 496.09 1905.89 496.09 1855.94 799.93 1850.06 799.93 1899.12"/><polygon class="cls-8" points="417.5 1907.64 474.73 1906.36 474.73 1856.35 417.5 1857.46 417.5 1907.64"/><polygon class="cls-8" points="799.93 1969.64 496.09 1977.68 496.09 1927.74 799.93 1920.58 799.93 1969.64"/><polygon class="cls-8" points="417.5 1979.77 474.73 1978.25 474.73 1928.24 417.5 1929.59 417.5 1979.77"/><polygon class="cls-30" points="799.93 1322.39 269.09 1315.93 269.09 1265.32 799.93 1273.33 799.93 1322.39"/><polygon class="cls-8" points="799.93 1399.04 496.09 1396.73 496.09 1346.79 799.93 1349.98 799.93 1399.04"/><polygon class="cls-8" points="417.5 1396.13 474.73 1396.57 474.73 1346.56 417.5 1345.96 417.5 1396.13"/><polygon class="cls-8" points="799.93 1469.56 496.09 1468.53 496.09 1418.58 799.93 1420.5 799.93 1469.56"/><polygon class="cls-8" points="417.5 1468.26 474.73 1468.46 474.73 1418.45 417.5 1418.09 417.5 1468.26"/><polygon class="cls-8" points="799.93 1611.51 496.09 1613.06 496.09 1563.11 799.93 1562.45 799.93 1611.51"/><polygon class="cls-8" points="417.5 1613.46 474.73 1613.17 474.73 1563.16 417.5 1563.28 417.5 1613.46"/><polygon class="cls-8" points="799.93 1682.03 496.09 1684.86 496.09 1634.91 799.93 1632.97 799.93 1682.03"/><polygon class="cls-8" points="417.5 1685.59 474.73 1685.06 474.73 1635.05 417.5 1635.41 417.5 1685.59"/><polygon class="cls-8" points="799.93 1540.08 496.09 1540.33 496.09 1490.38 799.93 1491.02 799.93 1540.08"/><polygon class="cls-8" points="417.5 1540.39 474.73 1540.35 474.73 1490.34 417.5 1490.22 417.5 1540.39"/><polygon class="cls-30" points="799.93 2040.13 269.09 2056.43 269.09 2005.81 799.93 1991.08 799.93 2040.13"/><polygon class="cls-8" points="799.93 2116.78 496.09 2127.5 496.09 2077.55 799.93 2067.73 799.93 2116.78"/><polygon class="cls-8" points="417.5 2130.27 474.73 2128.25 474.73 2078.24 417.5 2080.1 417.5 2130.27"/><polygon class="cls-8" points="799.93 2187.3 496.09 2199.3 496.09 2149.35 799.93 2138.25 799.93 2187.3"/><polygon class="cls-8" points="417.5 2202.4 474.73 2200.14 474.73 2150.13 417.5 2152.22 417.5 2202.4"/><polygon class="cls-8" points="799.93 2257.82 496.09 2271.1 496.09 2221.15 799.93 2208.76 799.93 2257.82"/><polygon class="cls-8" points="417.5 2274.53 474.73 2272.03 474.73 2222.02 417.5 2224.35 417.5 2274.53"/><polygon class="cls-8" points="864.43 2255.25 852.74 2255.76 852.74 986.36 864.43 986.74 864.43 2255.25"/><path class="cls-8" d="M2314.88,2314.26c-515.4,10.78-631.3,84.37-777.75-3.81-201.24-121.16-109.59-336.7-305.66-449.75C985,1718.56,700.77,1978.87,572.12,1852,444,1725.58,686,1428.12,545.92,1096.55c-56.22-133.06-152-219.48-218.09-269l-133.41-5.78c-51.2-2.22-93.08,31.68-93.08,75.57v1582c0,43.89,41.88,77.11,93.08,74.05L2562,2412.18c37.59-2.24,68-34.43,68-71.76V2316.5C2559.11,2314,2449.19,2311.45,2314.88,2314.26Z"/><path class="cls-31" d="M2250.35,1237c126.71,114.93,288.07,145.28,369.33,72.24l.06,0,.31-.36a131.68,131.68,0,0,0,9.59-9.45,139.51,139.51,0,0,0,10.58-13.25l98.27-110.65,20.41-23-147.1-129.38A480.06,480.06,0,0,0,2530.66,928c-36.6-33.18-76.08-59.29-115.66-77.95L2267.76,720.62,2152.69,864.2c-.42.47-.89.9-1.31,1.36a130.18,130.18,0,0,0-11.8,15,142.13,142.13,0,0,0-14.16,26.55C2088.59,997.84,2137.33,1134.44,2250.35,1237Z"/><path class="cls-32" d="M2249.44,1238c34.24,32.55,73,60,115.15,78.66,43.2,19.1,104.23,36.5,152,32.5,79.48-6.65,117-57,165.55-111.13,18.72-20.84,38.83-40.54,56.41-62.38-46.15-5.88-106,9.22-149.33,24.45-37.4,13.16-73,34.57-112.64,40.46-87.4,13-180.77-41.24-224.47-115.6-26.71-45.43-16.08-104.38-50.38-146.46-22.17-27.2-56.46-42.09-76.36-71.32,3.56,5.24-8.84,42.41-9.73,50.31a217.56,217.56,0,0,0,.63,54.62c5.94,42.34,24,82.29,46.33,118.41A543,543,0,0,0,2249.44,1238Z"/><polygon class="cls-33" points="2154.08 620.97 2664.87 735.26 2884.61 1210.32 2898.71 1221.69 2893.8 1227.78 2893.8 1227.78 2362.72 1109.08 2134.38 615.13 2134.38 615.13 2139.29 609.04 2154.08 620.97"/><polygon class="cls-34" points="2671.63 726.88 2900.18 1220.99 2368.91 1102.12 2140.36 608.01 2671.63 726.88"/><path class="cls-35" d="M2693.27,1466.5a7.74,7.74,0,0,0,8.75-6l57.67-262.73a7.74,7.74,0,0,0-1.21-6.09L2539.21,877.26a7.74,7.74,0,0,0-12.7,8.86l217.33,311.65-56.95,259.42a7.74,7.74,0,0,0,5.9,9.22Z"/><path class="cls-36" d="M2711,1454.08l-4.64-10.26a11.67,11.67,0,0,0-20.44-1.46l-5.52,9.77c-1.51,2.35-1.71,5.08-2,7.86l-7.53,85.63c-.16,1.84,6.87,4,16.68,4.82s17.1,0,17.26-1.84l7.55-85.87A17.15,17.15,0,0,0,2711,1454.08Z"/><path class="cls-37" d="M2172.16,1867.95c-24.41-26.07,43.17-124,79.35-166.91,31.6-37.49,64.09-76,104-71.14,35,4.28,69.1,41.22,71.14,76.61C2432.12,1801.74,2206.87,1905,2172.16,1867.95Z"/><path class="cls-38" d="M2465.3,2874.25c4.6,3.74,5.44,13.06,6,19.16.25,2.72.37,4.09.07,5-2.22,7-15.83,7.76-37.18,9.94-33.73,3.45-43.77,6.1-46.41,1.08-2.47-4.7,3.51-12.41,4.19-13.26,3.62-4.57,8.07-6.23,16.67-9.06,15.91-5.24,26.67-8.11,29.92-9C2458.89,2872.77,2462.28,2871.8,2465.3,2874.25Z"/><path class="cls-39" d="M2445.24,2843.44l-3.38,38.44c1,1.86,12.38,7.42,21.46,2.65l8.67-37.78Z"/><path class="cls-40" d="M2197.8,2869.31c5.51,6.08,6.76,17.28,2,22.8s-11.79,1.36-31.87,2c-21.51.64-27.12,5.72-41.74,1.69-5.9-1.63-16.33-5.59-16.13-9.81.14-3,5.45-4.5,23.18-10.44,25.17-8.43,25.06-8.89,30.4-9.78C2177,2863.51,2190.53,2861.28,2197.8,2869.31Z"/><path class="cls-39" d="M2184,2834.23l-10.79,35.88c.82,1.92,11.78,8.35,21.19,4.28l16-34.83Z"/><path class="cls-41" d="M2279.87,2048.37a3361.39,3361.39,0,0,1-29.52,403.49,3361.29,3361.29,0,0,1-76.69,392.82l41.29,11.11c34.92-32.56,79-83.81,100.22-156.24,13.19-45,8.8-68.05,17.16-123.34,13.32-88,40.31-134.16,68.2-205.15,25.06-63.79,54.69-157.42,70.58-282.56Z"/><path class="cls-42" d="M2404.1,2036.86q12.64,230.06,20.6,468.59,5.91,179,8.76,353.35l42.18,5.21a491.15,491.15,0,0,0,44-113.52c15-60.19,11.54-95.94,18.12-158.32,7.39-70,18.12-85.21,37.12-173.48,38.58-179.13,57.87-268.7,14.83-324.41C2575.73,2076.18,2531.94,2030.81,2404.1,2036.86Z"/><path class="cls-43" d="M2609,1651.4A654.86,654.86,0,0,0,2468.72,1628c-84.28-4.76-126.42-7.15-156.29,12.92-69,46.36-15.57,153.35-43.81,418.57-4,37.88-4.94,76-7.86,114-4.84,62.88-5.94,66.29-1.56,72.67,27.44,40,129.8-20.31,279.83,3.51,83.95,13.33,122,44,145,21.89,26.82-25.83,3.81-95.31-16-155.12-22.73-68.65-36.78-69.53-49.68-121.24-13.49-54-5.33-81.86-3.23-167.08A1509.55,1509.55,0,0,0,2609,1651.4Z"/><g class="cls-44"><path class="cls-45" d="M2405,2149.32c39.21-3.07,64.65,19.1,98.5,1.82,46.42-23.69,61.33-97.41,58.37-149.58-4.49-79.27-49.76-100.16-42-151.4,4.22-27.71,24-64.5,95-102.08.95,31.63.77,58.6.24,80-2.1,85.22-10.26,113,3.23,167.08,12.9,51.7,26.95,52.59,49.68,121.24,19.8,59.81,42.81,129.28,16,155.12-23,22.15-61.07-8.56-145-21.89-129.28-20.53-223.11,21.32-264.16,7.75C2324.49,2175.42,2369.49,2152.09,2405,2149.32Z"/></g><path class="cls-46" d="M2555.5,1656.84c28-23,84.32,3,99.37,10,83.94,38.83,159.31,143.46,140.64,254-2.8,16.58-15.79,94.15-81.47,131.74-59.27,33.91-139.29,25.19-203.41-22.84l-26.29-23.33-25.86-28a207.59,207.59,0,0,1,68.91-38c42.63-13.76,73.67,10.93,93.45-7.84,13.65-13,13.68-35.83,10.31-49.69-6.79-27.94-31.43-35.8-52-55.64C2530.87,1780.76,2522,1684.39,2555.5,1656.84Z"/><polygon class="cls-47" points="2153.03 2017.83 2528.42 2012.22 2428.6 2060.4 2152.07 2042.3 2153.03 2017.83"/><path class="cls-48" d="M2541.67,2022.2h0a16.71,16.71,0,0,1-11,15.7l-119.95,47-.55-32.6,118.24-40.1A10.38,10.38,0,0,1,2541.67,2022.2Z"/><path class="cls-5" d="M2483.86,2000c2.3-.51-11.22-27.47-21.84-24.36s-62.56,33.21-67.28,45.61l-4.72,12.39s22.66,1.77,36.71-2.95S2465.13,2004.16,2483.86,2000Z"/><path class="cls-49" d="M2400.21,1823.59l26.46,240.92c.91,8.31-10.72,20.7-19.08,20.3L2019.43,2061a13.61,13.61,0,0,1-12.77-11.29L1957.94,1817c-1.45-8.47,13.77-17.21,22.36-17l406.78,11.44A13.61,13.61,0,0,1,2400.21,1823.59Z"/><path class="cls-50" d="M2391.34,1830.61l26.46,240.92a13.61,13.61,0,0,1-14.17,15.08L2010.55,2068a13.61,13.61,0,0,1-12.77-11.29L1957.63,1823a13.61,13.61,0,0,1,13.79-15.91l406.78,11.44A13.61,13.61,0,0,1,2391.34,1830.61Z"/><path class="cls-51" d="M2160.53,2011.55c34.32-14.55,22.21-42.29,62.74-76.85,53.47-45.6,108-25.82,127-61.17,5.94-11,8.78-28.14-1.57-55.86l29.46.83a13.61,13.61,0,0,1,13.14,12.12l26.46,240.92a13.61,13.61,0,0,1-14.17,15.08L2010.55,2068a13.61,13.61,0,0,1-12.77-11.29l-5.54-32.26a148.48,148.48,0,0,1,42.81-16C2092.72,1996.72,2121,2028.3,2160.53,2011.55Z"/><path class="cls-5" d="M1985.79,2034.31a3.07,3.07,0,0,1,2.76-4c8.31-.42,27.58-.6,38.21,5.92,13.82,8.46,31.69,23.91,16.64,31.7l-14,7.28a3,3,0,0,1-2.06.28c-5-1.1-26-5.76-28.3-6.92C1996.9,2067.47,1988.89,2043.7,1985.79,2034.31Z"/><path class="cls-5" d="M2462.43,1535.89a292,292,0,0,0,5.22,58.37c3,15.55,5.2,19.57,8,22.83,4.18,4.91,10.52,9,46.32,17.9,19.48,4.83,22,4.7,22.42,6.63,2.1,9.43-51,41.58-105.92,33.83-33.59-4.74-64.16-23.91-62.28-34s35.44-4.69,45.45-23c7-12.75-.84-30.85-10.06-45.83C2420.48,1555.9,2453.5,1552.62,2462.43,1535.89Z"/><path class="cls-52" d="M2400.08,1545.77c-7.93-10.53-8.42-28.92.72-40.54,7.86-10,20.23-11.43,27.64-12.28,21.46-2.48,48.54,6.48,58,26.23,5.58,11.71-6.49,36-8.38,40.4-2.14,4.94-6,6.64-9.61,10.38-5,5.18-12.77,13.43-25.48,27.21a88.41,88.41,0,0,0-4.88-14.56,78.11,78.11,0,0,0-10.19-17.11C2416.67,1551.86,2407.6,1555.75,2400.08,1545.77Z"/><path class="cls-5" d="M2461.06,1585.58s-14.11,23.15-42.2,21.32c-25.15-1.64-28.83-58-12.77-70,5.36-4,16.09-5.65,24.82-3.21,5.15,1.45,6.9,3.59,15.37,5.78,7.81,2,10,1.16,12.38,3.14,2.95,2.48,5.11,8.57.18,25.06,4.8-4.86,10.56-6.72,14.64-4.8a8.6,8.6,0,0,1,3.35,3.26C2480.34,1572.58,2474.46,1580.81,2461.06,1585.58Z"/><path class="cls-53" d="M2459.79,1539.24c-1.21.9,2.5,5.43,2.77,11.83.54,12.43-12,27.36-24.88,28.62-7.59.75-9.68-3.83-22.22-5.15a57.48,57.48,0,0,0-18.3,1.06c-3.94,13.64-.23,27.23,8.88,33.54,9.81,6.79,22.35,2.67,27.59.95,3.51-1.15,14.74-4.82,20.61-15.12,6.12-10.74.11-17.21,7.13-24.47,3.54-3.66,8.19-5.25,12.72-12.34a35.08,35.08,0,0,0,2.55-4.78C2470.14,1546.5,2461.55,1537.93,2459.79,1539.24Z"/><path class="cls-5" d="M2406.28,1580.65s5.43,2.84,14.82,2.31c.46,0,1,.11,1,.34.22.89-5.81,4.88-11.36,3.32-3.94-1.11-7-4.84-6.47-5.79C2404.51,1580.44,2405.41,1580.5,2406.28,1580.65Z"/><path class="cls-54" d="M442.35,1679.69c-6.67,2.52-108.39,43-129.3,149.14-1.69,8.58-18,99.79,43.83,164.23,69.36,72.25,202.92,70.46,255.94,10.06,12.36-14.09,18.89-29.7,22.54-42.82h0l-14-37.11c-17-20.58-40.25-25.45-52.64-28.51-30.55-7.53-53.62,6.08-71.12-8.65-9.68-8.15-11.61-19.88-13.32-30.37-5.85-35.7,14.3-57.67,15.76-79.69,1.1-16.46,6.86-52.52-14.62-76C471.83,1685,453,1681,442.35,1679.69Z"/><path class="cls-55" d="M402.71,2862.86c-1.19-6.54-22.29-12.45-32.74-3.7-5.19,4.35-8.76,13.16-5.76,17.14,1.09,1.45-3.38,4,.9,4C379.33,2880.51,403.89,2869.35,402.71,2862.86Z"/><path class="cls-56" d="M380.59,2865.24l-21.71-3.07c10.06-12.11,8.19-50.67,8.19-50.67l23.08,5.15s-2.63,10.58-7.1,26.2C381.53,2848.2,380.84,2856.56,380.59,2865.24Z"/><path class="cls-57" d="M382.52,2862.56s-26.13-6-29-.84-5,19.06,11.56,18.62S384,2867,382.52,2862.56Z"/><path class="cls-58" d="M700.55,2887.37c-2.09-6.3-23.82-9.21-32.94.92-4.53,5-6.83,14.25-3.3,17.77,1.28,1.28-2.79,4.43,1.46,3.88C679.87,2908.12,702.63,2893.63,700.55,2887.37Z"/><path class="cls-59" d="M679,2892.82H657.06c8.26-13.4,1-51.31,1-51.31l23.58,1.87s-1.12,10.85-3.37,26.93C677.52,2875.81,678,2884.19,679,2892.82Z"/><path class="cls-60" d="M735.8,2063.8a1014.51,1014.51,0,0,1,34,155.57c26.63,193.7-30,199.88-19.4,414.52,3.37,68.51-59.36,226.5-64.89,230a68.1,68.1,0,0,1-8.68.34,86.48,86.48,0,0,1-22.09-3.68c-9.94-1.71-45.76-98.75-37.46-156.45,5.88-40.84,4.17-84.66.77-172.31-.55-14.2-36.89-276.31-36.89-276.31h0c-11.05,97-23.76,179.45-34.78,243.36C511,2704.17,395.84,2828.46,389.84,2830.45c-1.19.48-12,4.4-20.82-1.42a14.36,14.36,0,0,1-5.27-5.93c-3.08-2.41.91-205,36-357.48,51-221.31,28.77-273.09,44.92-371.94C458.66,2008.14,735.8,2063.8,735.8,2063.8Z"/><path class="cls-61" d="M749.45,2097.23c-30.61,15.71-109.43,43.85-203.38,29.87a316.48,316.48,0,0,1-99.23-32.29c-.73-.37-1.47-.73-2.16-1.1,24.4-73.8,5.28-113.29-3.74-149.69-12.88-51.89-13.06-48-23.67-89.21-17.47-68-20.33-137.54-8.33-151.74,32.37-38.35,90.72-39.74,121-40.66,33.83-1,111.63-12.92,154.46,25.61.73.66-8,5.36-3.71,10.42a282,282,0,0,1,30.24,43.41c9,16.11,17.21,34.9,25.43,62.86a541.74,541.74,0,0,1,20.07,109.73c.44,6.06.85,11.93,1.21,17.58C763.32,2023,756.09,2066.85,749.45,2097.23Z"/><path class="cls-62" d="M680.51,2889.9s-26.72-2.3-28.79,3.22-2.3,19.58,14.05,16.81S682.59,2894,680.51,2889.9Z"/><path class="cls-63" d="M627.31,1619.16c9.22-18.41,3.15-38.28,1.79-42.57-5.67-18-7.5-20.62-11.16-24.25l-5.15-4.73-.64-.4c-3.49-2.06-16.2-4.92-18.9-4.86-8.62.17-23.93,32.18-30.62,80.32q-1,2.63-2.05,5.3c-4.21,11.11-7.73,22-10.66,32.57-57.68,9-65.25,16.33-65.24,20.28,0,8.31,33.76,15.57,58.88,17.47,54.78,4.15,109.51-14,108.55-24.14-.42-4.39-11.6-9.38-58-12.18l1.63-23C599.43,1637.83,620.52,1632.72,627.31,1619.16Z"/><path class="cls-64" d="M632.56,1537.38c-2.9,14.76-12.9,29.18-16.93,31a25,25,0,0,0-6.48,4.81,7.63,7.63,0,0,0-1.18,1.58c-5,8.68,7.65,22.49,4,26.1-2.65,2.62-11.93-3.36-13.63-1s5.77,8.94,3.93,11.63c-1.39,2-6.14-1-10,1.79-1.94,1.38-1.73,2.82-4.44,7.67a47.67,47.67,0,0,1-4.9,7.27c-6.78,7.68-21.84,8.06-24,4.05-.59-1.12.23-1.8.07-5.2a26.38,26.38,0,0,0-1.57-7c-2-5.54-8.56-10.49-14.83-17.14-11.61-12.31-13.68-21.3-14.24-24.31-.2-1.07-.3-1.87-.37-2.45-1.41-11.56,1.67-27.55,8.46-36.43,11.38-14.89,28.36-3.5,46.64-16.89,21.1-15.45,15.66-43.19,25.69-44.21C619.81,1477.56,637.92,1510.1,632.56,1537.38Z"/><path class="cls-65" d="M607.32,1596.41c-2.66-5.67-9.92-2.23-11.2,4.2s3.66,14.32,10,14.22S610.9,1604,607.32,1596.41Z"/><path class="cls-66" d="M455.47,2048h-.22a2,2,0,0,1-1.74-2.18c4-35.81-3.45-61.85-10-84.83-1.61-5.63-3.17-11.09-4.5-16.48-7.29-29.39-10.48-40.75-13.86-52.78-2.22-7.89-4.49-16-8-29.58a2,2,0,0,1,1.41-2.4,2,2,0,0,1,2.41,1.41c3.53,13.56,5.8,21.63,8,29.51,3.39,12.06,6.59,23.45,13.89,52.9,1.33,5.35,2.88,10.77,4.47,16.35,6.65,23.33,14.19,49.77,10.13,86.35A2,2,0,0,1,455.47,2048Z"/><path class="cls-67" d="M749.45,2097.23c-30.61,15.71-109.43,43.85-203.38,29.87a316.48,316.48,0,0,1-99.23-32.29c10.9-8.48,24.33-22.68,46.53-46.83,26.9-29.21,58.42-18.31,77-7.3a43.76,43.76,0,0,0,66-36.51,195.1,195.1,0,0,0-1-24.4c-6.35-66.46,85.72-72.11,85.72-72.11,13-6.75,25.32,4.15,36.55,24.37C763.32,2023,756.09,2066.85,749.45,2097.23Z"/><path class="cls-68" d="M1071.32,1801.18c-3.7.36-8.19,4.11-11.34,5.9-4.48,2.54-9,5-13.56,7.41-8.82,4.59-18.15,8-28.24,7.81a22.72,22.72,0,0,1,1.35-4.25c1.71-4,4-7.45,2.61-8.65-1.92-1.74-10.39,1.85-18.2,9.34a49.85,49.85,0,0,0-8.65,10.83c-4,6.79-3.31,10.51-6.65,15.69-5,4.44-8.68,5.42-8.68,5.42v1.42l.56,1.74a45.92,45.92,0,0,1-13.36,6.68c6.9,1.85,13.64,3.74,20.51,5.63l4.77,8s26-5.45,41.71-15c7.34-4.47,9.87-10,10.48-14.57a19.59,19.59,0,0,0-.41-7.34,18.76,18.76,0,0,0-.62-1.93s21.43-8.9,29.9-28.16C1074.81,1804.24,1074.93,1800.83,1071.32,1801.18Z"/><path class="cls-69" d="M980.53,1842.67c12.24,8.56,18.8,20.19,22.2,27.61-9,21.12-29.4,60.33-71.63,89.22-69.25,47.38-170.78,49-241.5-5.06-84.49-64.55-98.61-188.34-63.12-241.35,4.09-6.1,17.52-26.17,38.37-28.47,13.17-1.45,31.09,4,59.41,37.13,59,69.09,38.16,112.22,73,132.43C849.55,1884.5,927.23,1805.37,980.53,1842.67Z"/><path class="cls-70" d="M1858.33,517c-21.69-6.33-50.68,33.49-74.77,66.6-36.05,49.53-78.17,107.4-66.83,176.89,11.16,68.37,69.78,121.61,86.48,114,14.29-6.51-13.18-52.5,7.86-114,17-49.63,45.12-49.64,64-98.3C1898.47,601.84,1885,524.82,1858.33,517Z"/><path class="cls-71" d="M1847.6,831.93c-111.71,27.12-185.29,70.66-228.27,101.45-23.29,16.69-34,27.1-39.86,42.27-33.09,86.46,136.92,217.2,155,230.89l23.74-55.36c-17.57-96.43-46.82-126.68-71.29-135.67-6.85-2.52-18.34-5.22-18.12-8.45.53-7.66,65.1,3.26,126.81-19.32C1857.2,965.22,1919,908.25,1908,870.58,1906,863.7,1897.53,843.83,1847.6,831.93Z"/><path class="cls-72" d="M1739.28,1463.92s10.4,3.7,10.44,11.93-10.53,44.45-22,57.32-12.51-6.33-11.8-18.7,3.72-40.06,6.56-45.42S1739.28,1463.92,1739.28,1463.92Z"/><path class="cls-73" d="M1705.89,958.34c-20.3-.4-67.85-4.19-80.52,19.32-10.56,19.61,7.94,49.35,19.32,67.63,30.94,49.72,61,54.8,82.13,85.35,8.19,11.82,15.61,28.34,18,51.93l13.47-31.4c-17.57-96.42-46.82-126.68-71.29-135.67-6.85-2.52-18.34-5.22-18.12-8.45.53-7.66,65.1,3.26,126.81-19.32,56.09-20.53,112.24-69.64,113.4-106.7C1820.25,944.74,1753.39,959.27,1705.89,958.34Z"/><path class="cls-74" d="M1745.29,1429c-.61,12.67-1.69,23.27-2.66,31.14-2.15,17.41-4.12,24.3-6.82,30.57-2.36,5.47-8.25,17.39-11.06,16.56s.08-14.05,2.31-50.79c.32-5.33,1.31-22.31,1.31-22.31h0Z"/><path class="cls-75" d="M1912,839.18A502.21,502.21,0,0,0,1781.58,951.9c-28.68,35.17-72.3,88.68-88.09,168.46-8.42,42.52-4.28,80.67,4.35,155.22a1563.1,1563.1,0,0,0,30.46,175.5l14.85,6c13.26-24.36,30.6-62.91,36.82-112.22,10.17-80.67-20-106.3-5.52-163.51,12.55-49.56,48.9-79.94,121.62-140.72,59.74-49.93,114.83-79.56,135.27-141.84,3.47-10.58,6.42-23.55.76-35.43C2019.9,837.73,1973.23,828.8,1912,839.18Z"/><path class="cls-76" d="M1963.39,521.64c-16.71-3.59-44.18-2.88-70.37-23.51-7.89-6.21-35.82-28.21-32.43-59.68,3-27.71,29.25-42.6,32.47-44.37,18.59-10.23,37.13-8,57.68-5.15,26.65,3.64,35.51,10.93,54,15.92,45.82,12.35,61.32-13.43,107.45-11.25,59,2.78,64.07,46.33,113.68,47.41,55.69,1.22,66.37-53.29,121.35-62.52,76.32-12.82,191.8,69.35,189.48,164.06-1.34,54.71-42.08,117.4-94.11,136.22-30.33,11-63.05,7.49-72.4,27.21-6.65,14,8.3,24.85,6.88,49.3-1.82,31.53-29,53.65-33.34,57.22-40.69,33.17-131.91,16.41-194.21-30.52C2037.23,697.37,2054.23,541.18,1963.39,521.64Z"/><path class="cls-77" d="M2092.43,510.39a1195.37,1195.37,0,0,0-130-8.87c-102.47-1.39-117.14,11.6-120.89,21.22-7,17.93,5,26.92-1.82,58.18-4.07,18.69-.22,27.21-8.09,47.3-7.67,19.57-1.65,30.1,5.13,76,8.67,58.69,12.67,88.52-3.75,112.18-11.41,16.44-24.18,17.83-23,25.64,2.59,16.64,60.12,7.46,133,39.4,21.08,9.24,40.49,20.64,56.76,30.19,38.11,22.37,45.16,30.93,62.8,41.06,55.81,32.06,139.64,35.15,183.58-3.62,16.38-14.45,28.32-35.7,22.95-43.48-7.32-10.59-40,13.46-70-1.21-19.89-9.72-16.11-25.44-39.1-44-27.67-22.3-46.91-10.61-65.74-25.12-29.38-22.63-16-76.82-7.77-167.67A1517.47,1517.47,0,0,0,2092.43,510.39Z"/><path class="cls-78" d="M1981.53,489.29c14,8.67,36.57,20,39.06,23.08s-68.44,15.22-112.58-7.05c0,0-6.84-3.8,19.76-9.12,5.67-1.13,4.56-12.16,3.8-23.57l5.32-9.88S1967.56,480.61,1981.53,489.29Z"/><path class="cls-79" d="M1946.28,456s5.48,23.26-15,34.75c-18.34,10.29-49.37-31.9-43.57-47.58,1.93-5.23,8.84-12,16.06-14.21,5.08-1.59,24.28-1,32.51,15.2,2.16-4.73,6-7.21,8.61-6.43,3.29,1,3.77,7,3.88,8.33A16.76,16.76,0,0,1,1946.28,456Z"/><path class="cls-80" d="M1914.52,828.85c21.1,8.75,24,27.65,53.13,38.37,27.83,10.23,37.17-2.59,64.93,5.9,41.7,12.75,57.64,53,63.95,49.19,5.78-3.48.24-42-26.56-66.9-30.78-28.64-63.93-15.52-83.63-45.26-7.66-11.57-13.57-30-6.89-44.27,9.06-19.27,32.72-12.59,45.26-28.53,22.53-28.64-30.19-80.3-15.74-124,5.77-17.43,24.12-39.27,83.33-53.89-.8,43.77-3.33,80.35-5.85,108.12-8.25,90.85-21.61,145,7.77,167.67,18.83,14.51,38.07,2.83,65.74,25.12,23,18.53,19.21,34.25,39.1,44,30,14.67,62.73-9.38,70,1.21,5.37,7.78-6.57,29-22.95,43.48-43.94,38.77-127.77,35.68-183.58,3.62-17.65-10.14-24.7-18.69-62.8-41.06-16.27-9.56-35.68-20.95-56.76-30.19-51.11-22.41-94.65-24.58-117-29.63C1870.37,822.24,1897.39,821.75,1914.52,828.85Z"/><path class="cls-81" d="M1710.85,858.54l267.71,13a11.24,11.24,0,0,1,9,5.28l7.41,11.89a8.7,8.7,0,0,1-7.71,13.29l-283.57-10.8Z"/><path class="cls-82" d="M1465.09,710.64,1741.66,716a23.2,23.2,0,0,1,19.72,11.73l95.78,168.51-292.1-11.64a23.77,23.77,0,0,1-19.45-11.55l-88.74-148.24A9.36,9.36,0,0,1,1465.09,710.64Z"/><path class="cls-83" d="M1761.38,727.73A23.2,23.2,0,0,0,1741.66,716l-6.06-.12c-.9,8.93-3.64,17.09-9.11,23.69-17.05,20.58-45.39,7.89-66.51,29.67-23.2,23.93-1.77,52.42-22.51,74.69-21.83,23.44-57.13,4.36-97.72,19.36l5.84,9.76a23.77,23.77,0,0,0,19.45,11.55l292.1,11.64Z"/><path class="cls-84" d="M1934.7,858.68l-9.05-23.9c33.34-9.14,79.45-22.65,126.75-39.55,11.69-4.18,16-9.57,19.09-13.72,24.25-32.16-37.46-88.89-36.36-162.51.77-51,31.7-109.4,59-110.07,55.41-1.35,177.59,233.78,74.69,334.13C2117.71,892.87,2022.29,898.65,1934.7,858.68Z"/><path class="cls-85" d="M1925.65,834.78c-20.93-11.12-46,.28-47.6,1A62.56,62.56,0,0,0,1860,848.77c-.77,1-9.84,13.62-6.54,17.66,2.65,3.23,12.92.55,25.26-7.12a95.8,95.8,0,0,1,22.1-.54c16.94,1.56,24.7,6.91,30.85,2.3,4.5-3.38,6-10.53,4.42-15.85C1934.35,839.5,1929.2,836.66,1925.65,834.78Z"/><path class="cls-86" d="M1068.64,2845.1c-16.4-81-9.34-146.17-1.89-185.5,9-47.71,27.41-144.71,104.52-198.77,6.08-4.26,66.4-45.75,93.49-25.14,14,10.63,17.16,36.29,11.05,56.55-15.77,52.3-86.89,46.5-110.52,106-7.87,19.82-9.33,44-3.84,46.29,6.76,2.81,26-26.77,27.86-29.59,17.18-26.37,17.34-41.3,30.44-45.34,8-2.49,18.64-.15,23.38,6.2,10.8,14.46-10.53,47.42-16.49,56.63-15.6,24.1-28.62,29.58-31.79,50.09-1.36,8.83-1.12,21.89,4.12,23.93,7.09,2.75,20.61-15.7,29.29-27.55,23.33-31.84,25.82-50.34,37.42-51.67,10.82-1.24,23,13.23,26.15,22C1300.37,2673.34,1266,2724.54,1068.64,2845.1Z"/><path class="cls-87" d="M1071.11,2831.2c-2.45-75.31,9.74-135,20.78-174.18,14.19-50.36,40.89-145.07,115.79-186.06,5.32-2.91,44.48-24.34,55.42-12.87,7.29,7.65.83,28.65-9.9,42.56-18.3,23.73-39.39,14.32-69.28,37.61-26.82,20.9-36.24,49-38.6,56.41-8.75,27.32-4.2,50.75-3,59.38C1147,2686.83,1137.46,2740.53,1071.11,2831.2Z"/><path class="cls-87" d="M1097.83,2812.39c42-37.62,51.71-68.44,52.45-90.06.58-16.85-4-36.85,8.91-55.42,8.24-11.88,14.46-10,28.7-22.76,29.76-26.73,33.45-62.75,39.59-61.36,3.41.77,5.19,12.59,3,23.75-4.57,23-22.59,25.45-40.58,53.44-12.29,19.13-16.56,37.72-18.8,47.5-5.48,23.87-1.76,32.25-4.95,45.52C1162,2770.22,1147,2792.42,1097.83,2812.39Z"/><path class="cls-88" d="M1093.87,2858.19c72.81,4.17,94.45,8.54,128.76-3.16,32.24-11,65.31-32.62,62.4-42.55-2.08-7.12-22.32-7-34.41-7-32.44.15-59.2,10.09-78,19.69l48.57-33a120.06,120.06,0,0,0,47.38-30.76c10.61-11.35,35-42.1,25.82-56.88-9.57-15.43-55-12.32-81.25,9.57-12.58,10.5-12.59,18.54-29.45,36.88a177.05,177.05,0,0,1-42.25,33.63,241.4,241.4,0,0,0,35.58-60.75c16.73-41.64,29.36-107.5,8.08-119.48-14.11-7.94-42.1,8.42-56.09,27.82-11.35,15.73-10.24,28.92-18,79.45-3.39,22-6.72,39.66-8.89,50.64-21.65-47.5-27.93-87.46-29.2-116.83-1.63-37.74,4.62-67.31-9.82-75.17-12.87-7-35.84,6.67-47.49,19.5-47.16,51.95,15.06,173.86,21.64,186.45A346.51,346.51,0,0,1,973,2713.06c-24.7-31.69-35.13-55.28-47.68-53.17s-20.72,28.69-19.78,49.26c2.61,57.36,77.52,91,85.52,94.51a85.48,85.48,0,0,1-29.58-.32c-27.93-5.33-36.64-22.26-65-28-10.84-2.2-33-4.48-35.73,2.23-4.9,12,51.07,57.28,119,74.52C1004.64,2858.42,998.68,2852.74,1093.87,2858.19Z"/><path class="cls-87" d="M1141.93,2816.7c33.15-14.74,28.64-34.77,64.91-59.59,23.22-15.89,28.62-10.1,53.5-25.29a168.89,168.89,0,0,0,34-27.41l.14.19c9.16,14.78-15.22,45.53-25.82,56.88a120.06,120.06,0,0,1-47.38,30.76l-48.57,33c18.77-9.6,45.53-19.54,78-19.69,10.54,0,27.27-.13,32.77,4.57a77.75,77.75,0,0,1-25.64,10.4c-16.26,3.32-26.47-.39-40.54,8.09-11.29,6.8-10.35,12.58-20.28,16.27-9.35,3.47-14.13-.19-37.21-4-22.45-3.69-33.86-5.41-42.93.29-6.86,4.31-10.5,11.41-12.51,17.66l-7.15-.43a55.21,55.21,0,0,1,11.43-22.74C1118.57,2824,1129.52,2822.21,1141.93,2816.7Z"/><path class="cls-87" d="M1047.47,2842.17c-5.24-1.25-7.74,2.49-15,3.44-13.52,1.76-18.58-9.4-34.47-14.7-18.81-6.27-23.58,5.39-42.31-.41-14.83-4.59-12.92-12.24-32.29-23.4-20.61-11.88-29.34-7-44.49-16.81a58.74,58.74,0,0,1-15.72-15.14c6.66-3.61,24.09-1.69,33.32.19,28.34,5.75,37,22.68,65,28a85.48,85.48,0,0,0,29.58.32c-8-3.47-82.9-37.16-85.52-94.51-.87-19.08,6.15-43.33,17.14-48.42a276.81,276.81,0,0,0-1.29,33.48c.47,20.73.84,31.27,7.39,39.91,11.38,15,25.24,7.18,44.15,22.77,17.21,14.2,11.22,25.21,29.17,39.42,15.5,12.27,24.68,7.8,39.26,17.75,9.15,6.24,20.26,18.06,26.93,42.79l-8.72-.37C1056.94,2849.48,1053.11,2843.52,1047.47,2842.17Z"/><path class="cls-87" d="M1063.82,2764c-9.07-24.71-24.82-22.17-31.39-43.93s7.76-28.36,4.12-59.68c-2.73-23.47-11.59-26.92-12.18-43-.43-11.82,3.73-27.94,23-47.91,5.84-1.54,11.36-1.54,15.72.83,14.43,7.87,8.19,37.44,9.82,75.17,1.27,29.37,7.55,69.33,29.2,116.83,2.16-11,5.49-28.67,8.89-50.64,7.81-50.53,6.7-63.72,18-79.45,14-19.4,42-35.76,56.09-27.82a14.45,14.45,0,0,1,2.27,1.6,79.52,79.52,0,0,0-19,18c-18.61,24.8-8,42.57-24.9,91.5-16.23,47.06-32.69,50-45.76,90.62a191.17,191.17,0,0,0-8.91,51.76c-4.77-.26-9.26-.5-13.51-.71a200.46,200.46,0,0,1-8.18-42.5C1065,2787.93,1069.95,2780.69,1063.82,2764Z"/><path class="cls-89" d="M1245.65,121.15c105,3.22,193.16,67.32,210.34,148.46l.07.32q1.39,6.66,2.14,13.47c0,.3.07.6.1.9q.33,3.18.51,6.39c0,.39,0,.78.06,1.17.1,2.19.17,4.38.17,6.58,0,94.29-96.24,165.75-213.38,159.68-3.12-.16-6.21-.39-9.29-.65l-.91-.07c-2.92-.26-5.81-.58-8.7-.93l-1.35-.17q-4.18-.54-8.32-1.21l-1.56-.25q-4.06-.68-8.06-1.47l-1.62-.33q-4-.82-7.91-1.75l-1.52-.37c-2.6-.64-5.18-1.3-7.74-2l-1.37-.39q-3.46-1-6.86-2.05l-1.73-.54c-2.3-.74-4.58-1.52-6.84-2.32l-1.48-.5,0,0c-77.87-28.09-132.62-91.31-132.62-162C1037.81,189.22,1130.2,117.61,1245.65,121.15Z"/><path class="cls-90" d="M1015.59,281.07c0,91.84,92.38,171.07,207.84,177.05,117.15,6.06,213.38-65.39,213.38-159.68s-96.24-173.68-213.38-177.28C1108,117.61,1015.59,189.22,1015.59,281.07Z"/><g class="cls-44"><path class="cls-91" d="M1172.46,412.7c25.28-48.43-.28-96,33.92-126.62,34.89-31.27,80.47,1,129.8-23.77,19.16-9.62,40.51-28.66,56.42-69,27.7,29.66,44.21,66.17,44.21,105.12,0,94.29-96.24,165.75-213.38,159.68a262,262,0,0,1-75.23-15A103.3,103.3,0,0,0,1172.46,412.7Z"/></g><path class="cls-5" d="M1117.78,244q-13.52,0-20.9,10.46t-7.37,29.27q0,39.1,28.26,39.56,11.93.2,29-5.74v21a77.25,77.25,0,0,1-31.24,5.43q-24.6-.49-37.5-16.19t-12.88-44.46q0-18.16,6.32-31.78a47,47,0,0,1,18.23-20.94q11.94-7.31,28.07-7.32,16.51,0,33.3,8.32l-7.81,20.32a127.22,127.22,0,0,0-12.85-5.53A37,37,0,0,0,1117.78,244Z"/><path class="cls-5" d="M1248.15,311.62q0,16.25-11.48,25.39t-31.73,8.7q-18.59-.37-32.79-7.79V314.59a134.66,134.66,0,0,0,19.8,7.86,58,58,0,0,0,14.9,2.44q8.13.13,12.49-3t4.36-9.41a10.74,10.74,0,0,0-1.92-6.28,22.09,22.09,0,0,0-5.64-5.34,145.85,145.85,0,0,0-15.11-8.25q-10.64-5.25-15.94-10a37.15,37.15,0,0,1-8.45-11,32.1,32.1,0,0,1-3.15-14.62q0-15.73,10.38-24.71t28.88-9a67.41,67.41,0,0,1,17.41,2.21,119,119,0,0,1,17.42,6.24l-8.06,19.74a116.58,116.58,0,0,0-15.54-5.55,48.94,48.94,0,0,0-12-1.59q-7,0-10.75,3.3a12,12,0,0,0-2.23,14.52,17,17,0,0,0,4.81,4.84q3.3,2.35,15.68,8.48,16.43,8.16,22.56,16.3T1248.15,311.62Z"/><path class="cls-5" d="M1349.11,313.07q0,16.51-11.86,25.8t-32.77,8.84q-19.2-.38-33.85-7.92V316.06a140.48,140.48,0,0,0,20.44,8,60.8,60.8,0,0,0,15.39,2.49q8.4.14,12.9-3t4.51-9.56a10.8,10.8,0,0,0-2-6.38,22.71,22.71,0,0,0-5.82-5.43q-3.84-2.62-15.6-8.39-11-5.33-16.46-10.17a37.84,37.84,0,0,1-8.73-11.21,32.19,32.19,0,0,1-3.26-14.85q0-16,10.72-25.11t29.82-9.16a70.69,70.69,0,0,1,18,2.25,124.35,124.35,0,0,1,18,6.34l-8.33,20.06a121.74,121.74,0,0,0-16.05-5.64,51.32,51.32,0,0,0-12.43-1.62q-7.25,0-11.1,3.35a12,12,0,0,0-2.3,14.76,17.38,17.38,0,0,0,5,4.92q3.41,2.38,16.19,8.62,17,8.29,23.3,16.57T1349.11,313.07Z"/><path class="cls-92" d="M786.27,393.15c116.82,3.59,214.93,74.91,234,165.19l.07.36q1.55,7.41,2.38,15c0,.33.08.67.11,1q.36,3.54.56,7.11c0,.43,0,.86.06,1.3.12,2.43.19,4.87.19,7.32,0,104.92-107.08,184.42-237.43,177.68-3.47-.18-6.91-.43-10.34-.73l-1-.08c-3.25-.29-6.47-.65-9.68-1l-1.5-.18q-4.66-.6-9.25-1.34l-1.73-.28q-4.51-.75-9-1.64l-1.8-.37q-4.43-.91-8.8-1.94l-1.69-.42c-2.89-.71-5.77-1.45-8.61-2.24l-1.53-.44q-3.85-1.09-7.63-2.28l-1.92-.6c-2.56-.82-5.09-1.69-7.61-2.59-.54-.19-1.1-.36-1.64-.56l0,0C615.93,720.09,555,649.74,555,571.08,555,468.89,657.8,389.2,786.27,393.15Z"/><path class="cls-93" d="M530.28,571.08c0,102.19,102.79,190.35,231.26,197C891.89,774.83,999,695.32,999,590.4S891.89,397.15,761.54,393.15C633.07,389.2,530.28,468.89,530.28,571.08Z"/><g class="cls-44"><path class="cls-94" d="M704.83,717.55c28.13-53.89-.31-106.79,37.75-140.89,38.83-34.79,89.53,1.11,144.43-26.45,21.31-10.7,45.07-31.88,62.77-76.77,30.82,33,49.19,73.62,49.19,117,0,104.92-107.08,184.43-237.43,177.68a291.57,291.57,0,0,1-83.71-16.72A114.93,114.93,0,0,0,704.83,717.55Z"/></g><path class="cls-5" d="M683.9,634.09l-93.57-45.52V574.49L683.9,526v24.09l-64.83,30.84L683.9,610.1Z"/><path class="cls-5" d="M784.48,507.73,730.57,655.84l-27-.8,53.33-147.32Z"/><path class="cls-5" d="M804.6,612.59l69.88-27.84L804.6,551.11V526.44l102.09,52.4v15L804.6,637.17Z"/><path class="cls-95" d="M1206.79,750.21c105,3.22,193.16,67.32,210.34,148.46l.07.32q1.39,6.66,2.14,13.47c0,.3.07.6.1.9q.33,3.18.51,6.39c0,.39,0,.78.06,1.17.1,2.18.17,4.38.17,6.58,0,94.29-96.24,165.75-213.38,159.68-3.12-.16-6.21-.39-9.29-.65l-.91-.07c-2.92-.26-5.81-.58-8.7-.93l-1.35-.17q-4.18-.54-8.32-1.21l-1.56-.25q-4.06-.68-8.06-1.47l-1.62-.33q-4-.82-7.91-1.75l-1.51-.37c-2.6-.64-5.18-1.3-7.74-2l-1.37-.39q-3.46-1-6.86-2.05l-1.73-.54c-2.3-.74-4.58-1.52-6.84-2.32l-1.48-.5,0,0C1053.7,1044,999,980.82,999,910.12,999,818.28,1091.33,746.67,1206.79,750.21Z"/><path class="cls-96" d="M976.72,910.12c0,91.84,92.38,171.07,207.84,177.05,117.15,6.06,213.38-65.39,213.38-159.68s-96.24-173.68-213.38-177.28C1069.11,746.67,976.72,818.28,976.72,910.12Z"/><g class="cls-44"><path class="cls-97" d="M1133.6,1041.76c25.28-48.43-.28-96,33.92-126.62,34.89-31.27,80.47,1,129.8-23.77,19.16-9.62,40.51-28.66,56.42-69,27.7,29.66,44.21,66.17,44.21,105.12,0,94.29-96.24,165.75-213.38,159.68a262,262,0,0,1-75.23-15A103.29,103.29,0,0,0,1133.6,1041.76Z"/></g><path class="cls-5" d="M1084.21,879.08q-12.37.11-19,10.84t-6.63,29.62c0,26.33,8.46,39.86,25.65,40.6q11,.47,27-5.27v21.72a64.53,64.53,0,0,1-29,4.62c-14.93-.84-26.15-6.68-33.83-17.44s-11.38-25.54-11.38-44.76q0-18.16,5.57-31.84t16.22-21.31q10.74-7.62,25.48-8,15.23-.35,31,7.92L1107.87,887a111.77,111.77,0,0,0-12-5.58A31,31,0,0,0,1084.21,879.08Z"/><path class="cls-5" d="M1164.73,931.3l-29.86-.69V912l29.86.35V878.7l17.39-.15v34l31.66.37v19.48l-31.66-.74v33.61l-17.39-.76Z"/><path class="cls-5" d="M1271.14,933.77l-33.82-.79V913.23l33.82.4V877.75l19.74-.17v36.28l36,.42v20.79l-36-.84V970l-19.74-.86Z"/><path class="cls-98" d="M713.39,1501.18c-20.44-25.6-32.22-55.66-32.22-87.82,0-93.5,99.55-169.3,222.36-169.3s222.36,75.8,222.36,169.3-99.55,169.3-222.36,169.3c-46,0-88.79-10.65-124.26-28.88-23.45,4-59.85,10.72-79.06,14.3a7.39,7.39,0,0,1-8.26-9.86Z"/><g class="cls-99"><path class="cls-100" d="M781.85,1449.19c49.86-21,104.69,23.28,139-7.58,34.55-31.11-2.77-92.61,30.32-136.44,15.78-20.9,42.29-30.79,72.62-34.24,61.44,30.12,102.13,82.66,102.13,142.44,0,93.5-99.55,169.3-222.36,169.3-46,0-88.79-10.65-124.26-28.88-18.5,3.16-45.06,8-64.88,11.67C729,1489.64,755.9,1460.1,781.85,1449.19Z"/></g><rect class="cls-5" x="755.54" y="1350.62" width="292.12" height="17.81" rx="8.26" ry="8.26"/><rect class="cls-5" x="755.54" y="1400.49" width="292.12" height="17.81" rx="8.26" ry="8.26"/><rect class="cls-5" x="755.54" y="1450.36" width="153.19" height="17.81" rx="8.5" ry="8.5"/></g></g></g></svg>