<svg xmlns="http://www.w3.org/2000/svg" xmlns:xlink="http://www.w3.org/1999/xlink" viewBox="0 0 2964.74 2866.08"><defs><style>.cls-1{fill:url(#linear-gradient);}.cls-2{fill:url(#linear-gradient-2);}.cls-3{isolation:isolate;}.cls-4{fill:#e7eefc;}.cls-5{fill:#d8dee8;}.cls-6{clip-path:url(#clip-path);}.cls-15,.cls-20,.cls-22,.cls-7{mix-blend-mode:soft-light;}.cls-15,.cls-20,.cls-8{fill:#fff;}.cls-9{clip-path:url(#clip-path-2);}.cls-10{fill:url(#linear-gradient-5);}.cls-11{fill:url(#linear-gradient-6);}.cls-12{fill:url(#linear-gradient-7);}.cls-13{fill:url(#linear-gradient-8);}.cls-14{fill:url(#linear-gradient-9);}.cls-15{opacity:0.48;}.cls-16{fill:url(#linear-gradient-10);}.cls-17,.cls-39{opacity:0.3;}.cls-17,.cls-30,.cls-36,.cls-39{mix-blend-mode:multiply;}.cls-17{fill:url(#linear-gradient-11);}.cls-18{opacity:0.75;}.cls-19{fill:url(#linear-gradient-12);}.cls-20{opacity:0.74;}.cls-21{fill:url(#linear-gradient-13);}.cls-22{opacity:0.5;}.cls-23{fill:url(#linear-gradient-14);}.cls-24{fill:url(#linear-gradient-15);}.cls-25{fill:url(#linear-gradient-16);}.cls-26{fill:#26264f;}.cls-27{fill:url(#linear-gradient-17);}.cls-28{fill:url(#linear-gradient-18);}.cls-29{fill:url(#linear-gradient-19);}.cls-30,.cls-36{opacity:0.25;}.cls-30{fill:url(#linear-gradient-20);}.cls-31{fill:#444b8c;}.cls-32{fill:url(#linear-gradient-21);}.cls-33{fill:url(#linear-gradient-22);}.cls-34{fill:url(#linear-gradient-23);}.cls-35{fill:url(#linear-gradient-24);}.cls-36{fill:url(#linear-gradient-25);}.cls-37{fill:url(#linear-gradient-26);}.cls-38{fill:url(#linear-gradient-27);}.cls-40{fill:url(#linear-gradient-28);}.cls-41{fill:url(#linear-gradient-29);}.cls-42{fill:url(#linear-gradient-30);}.cls-43{fill:url(#linear-gradient-31);}.cls-44{fill:url(#linear-gradient-32);}.cls-45{fill:url(#linear-gradient-33);}.cls-46{fill:url(#linear-gradient-34);}</style><linearGradient id="linear-gradient" x1="483.45" y1="123.48" x2="958.18" y2="1633.98" gradientUnits="userSpaceOnUse"><stop offset="0" stop-color="#ff9085"/><stop offset="1" stop-color="#fb6fbb"/></linearGradient><linearGradient id="linear-gradient-2" x1="1352.72" y1="4471.33" x2="1248.2" y2="4010.23" xlink:href="#linear-gradient"/><clipPath id="clip-path"><path class="cls-1" d="M1094.25,1782.76c36.6-111.55,73.86-281.84,30.25-470.9-50.08-217.09-161-260.53-260.63-492.59C721.67,488,882.59,248.07,735.4,146.83c-71.78-49.37-184.66-49.41-254.25.16C282.59,288.4,337,904.4,652,1144.78c142.48,108.72,266.8,95.82,373.72,236.5C1120.24,1505.58,1112.83,1669.58,1094.25,1782.76Z"/></clipPath><clipPath id="clip-path-2"><path class="cls-2" d="M1158,1648.23c11.61-70.23,18.28-179.9-38.88-278-99.72-171.11-281.5-114.35-455.48-297.68-140.33-147.86-96.11-262.78-251.6-361-26-16.45-163.55-107-265.82-52.44-57.63,30.72-78.51,93.79-82.43,105.63-59.24,178.94,123,459.08,360.58,587.22,136.49,73.62,180.52,49.56,420.71,135.42A1351.45,1351.45,0,0,1,1158,1648.23Z"/></clipPath><linearGradient id="linear-gradient-5" x1="-2993.46" y1="1247" x2="-4020.81" y2="2090.89" gradientTransform="matrix(-0.95, 0.33, 0.33, 0.95, -2944.36, 1116.76)" xlink:href="#linear-gradient"/><linearGradient id="linear-gradient-6" x1="1335.72" y1="2674.05" x2="1137.59" y2="2757.27" gradientUnits="userSpaceOnUse"><stop offset="0" stop-color="#40447e"/><stop offset="1" stop-color="#3c3b6b"/></linearGradient><linearGradient id="linear-gradient-7" x1="1013.35" y1="1793.24" x2="807.92" y2="1879.52" xlink:href="#linear-gradient-6"/><linearGradient id="linear-gradient-8" x1="144.54" y1="1842.98" x2="2016.61" y2="1842.98" xlink:href="#linear-gradient-6"/><linearGradient id="linear-gradient-9" x1="264.79" y1="2446.5" x2="2165.16" y2="899" gradientUnits="userSpaceOnUse"><stop offset="0" stop-color="#aa80f9"/><stop offset="1" stop-color="#6165d7"/></linearGradient><linearGradient id="linear-gradient-10" x1="144.54" y1="2586.57" x2="2964.74" y2="2586.57" xlink:href="#linear-gradient-6"/><linearGradient id="linear-gradient-11" x1="421.11" y1="2563.25" x2="2487.45" y2="2563.25" xlink:href="#linear-gradient-6"/><linearGradient id="linear-gradient-12" x1="1937.87" y1="42.37" x2="265.59" y2="3386.93" gradientUnits="userSpaceOnUse"><stop offset="0" stop-color="#e38ddd"/><stop offset="1" stop-color="#9571f6"/></linearGradient><linearGradient id="linear-gradient-13" x1="1214.6" y1="-62.08" x2="1505.17" y2="1100.18" xlink:href="#linear-gradient-12"/><linearGradient id="linear-gradient-14" x1="1461.95" y1="1063.48" x2="1419.67" y2="1131.88" gradientUnits="userSpaceOnUse"><stop offset="0" stop-color="#ffc444"/><stop offset="1" stop-color="#f36f56"/></linearGradient><linearGradient id="linear-gradient-15" x1="2064.21" y1="1873.02" x2="2081.28" y2="1908.13" xlink:href="#linear-gradient-14"/><linearGradient id="linear-gradient-16" x1="771.18" y1="2767.12" x2="771.18" y2="2656.97" gradientTransform="translate(1249.56)" xlink:href="#linear-gradient-14"/><linearGradient id="linear-gradient-17" x1="435.45" y1="2798.51" x2="435.45" y2="2665.76" gradientTransform="translate(1249.56)" xlink:href="#linear-gradient-14"/><linearGradient id="linear-gradient-18" x1="361.19" y1="2277.06" x2="795.48" y2="2277.06" gradientTransform="translate(1249.56)" gradientUnits="userSpaceOnUse"><stop offset="0" stop-color="#311944"/><stop offset="1" stop-color="#893976"/></linearGradient><linearGradient id="linear-gradient-19" x1="347.38" y1="1953.32" x2="660.27" y2="2478.85" xlink:href="#linear-gradient-18"/><linearGradient id="linear-gradient-20" x1="470.56" y1="1879.99" x2="783.44" y2="2405.51" xlink:href="#linear-gradient-18"/><linearGradient id="linear-gradient-21" x1="551" y1="1302.49" x2="615.13" y2="1404.43" gradientTransform="translate(1249.56)" xlink:href="#linear-gradient-12"/><linearGradient id="linear-gradient-22" x1="628.42" y1="1286.85" x2="557.94" y2="1400.87" gradientTransform="translate(1249.56)" xlink:href="#linear-gradient-14"/><linearGradient id="linear-gradient-23" x1="36.5" y1="763.42" x2="-31.7" y2="873.75" gradientTransform="translate(1637.02 538.22) rotate(-13.66)" xlink:href="#linear-gradient-14"/><linearGradient id="linear-gradient-24" x1="1832.09" y1="799.86" x2="2422.79" y2="1738.74" gradientUnits="userSpaceOnUse"><stop offset="0" stop-color="#444b8c"/><stop offset="1" stop-color="#26264f"/></linearGradient><linearGradient id="linear-gradient-25" x1="1605.94" y1="1412.41" x2="1941.53" y2="2102.5" xlink:href="#linear-gradient"/><linearGradient id="linear-gradient-26" x1="2107.76" y1="544.86" x2="2422.82" y2="1177.11" xlink:href="#linear-gradient-14"/><linearGradient id="linear-gradient-27" x1="2206.48" y1="797.86" x2="2511.01" y2="1362.67" xlink:href="#linear-gradient-14"/><linearGradient id="linear-gradient-28" x1="2117.66" y1="837.01" x2="2410.53" y2="1424.73" xlink:href="#linear-gradient-14"/><linearGradient id="linear-gradient-29" x1="2335.83" y1="42.41" x2="2678.89" y2="730.85" xlink:href="#linear-gradient-14"/><linearGradient id="linear-gradient-30" x1="2439.82" y1="326.44" x2="2773.05" y2="944.47" xlink:href="#linear-gradient-14"/><linearGradient id="linear-gradient-31" x1="2346.29" y1="362.29" x2="2671.11" y2="1014.12" xlink:href="#linear-gradient-14"/><linearGradient id="linear-gradient-32" x1="1807.17" y1="-361.96" x2="2109.15" y2="244.05" xlink:href="#linear-gradient-14"/><linearGradient id="linear-gradient-33" x1="1984.76" y1="36.09" x2="2278.08" y2="580.11" xlink:href="#linear-gradient-14"/><linearGradient id="linear-gradient-34" x1="1904.2" y1="72.24" x2="2189.16" y2="644.07" xlink:href="#linear-gradient-14"/></defs><title>03</title><g class="cls-3"><g id="Layer_2" data-name="Layer 2"><g id="Illustration"><path class="cls-4" d="M1991.63,159C1790.29,116.13,1581,95.6,1376.3,108.69c-181.4,11.6-387,43.25-533,156.65-69.57,54-152.53,151.14-175.28,236.8,0,0-119.78,450.9-359.33,547.51S-97.22,2795.26,1719.37,2634.22c0,0,1067-42.2,1131.21-1257.65,15.52-293.62,6.85-616.4-179.07-861.91C2529,326.52,2329.44,242.87,2100.06,184.34Q2046.31,170.62,1991.63,159Z"/><path class="cls-5" d="M1903.27,1160l12.15,62.22a493,493,0,0,0-77.26,38.6l-41.5-47.66a31.13,31.13,0,0,0-44.12-2.72l-81.68,72a31.74,31.74,0,0,0-3.21,44.5l41.87,48.32a508.37,508.37,0,0,0-48,72.18l-60.63-20.62a31.65,31.65,0,0,0-39.94,19.94l-35.78,103.83c-5.73,16.63,2.89,34.66,19.28,40.26l60.84,20.79a505.54,505.54,0,0,0-6.09,86.89l-63.65,13a32.37,32.37,0,0,0-25.1,37.64l20.22,108.46a31.21,31.21,0,0,0,36.9,25.15l63.84-13a500.56,500.56,0,0,0,37.39,78.77l-49.09,43.63a32.75,32.75,0,0,0-3.28,45.54l71.6,83.89a31.26,31.26,0,0,0,44.78,2.94l49.08-43.76a498.09,498.09,0,0,0,71.9,49.23l-21.12,62.78c-5.72,17,3.11,35.45,19.73,41.21l104.06,36.06c16.66,5.78,34.78-3.36,40.46-20.4l20.79-62.29a487.76,487.76,0,0,0,87.29,5.8l12.59,64.48c3.45,17.65,20.25,29.11,37.54,25.59l108.1-22c17.29-3.53,28.46-20.69,25-38.34l-12.67-63.93a492.55,492.55,0,0,0,78.9-39.36l42.11,48.6a31.52,31.52,0,0,0,45.06,3l82.39-74.08a32.79,32.79,0,0,0,2.62-45.77l-42-48.2a508.46,508.46,0,0,0,48.55-74.37l59.76,20.42a31.52,31.52,0,0,0,40.21-20.27l34.34-105.49a32.47,32.47,0,0,0-20.26-40.74L2588,1762.5a505.78,505.78,0,0,0,4.88-88.82l61.05-12.45a31.74,31.74,0,0,0,24.54-37.68l-22.37-108a31.84,31.84,0,0,0-37.4-24.89L2557.82,1503a500.48,500.48,0,0,0-39.22-79l46.23-41.22a31.76,31.76,0,0,0,2.56-44.71l-72.3-81.79a31.39,31.39,0,0,0-44.4-2.74l-46.53,41.36a497.85,497.85,0,0,0-72.65-48.12l19.76-59.22a31.47,31.47,0,0,0-19.79-39.81l-102.62-34.4a31.39,31.39,0,0,0-39.69,19.81l-20,59.35a487.56,487.56,0,0,0-86.3-4.92l-12.23-61.69a31.11,31.11,0,0,0-36.77-24.47l-106,21.61A31.64,31.64,0,0,0,1903.27,1160Zm-120.91,589.91c-33.35-174.46,79.1-343.54,251-378.6s339.62,76.89,374.86,251c35.44,175.13-76.53,346.62-250.3,382.05S1815.91,1925.46,1782.36,1749.94Z"/><path class="cls-5" d="M2453.8,881.57l3.57,18.3a145,145,0,0,0-22.72,11.35l-12.21-14a9.15,9.15,0,0,0-13-.8l-24,21.17a9.33,9.33,0,0,0-.94,13.09l12.31,14.21a149.5,149.5,0,0,0-14.12,21.23L2364.86,960a9.31,9.31,0,0,0-11.75,5.86l-10.52,30.54a9.27,9.27,0,0,0,5.67,11.84l17.89,6.11a148.67,148.67,0,0,0-1.79,25.55l-18.72,3.82a9.52,9.52,0,0,0-7.38,11.07l5.95,31.9a9.18,9.18,0,0,0,10.85,7.4l18.77-3.83a147.24,147.24,0,0,0,11,23.17l-14.44,12.83a9.63,9.63,0,0,0-1,13.39l21.06,24.67a9.19,9.19,0,0,0,13.17.87l14.44-12.87a146.46,146.46,0,0,0,21.14,14.48l-6.21,18.46a9.56,9.56,0,0,0,5.8,12.12l30.6,10.61a9.35,9.35,0,0,0,11.9-6l6.11-18.32a143.45,143.45,0,0,0,25.67,1.71l3.7,19a9.39,9.39,0,0,0,11,7.53l31.79-6.48a9.55,9.55,0,0,0,7.34-11.27l-3.73-18.8a144.86,144.86,0,0,0,23.2-11.57l12.38,14.29a9.27,9.27,0,0,0,13.25.87l24.23-21.79a9.64,9.64,0,0,0,.77-13.46l-12.34-14.17a149.55,149.55,0,0,0,14.28-21.87l17.57,6a9.27,9.27,0,0,0,11.82-6l10.1-31a9.55,9.55,0,0,0-6-12l-17.41-5.92a148.75,148.75,0,0,0,1.44-26.12l18-3.66a9.33,9.33,0,0,0,7.22-11.08l-6.58-31.77a9.36,9.36,0,0,0-11-7.32l-17.9,3.65a147.19,147.19,0,0,0-11.54-23.25l13.6-12.12a9.34,9.34,0,0,0,.75-13.15l-21.26-24.05a9.23,9.23,0,0,0-13.06-.81l-13.68,12.16a146.42,146.42,0,0,0-21.36-14.15l5.81-17.41a9.25,9.25,0,0,0-5.82-11.71l-30.18-10.12a9.23,9.23,0,0,0-11.67,5.83L2532,891.12a143.38,143.38,0,0,0-25.38-1.45l-3.6-18.14a9.15,9.15,0,0,0-10.81-7.2l-31.16,6.35A9.3,9.3,0,0,0,2453.8,881.57Zm-35.56,173.49c-9.81-51.31,23.26-101,73.81-111.34s99.88,22.61,110.24,73.81c10.42,51.5-22.51,101.94-73.61,112.36S2428.1,1106.67,2418.24,1055.05Z"/><path class="cls-1" d="M1094.25,1782.76c36.6-111.55,73.86-281.84,30.25-470.9-50.08-217.09-161-260.53-260.63-492.59C721.67,488,882.59,248.07,735.4,146.83c-71.78-49.37-184.66-49.41-254.25.16C282.59,288.4,337,904.4,652,1144.78c142.48,108.72,266.8,95.82,373.72,236.5C1120.24,1505.58,1112.83,1669.58,1094.25,1782.76Z"/><g class="cls-6"><g class="cls-7"><path class="cls-8" d="M1116.63,1502.09a847,847,0,0,0-47.7-137c-45.31-101.13-95.32-156.76-158.63-227.19-41.32-46-88.15-98.06-142.27-172.76-101.26-139.76-132.69-188.85-160.84-268-55.72-156.61-47.16-297-37.1-366.79A762.21,762.21,0,0,1,668.77,50.43l3.08,1.82a758.66,758.66,0,0,0-98.23,278.6c-10,69.43-18.53,209.19,36.93,365.08,28,78.72,59.35,127.67,160.37,267.1,54,74.55,100.78,126.57,142,172.47,63.52,70.66,113.69,126.47,159.23,228.12a850.44,850.44,0,0,1,47.9,137.6Z"/><path class="cls-8" d="M580,586.5l-2.59-1.4c-.59-.32-59.39-32.64-111.64-98.42C417.52,425.94,365.1,323.44,389.34,180l3.53.6c-24,142.12,27.91,243.66,75.7,303.83,45.6,57.41,96.14,89.06,108,96,3.27-114.57,76.72-188.81,138.06-231,66.92-46.05,134.26-64.94,134.93-65.13l1,3.45c-.67.18-67.51,18.95-133.93,64.68C655.4,394.56,582.08,468.84,580,583.56Z"/><path class="cls-8" d="M596.74,954.95c-59.47,0-129.36-14.61-193.9-64.85l2.2-2.82C549.88,1000,722.1,931.28,739.21,924,710,810.88,735.83,727.43,762.77,677.27c29.34-54.63,66.3-82.71,66.67-83l2.15,2.86c-.36.27-36.79,28-65.75,82-26.7,49.79-52.33,132.8-22.78,245.46l.38,1.45-1.36.63C741,927.14,678.78,954.95,596.74,954.95Z"/><path class="cls-8" d="M729.41,1170.72c-44.6,0-98-8.1-160.11-30.79l1.23-3.36c203.52,74.35,312.17-8.94,323.39-18.24-49.53-115.87,20.23-303.26,20.94-305.15l3.35,1.26c-.71,1.88-70.44,189.23-20.48,303.67l.51,1.17-.95.86C896.51,1120.87,840,1170.72,729.41,1170.72Z"/></g></g><path class="cls-2" d="M1158,1648.23c11.61-70.23,18.28-179.9-38.88-278-99.72-171.11-281.5-114.35-455.48-297.68-140.33-147.86-96.11-262.78-251.6-361-26-16.45-163.55-107-265.82-52.44-57.63,30.72-78.51,93.79-82.43,105.63-59.24,178.94,123,459.08,360.58,587.22,136.49,73.62,180.52,49.56,420.71,135.42A1351.45,1351.45,0,0,1,1158,1648.23Z"/><g class="cls-9"><g class="cls-7"><path class="cls-8" d="M1178,1732.8c-34.76-167-100.54-279-195.52-333.15-46.34-26.4-83.36-30.59-122.56-35-42.83-4.85-87.12-9.86-145.71-45.29-57-34.48-77.4-67.59-103.21-109.51-22.93-37.24-51.46-83.58-115.48-145.28-56.12-54.09-97-79.42-133.09-101.77-39.49-24.46-70.69-43.78-106.9-91.24-59-77.31-89.83-176.37-91.65-294.42l3.58-.06c1.8,117.27,32.39,215.62,90.91,292.31,35.81,46.93,66.76,66.1,105.94,90.37C400.52,982.18,441.58,1007.61,498,1062c64.34,62,93,108.57,116,146,25.56,41.51,45.74,74.29,102,108.32,57.92,35,101.81,40,144.26,44.8,39.58,4.48,77,8.71,123.93,35.47,95.91,54.64,162.27,167.53,197.25,335.53Z"/><path class="cls-8" d="M364.49,973.08c-122,0-213.15-46.78-268.84-86.91C32.91,841,.32,794.15,0,793.68l2.95-2c.32.46,32.63,46.85,94.91,91.7,57.07,41.1,151.62,89.24,278.82,86C369,944.76,305.34,729.43,387.73,637l2.67,2.38c-85.63,96.09-10.37,328.8-9.6,331.14l.75,2.27-2.39.07Q371.75,973.08,364.49,973.08Z"/><path class="cls-8" d="M355.11,1171.59c-78.06,0-177.62-16.07-277.51-76l1.84-3.07c124.26,74.5,248,80.73,330,72.84,81.29-7.83,138.53-30.68,148.08-34.69-33.08-122.06-3.6-294.18-3.3-295.91l3.52.62c-.3,1.73-29.88,174.49,3.64,295.85l.41,1.48-1.4.63c-.6.27-61.24,27-150.6,35.59C393.14,1170.57,374.81,1171.59,355.11,1171.59Z"/><path class="cls-8" d="M461,1455q-8.93,0-18-.2l.08-3.58c124.81,2.7,220.91-23.25,279.53-45.48,56-21.25,89.44-43.25,96.78-48.32-91.63-113.85-55.73-299.69-55.35-301.56l3.51.7c-.37,1.86-36.24,187.69,55.83,300.08l1.19,1.46-1.52,1.12C821.64,1360.22,690,1455,461,1455Z"/></g></g><path class="cls-10" d="M1160.41,1588.57a758.2,758.2,0,0,0-189-99.18c-152.94-54.22-223-22.23-287.77-86.89-67-66.93-23.61-132.84-103.85-207.58-6.75-6.28-92.9-84.46-170.84-55.35-54.52,20.36-75.75,82.3-85.71,111.36-38.66,112.79-16.18,284.64,104.14,369.41,114.08,80.37,258.51,42.07,304.36,29.58,80.45-21.9,99.51-53.26,181.29-73.09C1012.54,1552.73,1101.93,1570.59,1160.41,1588.57Z"/><path class="cls-11" d="M2964.74,2565.43l-2820.2-24.79V2614c0,19.91,12.3,36.83,29,39.85L971,2798.26a108.65,108.65,0,0,0,28.61,1.36l1934.51-164.67c17.27-1.47,30.65-18.45,30.65-38.9Z"/><path class="cls-12" d="M1941.3,2446.53,173.7,2580.71c-31.63,2.4-57.35-23.11-57.35-57V1166.44c0-33.88,25.72-61.34,57.35-61.34H1941.3c26.06,0,47.13,24.83,47.13,55.45v1227C1988.43,2418.13,1967.36,2444.55,1941.3,2446.53Z"/><path class="cls-13" d="M1969.48,2446.53,201.89,2580.71c-31.63,2.4-57.35-23.11-57.35-57V1166.44c0-33.88,25.72-61.34,57.35-61.34h1767.6c26.06,0,47.13,24.83,47.13,55.45v1227C2016.61,2418.13,1995.54,2444.55,1969.48,2446.53Z"/><path class="cls-14" d="M1914.42,2360,268.09,2476.58c-25.74,1.82-46.66-19.12-46.66-46.77V1241.5c0-27.66,20.92-50.17,46.66-50.28l1646.33-7.32c21.5-.1,38.88,20.25,38.88,45.44V2311.67C1953.3,2336.86,1935.91,2358.51,1914.42,2360Z"/><path class="cls-8" d="M1148.11,1142.22c0,12.61-9.1,22.86-20.33,22.9s-20.38-10.18-20.38-22.82,9.13-22.89,20.38-22.9S1148.11,1129.61,1148.11,1142.22Z"/><path class="cls-15" d="M1543.61,2074.28c-136.27-78.75-243.41,21-346.81-77.42-62.69-59.69-31.91-104.2-109.05-193.4-85.44-98.8-141.06-65.59-226.92-154.5C752.25,1536.52,806.55,1449,713,1368.32c-113.45-97.93-235.8-7.29-343.79-101.2-46.58-40.51-72.14-99.39-85.48-162H178.09c-18.52,0-33.55,16.12-33.55,36V2548c0,19.89,15,34.86,33.55,33.45l1801.47-137.35c8.84-.67,16.68-6.22,21.71-14.26-131.87-5.16-212.89-52.65-264.68-101.74C1635.29,2232.12,1652.86,2137.42,1543.61,2074.28Z"/><path class="cls-16" d="M2039.93,2440.45,144.54,2581.68,971,2731.35a108.65,108.65,0,0,0,28.61,1.36l1965.16-167.28-894.65-124A142.36,142.36,0,0,0,2039.93,2440.45Z"/><polygon class="cls-17" points="421.11 2585.23 1999.08 2465.9 2487.45 2533.05 923.07 2660.61 421.11 2585.23"/><g class="cls-18"><polygon class="cls-8" points="557.32 1284.53 376.03 1285.16 376.03 1226.49 557.32 1226.49 557.32 1284.53"/><polygon class="cls-8" points="1507.19 1281.21 672.47 1284.13 672.47 1226.49 1507.19 1226.49 1507.19 1281.21"/><polygon class="cls-8" points="847.45 1380.92 672.47 1382.57 672.47 1324.94 847.45 1323.9 847.45 1380.92"/><polygon class="cls-8" points="1765.37 1372.24 958.63 1379.87 958.63 1323.23 1765.37 1318.42 1765.37 1372.24"/><polygon class="cls-8" points="847.45 1478.32 672.47 1481.02 672.47 1423.39 847.45 1421.3 847.45 1478.32"/><polygon class="cls-8" points="1765.37 1464.17 958.63 1476.61 958.63 1419.97 1765.37 1410.35 1765.37 1464.17"/><polygon class="cls-8" points="557.32 1581.93 376.03 1585.8 376.03 1527.14 557.32 1523.89 557.32 1581.93"/><polygon class="cls-8" points="1507.19 1561.62 672.47 1579.46 672.47 1521.83 1507.19 1506.9 1507.19 1561.62"/><polygon class="cls-8" points="847.45 1673.13 672.47 1677.91 672.47 1620.28 847.45 1616.1 847.45 1673.13"/><polygon class="cls-8" points="1765.37 1648.02 958.63 1670.09 958.63 1613.45 1765.37 1594.21 1765.37 1648.02"/><polygon class="cls-8" points="847.45 1770.53 672.47 1776.36 672.47 1718.72 847.45 1713.51 847.45 1770.53"/><polygon class="cls-8" points="1765.37 1739.95 958.63 1766.83 958.63 1710.19 1765.37 1686.13 1765.37 1739.95"/><polygon class="cls-8" points="847.45 1867.93 672.47 1874.8 672.47 1817.17 847.45 1810.91 847.45 1867.93"/><polygon class="cls-8" points="1765.37 1831.88 958.63 1863.57 958.63 1806.93 1765.37 1778.06 1765.37 1831.88"/><polygon class="cls-8" points="1130.25 1952.54 961.31 1960.18 961.31 1903.56 1130.25 1896.51 1130.25 1952.54"/><polygon class="cls-8" points="1888.56 1918.24 1237.63 1947.68 1237.63 1892.02 1888.56 1864.85 1888.56 1918.24"/><polygon class="cls-8" points="557.32 2077.59 376.03 2086.87 376.03 2028.21 557.32 2019.56 557.32 2077.59"/><polygon class="cls-8" points="1507.19 2028.96 672.47 2071.7 672.47 2014.06 1507.19 1974.24 1507.19 2028.96"/><polygon class="cls-8" points="847.45 2160.14 672.47 2170.14 672.47 2112.51 847.45 2103.12 847.45 2160.14"/><polygon class="cls-8" points="1765.37 2107.67 958.63 2153.78 958.63 2097.15 1765.37 2053.85 1765.37 2107.67"/><polygon class="cls-8" points="847.45 2257.54 672.47 2268.59 672.47 2210.95 847.45 2200.52 847.45 2257.54"/><polygon class="cls-8" points="1765.37 2199.59 958.63 2250.52 958.63 2193.89 1765.37 2145.78 1765.37 2199.59"/><polygon class="cls-8" points="557.32 2374.99 376.03 2387.52 376.03 2328.85 557.32 2316.96 557.32 2374.99"/><polygon class="cls-8" points="1507.19 2309.36 672.47 2367.03 672.47 2309.4 1507.19 2254.64 1507.19 2309.36"/></g><path class="cls-19" d="M2140.12,434.51l-1543-50.71c-51.74-1.7-93.87,39.12-93.87,91.18V1978.9c0,52.06,42.12,92.46,93.87,90.25l1543-65.89c44.63-1.91,80.67-42.41,80.67-90.48V524.19C2220.79,476.12,2184.75,436,2140.12,434.51Z"/><path class="cls-20" d="M597.08,2039.18c-35.2,1.46-63.81-26-63.81-61.44V475.84a61.6,61.6,0,0,1,63.81-62.07l1543,48.63c30.4,1,55,28.29,55,61V1913.78c0,32.76-24.58,60.33-55,61.59Z"/><path class="cls-21" d="M2140.12,434.51l-1543-50.71c-51.74-1.7-93.87,39.12-93.87,91.18v67.62l1717.58,44V524.19C2220.79,476.12,2184.75,436,2140.12,434.51Z"/><path class="cls-8" d="M670.11,470.69a29.52,29.52,0,0,1-30.43,29.78,31.66,31.66,0,0,1-30.52-31.55,29.52,29.52,0,0,1,30.52-29.78A31.67,31.67,0,0,1,670.11,470.69Z"/><path class="cls-8" d="M776.34,473.78a29.31,29.31,0,0,1-30.14,29.64C729.51,503,716,488.9,716,472a29.31,29.31,0,0,1,30.23-29.64C762.85,442.9,776.34,457,776.34,473.78Z"/><path class="cls-8" d="M881.56,476.84a29.11,29.11,0,0,1-29.86,29.5c-16.52-.46-29.94-14.44-29.94-31.24a29.1,29.1,0,0,1,29.94-29.5C868.21,446.1,881.56,460.09,881.56,476.84Z"/><polygon class="cls-8" points="1427.65 730.77 612.63 716.12 612.63 764.04 1427.65 776.94 1427.65 730.77"/><polygon class="cls-8" points="2040.41 741.78 2040.41 786.63 2126.63 788 2126.63 743.33 2040.41 741.78"/><g class="cls-7"><polygon class="cls-8" points="784.93 881.26 612.63 879.42 612.63 830.01 784.93 832.23 784.93 881.26"/><polygon class="cls-8" points="1705.44 891.06 894.93 882.43 894.93 833.64 1705.44 844.07 1705.44 891.06"/><polygon class="cls-8" points="1062.92 966.93 894.93 965.77 894.93 916.98 1062.92 918.51 1062.92 966.93"/><polygon class="cls-8" points="1960.9 973.09 1170.18 967.66 1170.18 919.48 1960.9 926.66 1960.9 973.09"/><polygon class="cls-8" points="1062.92 1049.63 894.93 1049.12 894.93 1000.33 1062.92 1001.21 1062.92 1049.63"/><polygon class="cls-8" points="1960.9 1052.39 1170.18 1049.96 1170.18 1001.78 1960.9 1005.96 1960.9 1052.39"/><polygon class="cls-8" points="784.93 1132.54 612.63 1132.66 612.63 1083.24 784.93 1083.5 784.93 1132.54"/><polygon class="cls-8" points="1705.44 1131.88 894.93 1132.46 894.93 1083.67 1705.44 1084.88 1705.44 1131.88"/><polygon class="cls-8" points="1062.92 1215.04 894.93 1215.8 894.93 1167.01 1062.92 1166.63 1062.92 1215.04"/><polygon class="cls-8" points="1960.9 1211 1170.18 1214.56 1170.18 1166.38 1960.9 1164.57 1960.9 1211"/><polygon class="cls-8" points="1062.92 1297.75 894.93 1299.14 894.93 1250.35 1062.92 1249.33 1062.92 1297.75"/><polygon class="cls-8" points="1960.9 1290.31 1170.18 1296.86 1170.18 1248.68 1960.9 1243.88 1960.9 1290.31"/><polygon class="cls-8" points="1062.92 1380.45 894.93 1382.48 894.93 1333.69 1062.92 1332.04 1062.92 1380.45"/><polygon class="cls-8" points="1960.9 1369.61 1170.18 1379.16 1170.18 1330.98 1960.9 1323.18 1960.9 1369.61"/><polygon class="cls-8" points="1336.55 1458.82 1172.77 1461.42 1172.77 1413.24 1336.55 1411.01 1336.55 1458.82"/><polygon class="cls-8" points="2083.61 1446.97 1441.15 1457.16 1441.15 1409.58 2083.61 1400.82 2083.61 1446.97"/><polygon class="cls-8" points="784.93 1551.33 612.63 1554.71 612.63 1505.3 784.93 1502.3 784.93 1551.33"/><polygon class="cls-8" points="1705.44 1533.24 894.93 1549.17 894.93 1500.38 1705.44 1486.25 1705.44 1533.24"/><polygon class="cls-8" points="1062.92 1628.57 894.93 1632.51 894.93 1583.72 1062.92 1580.15 1062.92 1628.57"/><polygon class="cls-8" points="1960.9 1607.53 1170.18 1626.06 1170.18 1577.88 1960.9 1561.1 1960.9 1607.53"/><polygon class="cls-8" points="1062.92 1711.28 894.93 1715.85 894.93 1667.06 1062.92 1662.86 1062.92 1711.28"/><polygon class="cls-8" points="1960.9 1686.83 1170.18 1708.36 1170.18 1660.18 1960.9 1640.4 1960.9 1686.83"/><polygon class="cls-8" points="784.93 1802.61 612.63 1807.95 612.63 1758.53 784.93 1753.57 784.93 1802.61"/><polygon class="cls-8" points="1705.44 1774.06 894.93 1799.19 894.93 1750.4 1705.44 1727.07 1705.44 1774.06"/><polygon class="cls-8" points="1062.92 1876.69 894.93 1882.54 894.93 1833.74 1062.92 1828.27 1062.92 1876.69"/><polygon class="cls-8" points="1960.9 1845.44 1170.18 1872.96 1170.18 1824.78 1960.9 1799.02 1960.9 1845.44"/></g><g class="cls-22"><path class="cls-8" d="M1540.33,1012.66C1360.11,750.41,1048.16,833.85,850.82,544.1c-35.59-52.26-59.74-105.43-76.3-154.47L597.08,383.8c-51.74-1.7-93.87,39.12-93.87,91.18V1978.9c0,52.06,42.12,92.46,93.87,90.25l1486.53-63.48c-34.05-49.11-330.66-231-407.27-510.34C1606.26,1239.9,1649.07,1170.88,1540.33,1012.66Z"/></g><path class="cls-23" d="M1459.73,1133.28a77.73,77.73,0,0,0,12.63-39.82c1-36.94-26.43-65.76-30.11-64.1-2,.89.53,11.72,1.94,16.51,2.94,10,6.09,11,5.83,15.54-.54,9.44-14.18,9.81-21.37,22.34-5.18,9-5.59,21.88,0,32.05C1437.93,1132.67,1458.85,1133.27,1459.73,1133.28Z"/><polygon class="cls-24" points="2045.04 1935.7 2034.51 1899.46 2078.48 1866.88 2105.89 1856.63 2089.66 1907.34 2045.04 1935.7"/><path class="cls-25" d="M1990.62,2665.61s24.05,60.5,17.72,87.33c25.82-.51,42.53-3.8,42.53-3.8s-10.38-27.59-12.4-41.26c-2.74-18.47-2.53-48.35-2.53-48.35Z"/><path class="cls-26" d="M1725.51,2807.11a19,19,0,0,1,4.55,11.11,18,18,0,0,1-1.36,7.45c-4.1,10.79-10.54,12.21-17.49,23.66-4.25,7-3.44,9.11-7.34,12.26-5.13,4.16-11.33,4.4-16.71,4.46a296.79,296.79,0,0,1-38.64-2.18q12.95-16.69,27.57-33.83,6.42-7.5,12.82-14.66l25.38-8.57Z"/><path class="cls-27" d="M1704.41,2683.91s-14.51,75.69,4,96.88c15.72,21.19-7.59,6.07-7.59,6.07l-27.85,24.3L1656.22,2840s15.38-74.08,11.28-103.47-6.15-49.22-6.15-49.22Z"/><path class="cls-28" d="M1649.72,1856s-39,34.87-39,178.43,18.46,455.31,18.46,455.31l29.54,223.19s30.63,1.09,51.14-5.06c18.46-84.09,48.54-226.33,34.18-345.29-6.15-129.21,51.27-291.23,51.27-291.23s49.22,164.07,84.09,246.11,101.25,339,107.4,357.5c40.8,3.7,58.22-7.09,58.22-7.09s-26.16-276.57-50.77-381.17-22.56-356.86-63.58-428.64C1838.4,1821.15,1649.72,1856,1649.72,1856Z"/><path class="cls-29" d="M1649.72,1856s-39,34.87-39,178.43,18.46,455.31,18.46,455.31l29.54,223.19s30.63,1.09,51.14-5.06c18.46-84.09,48.54-226.33,34.18-345.29-6.15-129.21,51.27-291.23,51.27-291.23s49.22,164.07,84.09,246.11,101.25,339,107.4,357.5c40.8,3.7,58.22-7.09,58.22-7.09s-26.16-276.57-50.77-381.17-22.56-356.86-63.58-428.64C1838.4,1821.15,1649.72,1856,1649.72,1856Z"/><path class="cls-30" d="M1852.15,2119.07c12.15,79,36.45,121.51,97.21,176.19,48.6,36.45,12.15,115.43,30.38,176.19,6.07,18.23,24.3,36.45,30.38,54.68,22.61,45.22,1.49,100.52,11.74,148.4,16-2.2,23.19-6.64,23.19-6.64s-26.16-276.57-50.77-381.17-22.56-356.86-63.58-428.64c-92.29-36.92-281-2-281-2s-39,34.87-39,178.43c0,11.65.12,24.42.35,38,40.45,35.8,123.19,43.76,174.22,4.07a24.08,24.08,0,0,1,9.75-4.42l.26-.76.21.71C1818.77,2067.84,1846.88,2098,1852.15,2119.07Z"/><path class="cls-26" d="M2002,2775.9s-6,0-5.49,7.74-2.7,34.37,27.77,35.62,35.17-2.16,36.17-2.16-8-25.48-8-25.48l-9.74-12.49-26.22-2.75Z"/><path class="cls-31" d="M2069.57,2802.63c-.65-6.43-4.25-16.55-7.87-24.7-5.38-12.1-1-16.63-6.1-27.65-1.78-3.81-3.51-7.43-7.26-11-.86-.82-9.27-8.59-21.52-8.2a21.87,21.87,0,0,0-10.13,2.38c-4.72,2.52-7.09,6.3-9.11,9.62-3.18,5.22-2.45,6.82-7.34,21.77a54,54,0,0,0-2.72,14.06c8,0,38.71,1.25,45.2,6s9.74,12.74,9.74,20.73,4,11.74,8,11.49C2064,2816.88,2071.11,2810.27,2069.57,2802.63Z"/><path class="cls-31" d="M1700.51,2770.15c6.86.11,11.9,5.57,15.69,18.73s22,24.81.76,22-36.71,27.34-44.3,38.48-28,21-27.48,10.15,9.5-16,12-27.11S1684.86,2769.91,1700.51,2770.15Z"/><path class="cls-8" d="M2061.18,1873.35c5-14,36.54-106.18-14.36-190.23-41.67-68.8-113.77-91.25-124.05-94.28-62.58-18.48-93.95,5.26-113.7-16.59-33.51-37.08,4.45-163.39,77.87-188.7,82.76-28.52,182,81.14,222.27,153.17,52.78,94.5,39.79,188.42,36.74,207.76a324.21,324.21,0,0,1-40.06,112.15Z"/><path class="cls-8" d="M1845.06,1365.72c-73.87-3-130.84-1.78-163,30.38-34,34,.36,72.32-7,161.17-11.3,136-98,169.27-104.51,307.28a352.42,352.42,0,0,0,11.78,107.4c19,23.69,50.16,57.13,96.12,85.09,66.87,40.69,105.65,33.59,201.69,59.88,157.09,43,171.07,94.19,249,81.15,78.72-13.18,147.79-79.43,139.45-115.81-5-21.79-36.73-15.62-73.27-48.85-47.09-42.83-28.93-83.71-64.73-129.73-51.43-66.11-123.07-25.69-166.89-83-44.33-58-26.75-172.16,10.62-234.41,24.41-40.66,34.86-88.31,55.63-130.94a29.61,29.61,0,0,0,2.85-16.61c-3.37-27.76-49.65-42.83-84.71-53.87C1894.53,1368,1851.14,1366,1845.06,1365.72Z"/><path class="cls-32" d="M1782.84,1362.66l14.57-4.48s3.81,19.73,50.66,22.19c26,0,42.81-14.57,42.81-14.57l10,7.26s-21.84,27.28-56.58,26.59C1799.42,1398.75,1782.84,1362.66,1782.84,1362.66Z"/><path class="cls-33" d="M1812.5,1302.66c2.81-21.66,19.93-35.54,23.67-38.52,15.65-12.44,18.83-13.69,24.21-14.71l7.34-1.11.8,0c4.3.26,17.17,5.29,19.51,6.93,7.48,5.26,2,42.51-20.7,88.83l-2.68,11.77c19.76,3.47,24.66,7,24.81,9.89.34,6.17-21.3,14-41.35,14.54-25.15.64-51.85-10.18-51.34-18.25.21-3.27,4.95-7.3,23.21-11.26l8.56-12C1826,1335.63,1810.44,1318.62,1812.5,1302.66Z"/><path class="cls-34" d="M1843.59,1294.5c5.7-3.41,10,3.92,7.36,10.34s-11.71,10.43-17.19,6.6S1835.91,1299.1,1843.59,1294.5Z"/><path class="cls-35" d="M2582.85,1294.4c-75.08-81.47-249.76-59.13-346.65,6.3-45,30.4-68.13,66.32-121.33,69.33-40.44,2.29-104.78-12.91-138.66-56.72-4.27-5.52-21.34-28.67-47-57.86-11.3-12.87-22.54-24.95-40-27.68-4.43-.69-19.15-3.09-28.89,6.42-7.89,7.7-9.82,21.1-7.49,30.76,1.4,5.77,3.2,6.38,2.94,10.16-.72,10.62-20.07,15.25-19,20.6.77,3.82,10.84,2.42,12.57,7.22,1.9,5.26-9.16,9.78-13.91,23-8.9,6-14.52,20.79-16.47,40.62-2.86,29.16.07,52.86,5.6,70.71,26.61,85.93,45.64,147.4,91.7,181.72,61,45.44,115.89,3.49,271-3.15,212.41-9.09,265.37,62.91,341.72,13.66C2624.39,1568,2660.8,1379,2582.85,1294.4Z"/><path class="cls-8" d="M1468.71,1128.11c-1.89,17.77-8.3,96.39,45.93,162.78,50.67,62,122.44,74.42,135.78,76.43,64.52,9.75,92.35-18.06,114.9.89,38.26,32.15,17.93,162.47-51.34,197.57-78.08,39.57-191.43-55.49-241.13-121.34-65.21-86.39-65.18-181.21-64.8-200.79a324.21,324.21,0,0,1,24.35-116.57,57.55,57.55,0,0,1,36.31,1Z"/><path class="cls-36" d="M2131.42,2146.05c-18.89-19.37,1.9-58.42-26-87.45-25.9-26.95-55.22-5.18-96.9-28.36-53.47-29.74-38.74-84.18-89.81-113.45-36.73-21-54,1.58-111.09-9.45S1681.19,1857,1646.89,1786.8a207.19,207.19,0,0,1-20.66-86c-25.64,45.8-52.23,89.7-55.73,163.77a352.41,352.41,0,0,0,11.78,107.4c19,23.69,50.16,57.13,96.12,85.09,66.87,40.69,105.65,33.59,201.69,59.88,157.09,43,171.07,94.19,249,81.15,50.31-8.42,96.57-38.52,121.31-68.65C2177.76,2161.72,2145.12,2160.11,2131.42,2146.05Z"/><path class="cls-37" d="M2530.63,958.23c.31-111.91-112.09-197.53-239.1-191.48-69.09,3.29-127.34,33.32-162.81,76.18v0c-.22.26-.42.54-.64.8-.61.74-1.19,1.5-1.79,2.25q-1.62,2.05-3.19,4.14-.92,1.23-1.82,2.48-1.5,2.08-2.92,4.2c-.55.81-1.1,1.61-1.63,2.43-1.06,1.63-2.08,3.28-3.08,4.94-.36.6-.74,1.19-1.1,1.8q-2,3.37-3.79,6.83c-.32.61-.61,1.23-.93,1.85-.88,1.72-1.74,3.46-2.56,5.21-.4.86-.78,1.73-1.16,2.59q-1,2.32-2,4.68-.56,1.37-1.09,2.74c-.62,1.61-1.21,3.23-1.78,4.86-.3.85-.61,1.7-.89,2.56-.68,2.05-1.31,4.12-1.9,6.2-.12.43-.27.86-.39,1.3q-1,3.76-1.89,7.59c-.17.75-.31,1.51-.46,2.26-.38,1.83-.74,3.66-1.06,5.51-.16.94-.3,1.89-.45,2.83q-.39,2.56-.7,5.15c-.11,1-.23,1.94-.32,2.91-.18,1.82-.32,3.65-.44,5.49-.05.85-.13,1.7-.17,2.56-.13,2.68-.2,5.38-.2,8.1.21,64.64,40.23,123.83,101.49,158.5q8.58,4.86,17.74,9.08,4.59,2.11,9.31,4.06a257,257,0,0,0,72.82,18h0c3.62.35,7.22.62,10.81.82,1.21.07,2.42.09,3.63.14,2.38.1,4.77.2,7.14.24,1.45,0,2.89,0,4.33,0,2.12,0,4.25,0,6.36-.06,1.55,0,3.09-.12,4.63-.18,2-.09,4-.18,6-.31,1.59-.11,3.17-.24,4.76-.38,1.93-.17,3.86-.34,5.78-.55q2.41-.26,4.81-.57,2.83-.36,5.63-.79c1.61-.24,3.21-.49,4.8-.77,1.86-.32,3.7-.66,5.54-1,1.58-.31,3.17-.62,4.74-1,.58-.12,1.18-.22,1.75-.35l0,0C2462.45,1112,2530.4,1044.28,2530.63,958.23Z"/><path class="cls-38" d="M2505.12,956.39c-.26,110.62-110.62,189.36-234.95,177.28-113.2-11-198-94.68-198.37-188-.33-93.54,84.35-173.64,198.07-179.11C2394.84,760.57,2505.38,845.44,2505.12,956.39Z"/><path class="cls-8" d="M2195.7,912.92q-11.47-.12-17.67,9.3t-6.15,26.26c.05,23.42,8,35.44,23.95,36.06q10.14.4,24.74-4.67l0,19a61.71,61.71,0,0,1-26.63,4.24c-13.87-.65-24.37-5.77-31.61-15.31s-10.8-22.81-10.85-40q0-16.25,5.2-28.41t15.24-18.72q10-6.55,23.72-6.53,14.06,0,28.48,7.64l-6.68,18.43a106.89,106.89,0,0,0-11-5.1A30,30,0,0,0,2195.7,912.92Z"/><path class="cls-8" d="M2309.16,976.26q0,15-10.2,23.22t-28,7.3q-16.25-.76-28.56-7.84l0-21.28a116.37,116.37,0,0,0,17.21,7.53,49.2,49.2,0,0,0,13,2.52q7.14.28,11-2.5t3.84-8.58a10.35,10.35,0,0,0-1.7-5.81,20.41,20.41,0,0,0-5-5,129.37,129.37,0,0,0-13.26-7.8q-9.31-5-13.92-9.37a34.51,34.51,0,0,1-7.36-10.18,30.85,30.85,0,0,1-2.75-13.38q0-14.36,9-22.54t25.27-8.19a57.16,57.16,0,0,1,15.37,2.08,103.51,103.51,0,0,1,15.48,5.83l-7.17,18.22a101.24,101.24,0,0,0-13.77-5.22,41.5,41.5,0,0,0-10.61-1.54q-6.17-.06-9.44,3a10.31,10.31,0,0,0-3.26,8,10.57,10.57,0,0,0,1.32,5.36,15.51,15.51,0,0,0,4.22,4.48q2.9,2.19,13.79,8,14.51,7.71,20,15.31T2309.16,976.26Z"/><path class="cls-8" d="M2400.78,979.4q0,15.56-11,24t-30,7.51q-17.41-.82-30.58-8.16v-22a127,127,0,0,0,18.42,7.82,54.37,54.37,0,0,0,14,2.63q7.65.3,11.77-2.57t4.13-8.88a10.45,10.45,0,0,0-1.81-6,21.5,21.5,0,0,0-5.32-5.18,139.75,139.75,0,0,0-14.2-8.09q-10-5.13-14.9-9.71a35.76,35.76,0,0,1-7.87-10.54,31,31,0,0,1-2.93-13.85q0-14.86,9.66-23.32t27.08-8.48a63.29,63.29,0,0,1,16.47,2.15,113.39,113.39,0,0,1,16.6,6l-7.71,18.87a110.91,110.91,0,0,0-14.76-5.41,45.94,45.94,0,0,0-11.37-1.6q-6.61-.07-10.12,3.07a10.5,10.5,0,0,0-3.51,8.23,10.64,10.64,0,0,0,1.41,5.55,16.27,16.27,0,0,0,4.51,4.64q3.1,2.27,14.77,8.25,15.55,8,21.4,15.88T2400.78,979.4Z"/><g class="cls-39"><path class="cls-40" d="M2323.36,1091.32c-26.75-56.71.29-106.82-35.79-143.43-35.67-36.19-80.48-4.33-127-33.11-17.54-10.84-36.79-31.2-51-72.59-24,29.17-37.88,64.9-37.75,103.51.33,93.31,85.18,177,198.37,188a251.17,251.17,0,0,0,79.45-4.79A139.6,139.6,0,0,1,2323.36,1091.32Z"/></g><path class="cls-41" d="M2801.2,506.11c0-113.79-113.91-208-249.17-210.41-76.84-1.35-143.57,27.43-185.19,72.57l0,0c-.26.28-.5.57-.76.86-.72.79-1.41,1.6-2.12,2.4q-1.93,2.19-3.78,4.42-1.09,1.32-2.16,2.66-1.78,2.23-3.48,4.52c-.65.87-1.31,1.74-1.94,2.62-1.27,1.76-2.48,3.54-3.68,5.34-.43.65-.89,1.29-1.31,1.94q-2.37,3.66-4.54,7.42c-.38.66-.74,1.35-1.11,2-1.05,1.88-2.08,3.77-3.07,5.69-.48.94-.94,1.89-1.4,2.84q-1.24,2.55-2.41,5.13-.67,1.5-1.32,3c-.75,1.77-1.46,3.56-2.15,5.36-.36.94-.73,1.87-1.08,2.82-.82,2.26-1.58,4.55-2.3,6.85-.15.48-.32,1-.47,1.43q-1.26,4.17-2.29,8.42c-.2.83-.37,1.68-.56,2.52-.46,2-.9,4.07-1.29,6.13-.2,1-.37,2.1-.55,3.16q-.48,2.86-.86,5.75c-.14,1.08-.28,2.16-.4,3.25-.22,2-.4,4.08-.55,6.14-.07,1-.16,1.91-.21,2.87-.16,3-.27,6-.27,9.08,0,72.6,47.53,139.1,118.9,177.12q9.85,5.25,20.31,9.77,5.23,2.26,10.6,4.32A291.42,291.42,0,0,0,2552,692.41h0c4,.32,7.93.54,11.87.69,1.33.05,2.64.05,4,.09,2.6.07,5.21.13,7.8.13,1.58,0,3.15-.05,4.72-.08,2.31,0,4.62-.08,6.91-.18,1.68-.07,3.35-.18,5-.28,2.17-.13,4.34-.26,6.49-.44,1.72-.14,3.42-.31,5.13-.49,2.08-.21,4.16-.43,6.22-.69q2.59-.32,5.16-.69,3-.43,6-.93c1.72-.28,3.43-.58,5.13-.9,2-.37,3.95-.76,5.91-1.17,1.69-.35,3.37-.7,5-1.09.62-.14,1.25-.26,1.86-.4l0,0C2733,663.75,2801.2,593.84,2801.2,506.11Z"/><path class="cls-42" d="M2767.64,505.09c0,113.22-112.77,196.06-246.72,185.44-128.56-10.2-229-103.38-229-208.49s100.49-188.55,229-186.29C2654.87,298.1,2767.64,391.87,2767.64,505.09Z"/><path class="cls-8" d="M2422,531.5l-17.16-.95V493.4l-31.91-1.58v37l-17-.94V442.43l17,.71v33.57l31.91,1.5V444.46l17.16.71Z"/><path class="cls-8" d="M2480.18,534.72l-17.54-1V462.2l-22.32-1V445.94l62.45,2.6V464l-22.6-1Z"/><path class="cls-8" d="M2557.31,539l-20.39-70.09-.52,0q1.1,21.09,1.1,28.13v40.89l-16-.88V449.32l24.34,1,20.1,68.36.35,0,21.46-66.63,24.85,1V542l-17-.94v-42q0-3,.09-6.85t.79-20.59l-.53,0-22.1,68.25Z"/><path class="cls-8" d="M2640.56,543.59V454.27l18.54.77v73.89l35.75,1.89V546.6Z"/><g class="cls-39"><path class="cls-43" d="M2579.13,644.41c-29-60.63.32-113.8-38.9-153.69s-89.79-7-143.18-40.06c-20.4-12.65-42.93-36-59.57-82.73-28.69,31.26-45.61,70.69-45.61,114.11,0,105.11,100.49,198.3,229,208.49a278.2,278.2,0,0,0,86.43-6.42A146.4,146.4,0,0,1,2579.13,644.41Z"/></g><path class="cls-44" d="M2283.34,182.86c0-104.72-96.6-186.47-211.65-182.73-65.52,2.13-122.53,31.67-158.12,75.27v0c-.22.27-.43.55-.65.82-.62.76-1.21,1.54-1.81,2.31q-1.65,2.11-3.24,4.26-.93,1.27-1.85,2.56-1.52,2.15-3,4.34c-.56.83-1.12,1.67-1.66,2.51-1.08,1.68-2.13,3.39-3.15,5.11-.37.62-.76,1.23-1.12,1.86q-2,3.49-3.89,7.07c-.33.63-.63,1.28-1,1.91-.9,1.79-1.79,3.59-2.63,5.41-.41.89-.8,1.79-1.2,2.69q-1.07,2.41-2.06,4.86-.58,1.42-1.13,2.85c-.64,1.67-1.25,3.36-1.84,5.06-.31.89-.63,1.77-.92,2.66-.7,2.13-1.35,4.28-2,6.45-.13.45-.28.9-.4,1.35q-1.08,3.92-2,7.9c-.18.78-.32,1.57-.48,2.36-.4,1.9-.77,3.81-1.11,5.74-.17,1-.32,2-.47,2.95q-.41,2.67-.73,5.36c-.12,1-.24,2-.34,3-.19,1.89-.34,3.8-.47,5.71-.06.89-.13,1.77-.18,2.66-.14,2.79-.23,5.59-.23,8.41,0,67.2,40.7,126.48,101.72,158.22q8.42,4.38,17.34,8,4.47,1.83,9.05,3.48a224.63,224.63,0,0,0,69.44,13h0c3.39.1,6.76.11,10.11.07,1.13,0,2.25-.08,3.38-.11,2.22-.06,4.44-.13,6.64-.26,1.35-.08,2.68-.2,4-.3,2-.15,3.93-.3,5.89-.5,1.43-.15,2.85-.33,4.27-.5,1.85-.22,3.69-.45,5.52-.72,1.46-.21,2.91-.45,4.37-.7,1.77-.29,3.54-.6,5.3-.94q2.21-.42,4.39-.89,2.58-.55,5.13-1.15c1.46-.35,2.92-.7,4.37-1.07,1.68-.43,3.36-.9,5-1.37,1.43-.41,2.87-.81,4.29-1.25.52-.16,1.06-.3,1.58-.46l0,0C2225.53,331.19,2283.34,263.59,2283.34,182.86Z"/><path class="cls-45" d="M2267.53,182.88c0,104.45-96.11,186.32-210.58,183-110.21-3.22-196.59-84.79-196.59-182.3S1946.73,4.19,2056.95.6C2171.42-3.12,2267.53,78.43,2267.53,182.88Z"/><path class="cls-8" d="M2005.3,233.47l-81.73-41.59v-13.4l81.73-47.32V154l-56.54,30.2,56.54,26.61Z"/><path class="cls-8" d="M2092.24,112.7l-46.48,140.47-23.35-.24L2068.52,113Z"/><path class="cls-8" d="M2109.51,211.09l59.73-27.26-59.73-30.56v-23.2l87.1,47.74v14l-87.1,42.36Z"/><g class="cls-39"><path class="cls-46" d="M2106.73,320.4c-24.84-54.69.27-105.23-33.27-140.3-33.69-35.23-76.9-2.3-122.71-30.49-17.52-10.78-36.87-31.41-51.17-74-24.67,30.29-39.23,67.64-39.23,107.91,0,97.51,86.38,179.08,196.59,182.3a224.57,224.57,0,0,0,73.91-10.12A125.8,125.8,0,0,1,2106.73,320.4Z"/></g></g></g></g></svg>