<svg xmlns="http://www.w3.org/2000/svg" viewBox="0 0 1475.74 1284.31"><defs><style>.cls-1{fill:#5c8aef;}.cls-2{fill:#5656f4;}.cls-3{fill:#fdad9b;}.cls-4{fill:#ff8548;}.cls-5{fill:#66192d;}.cls-6{fill:#ffba41;}.cls-7{fill:#020202;}.cls-8{fill:#deebe9;}.cls-9{fill:#f18c7e;}.cls-10{fill:#fff;}.cls-11{fill:#060633;}.cls-12{opacity:0.3;}.cls-13{fill:#786ab5;}.cls-14{fill:#ff443c;}</style></defs><title>world web</title><g id="Layer_2" data-name="Layer 2"><g id="Layer_1-2" data-name="Layer 1"><circle class="cls-1" cx="752.02" cy="813.18" r="448.47" transform="translate(-256.64 1270.79) rotate(-71.64)"/><path class="cls-2" d="M792,366.41q2.72,1.75,5.75,3.6c.18-1.28,94.52,28.58,104.18,33,28,12.81,45.17,17.39,14.47,27.11,13.35-4.22,43.46,77.76,64.64,74.36,20.59-3.3,26.67,19.87,32.12,35.79,2.89,8.44,11.9,13.37,8.53,23.52-1.07,3.22-15.78,9.84-14.65,12,6.17,11.75,34.31,13.09,34.48,30.36q-4.08,6.5-12.39,6.25c-13,5.27-.69,15.81,1.81,24,6,19.69,24.88,37.18,38.54,14.78s-17.69-44.58,1.36-67.56c11.17-13.48,41,10.69,33.94-15-2-7.37-33.07-40-15.87-44.76.83-.23,1.41-1.91,1.77-4.69A449.85,449.85,0,0,0,792,366.41Z"/><path class="cls-2" d="M1151.18,608.76h0c-2.18-4.25-24.34,20.14-28.93,22.67-16.79,9.26-20.47-9-34.56,10.29-2.48,3.4-28,37.25-28.11,33.45.47,12.56-4.73,25,1.32,37.06,5.42,10.81-7.33,20.61-6.55,32,1,15-12.69,25.17-9.23,40.07,3,12.93,10.78,22.36,10.8,36.14,0,21.92-3.94,31.9,13.67,47.61,11.33,10.1,26.06,45,46,25.32,3.66-3.61,40-32.72,37.85-35,12.9,13.71,1.54,4.73,19.89,3.87,5-.23-3.71,126.15-11.29,123.25a5.74,5.74,0,0,0,4.2-.28q6.24-15.07,11.47-30.79A447.1,447.1,0,0,0,1151.18,608.76Z"/><path class="cls-2" d="M941.21,1028.74c.14-12.93-24-25-37.13-24.44-28.08,1.14-35.51-7.94-61.61-14.67-21.91-5.65-18.53-43-51.77-44.56-17.71-.86-51.09-49-68.56-34.61-11.56,9.52-33.81-16-41.57-16.14-17.92-.22-3.43,10.42-15.14-2.92-7.71-8.78-28.86,9.69-33.32,14.92-8.65,10.13-46.36-5.08-52.24-19.63-2.08-5.15,10-25.87,1-40.62-3.45-5.67-28.42-1.51-32.29-5.28-5.21-5.08,13.38-23.73,11.29-27.61-8.72-16.17-37.34,24.38-49.82-8.25-10.14-26.52,3.07-36.48,5.69-62,1.23-12,21.71-17.92,31.63-13.56,15.92,7,13.78.47,25.85-.84,9.53-1,19.65,9.76,28.84,11.35,10.84,1.88,3.42,32.3,13.65,39.59,5.94,4.23,5.8-40.93,6.18-42,6.49-18.31,34.85-16.65,39.38-32,11.16-37.86,36.82-35,67.86-48.39,14.8-6.37,51.39-13.76,60.65-28.27,17.26-27-28.1-67.41-39.94-86.48C749.68,542,739.33,553.93,737,554c-8.79.36-17-49.19-33.79-20.74-3.21,5.42-15.53,7-8.65,15,13.43,15.62-12.59,19.36-20.7,17.14s-48.61-25.64-34.42-38.69c29-26.61,35.52-12.83,65.58-13,34.45-.15,35.69,32.23,64.18-2.4,7.88-9.58-43.6-37-33.44-49.11,36-43,55.74,52.45,69.22,69,19.71,24.19,32.39,11.43,30.82-15.27-.74-12.58,26-24.29,27.87-37.87.37-2.77-17.26-27.8-19.87-29.49-9.29-6-11.44-12.28-16.21-18.23-6-7.5-15.45,3.73-20.81-3-2.48-3.1-47.68-1.37-52.49-1.31-23.74-.9-50.32-.11-74.25.24-9.82-.38-61.78,25-63.16,4.23-.68-10.31,11.67-28.4-10.39-20-7.06,2.67-11.53-1.26-10.1-1.55-15.23,3.1-43.7,13.74-55.91,24.68-6.76,6.06,9.43,8.87,10.54,14.07,2.13,10-23.15,28.71-28.81,35.22-20.11,23.17-19.21,54-46.3,76.55-31.29,26-33,64.1-33.33,100-.15,17.41-15.07,24.74-5.64,44.43,8,16.8,23,24.86,25.48,45.26,1.63,13.39-8.86,25.83-3.79,38.88,6.24,16.05,18.11,30.3,32.65,37.93,31,16.28,51.3,28.48,71.18,58.3,24.65,37,68.57,20.83,54.18,58.15-6.06,15.72-21.51,23.2-27.83,40-7.58,20.13,7,34.69,16.35,51s12.92,36.21,29.45,47.42c11.84,8,33.4,14.7,36.44,31,4.85,26-17.08,58.41-14.75,82.19,1.57,16,1.86,32.44,15.78,42.88,25.07,18.8,19.13-7.41,34.69-19.79,14.61-11.62,31.83-8.18,48.51-12.81,15.3-4.24-2.93-9.87,3.26-13.35,13.14-7.38,20.93,3.7,33.45-7.55,11.41-10.25,26.84-13.17,32.15-29.18,8.69-26.19,48.16-16.6,64.62-37,10.14-12.55,14.54-25.9,19.08-41.09,5.59-18.71,33.17-27.27,33.39-47.5C941.35,1015.22,941.06,1042.25,941.21,1028.74Z"/><path class="cls-3" d="M666.64,217.84c-5.23,9.23-57.74,89.77-46.75,168.56L677,365.93l26.11-106.19Z"/><path class="cls-4" d="M894.84,184.83s-35.11-62.37-120.58-45.13S642.14,278.1,665.33,518.06c0,0,135.78-53.46,312.33-10.36C977.66,507.7,948.6,275.3,894.84,184.83Z"/><path class="cls-4" d="M960,159.63,900,219s-154,41.21-196.79,40.72-59.62-31.46-59.62-31.46S679.64,171.66,752.7,146a214.55,214.55,0,0,1,21.56-6.34,221.92,221.92,0,0,1,38.16-5.48C888,129.77,960,159.63,960,159.63Z"/><path class="cls-5" d="M960,159.63c9.6,10.34-5.21,21.63-21.8,38S904.5,223.63,900,219s5.21-21.63,21.8-38S955.62,154.88,960,159.63Z"/><path class="cls-3" d="M907.94,219.26s-.9-11.86,14.16-27c9.07-9.12,20.55-15.08,28.24-18.38A8.81,8.81,0,0,1,962,178.75l4.82,12.3-22.43,14.3Z"/><path class="cls-6" d="M801.78,439.27s185.34-99.47,251.77,9c49.18,80.32-24.74,155.13-298.93,147.53,0,0-27.1-12.57-20.5-77.77C736.74,492.23,801.78,439.27,801.78,439.27Z"/><path class="cls-6" d="M801.78,439.27S554.94,339.13,506.1,401.73C450,473.67,503.8,595.83,764,552.17l31.71-34.1Z"/><path class="cls-5" d="M732.54,536s-45.49,1.83-66.86,12.21-10,35.71,33.43,35,40.1-7.07,40.1-7.07S731,553.94,732.54,536Z"/><path class="cls-7" d="M754.32,596.25c-30.44-21.51-20.81-77.72-20.71-78.28l.05-.29.28-.1L921.33,450l.35,1L734.58,518.45c-.71,4.41-8.44,56.63,20.34,77Z"/><path class="cls-3" d="M790.78,444c-15.07,0-27.44-3.77-37.48-11.27-19-14.16-22.47-36.73-19.72-51.75l18.13-10.44c.9-4.93,35.89,13.38,35.83,13.36.16.05,16.7,4.79,74-24.23,39.92-20.21,60-48.88,61.51-87.66,1.11-29.24-12.05-45.66-15.16-52.78-.41-.95,19.29-20.51,18.73-22.51l14.77-7.43c-.48-1.68,14.2-7.41,14-7.89l11.4,9.62a186.78,186.78,0,0,1,16.05,83.26c-1.6,42.36-19.26,100.81-94.28,138.78C847.7,433.79,815.59,444,790.78,444Z"/><path class="cls-5" d="M778.61,446.42h-160a7.77,7.77,0,0,1-7.38-5.23L578,342.87a7.67,7.67,0,0,1,7.38-10.06H739.24a16.25,16.25,0,0,1,15.44,11L786,436.36A7.67,7.67,0,0,1,778.61,446.42Z"/><path class="cls-5" d="M768.57,446.42H608.62a7.77,7.77,0,0,1-7.38-5.23L568,342.87a7.67,7.67,0,0,1,7.38-10.06H729.2a16.26,16.26,0,0,1,15.44,11l31.3,92.59A7.67,7.67,0,0,1,768.57,446.42Z"/><path class="cls-8" d="M656.49,386.4c0-3.73,4.35-5.25,8.14-5.25s10,4.1,10,9.33c0,5.64-4.5,6.38-8.29,6.38S656.49,391.15,656.49,386.4Z"/><path class="cls-5" d="M827.46,432.52H608.54v13.89H832a4.68,4.68,0,0,0,4.68-4.68h0A9.21,9.21,0,0,0,827.46,432.52Z"/><path class="cls-5" d="M757.2,382.51c-.08-.29-7.93-29.44-13-38.49S733,333.33,732.95,333.31l.27-1c.27.07,6.65,1.9,11.87,11.2s12.78,37.53,13.1,38.73Z"/><path class="cls-5" d="M780.83,433c-5.93,0-7.4-2.6-7.46-2.71l0-.08-12.47-36.87,1-.33,12.45,36.82c.17.24,1.61,2.14,6.54,2.14Z"/><path class="cls-9" d="M934.56,358.81a5.05,5.05,0,0,1-2.56-.66c-3.92-2.26-3.81-9.54.25-16.56a22,22,0,0,1,6.87-7.55c2.76-1.75,5.37-2.08,7.34-.94,3.92,2.26,3.81,9.54-.25,16.56C943,355.29,938.3,358.81,934.56,358.81Zm9.34-24.3a7.14,7.14,0,0,0-3.67,1.28,19.87,19.87,0,0,0-6.19,6.84c-3.36,5.82-3.82,12.11-1,13.74s8-1.92,11.39-7.74,3.82-12.11,1-13.74A3,3,0,0,0,943.9,334.51Z"/><path class="cls-3" d="M813.74,134.08c-10.51-.31-18.48-1.38-24.53-8.42l-18.71-21.79-5.44-6.35-32-37.3,16.82,43.62L760,130l3.19,8.29c2.17,5.62-.7,8.25-2.72,14.83-.82,2.67-6.34,19.08,8,19.18C786.38,172.45,809,151.83,814,134A1.22,1.22,0,0,1,813.74,134.08Z"/><path class="cls-5" d="M775.71,89.87S811,56.31,790.63,28s-25.42,45.46-25.42,45.46l5.68,17.06Z"/><path class="cls-5" d="M770.33,103.12c.07.25.13.5.18.75,3.27,14.71-10.43,26.2-10.43,26.2L760,130l-10.1-26.18c4.29-3.18,10.61-7,15.2-6.32C767.46,97.9,769.39,99.52,770.33,103.12Z"/><ellipse class="cls-3" cx="735.07" cy="72.95" rx="41.15" ry="49.62" transform="translate(10.45 216.41) rotate(-16.87)"/><path class="cls-5" d="M767,57.22s-11.23,8.09-20.64,1.25-16.07-13.31-37.14-2.81-44.14,5.79-48.4-6,5.78-20.88,19-20.3-2.8-6.6,6.41-19,32.56.38,44.14-5.79S783.21-7,790.63,28Z"/><ellipse class="cls-3" cx="769.12" cy="59.85" rx="8.95" ry="8" transform="matrix(0.55, -0.84, 0.84, 0.55, 297.99, 670.72)"/><path class="cls-10" d="M684.1,45.53a9.24,9.24,0,0,1-2.26-.27c-4.74-1.19-6.07-3.65-5.74-5.55.38-2.19,3.07-4.29,7.29-3.86,6.28.63,9.72-1.46,9.76-1.48l.82,1.3c-.15.1-3.87,2.4-10.73,1.71-3.13-.32-5.36,1.1-5.62,2.6s1.49,3,4.6,3.8c8.11,2,22.13-10.45,22.27-10.58l1,1.14C705,34.83,693,45.53,684.1,45.53Z"/><path class="cls-10" d="M720.5,16.23c-8.55,0-16.23-3.66-16.9-4.43l1.16-1-.58.51.54-.55c.78.66,13.32,6.66,24,2.5a94.08,94.08,0,0,0,9.78-4.63c6.23-3.26,11.62-6.08,17.76-4.9L756,5.23C750.4,4.15,745.23,6.85,739.26,10a95.11,95.11,0,0,1-9.93,4.7A24.35,24.35,0,0,1,720.5,16.23Z"/><path class="cls-10" d="M780,26.17c-2.26,0-6.46-3.5-7.55-5.71-.8-1.62,0-2.37.42-2.61,3.08-1.92,7.55,4.09,8.41,5.31l.08.11,0,.13c.5,1.87-.29,2.47-.81,2.67A1.65,1.65,0,0,1,780,26.17ZM774.17,19a1,1,0,0,0-.52.14c-.07.14.07,1,1.63,2.54,2.08,2.09,4.24,3.1,4.72,3a2.86,2.86,0,0,0-.09-.71C778.35,21.74,775.69,19,774.17,19Z"/><path class="cls-5" d="M1022.91,510.89a17.21,17.21,0,0,1-8.67-2.3,18.06,18.06,0,0,1-8.62-12.64,24.24,24.24,0,0,1,3-16.53c6.19-10.73,18.78-15.11,28-9.75s11.77,18.44,5.58,29.17a24.25,24.25,0,0,1-12.79,10.89A19.82,19.82,0,0,1,1022.91,510.89Zm5.13-41.44c-6.65,0-13.57,4-17.59,11a22.19,22.19,0,0,0-2.8,15.11,15.56,15.56,0,0,0,21.15,12.21,22.19,22.19,0,0,0,11.69-10c5.62-9.74,3.46-21.56-4.82-26.34A15.17,15.17,0,0,0,1028,469.45Z"/><path class="cls-11" d="M727.17,74.24a.83.83,0,0,1-.29-1.55,9,9,0,0,1,11,1,.84.84,0,0,1,.12,1.17.92.92,0,0,1-1.18.12,14.28,14.28,0,0,0-9.15-.86A.82.82,0,0,1,727.17,74.24Z"/><ellipse class="cls-11" cx="732.29" cy="82.91" rx="2.62" ry="3.6" transform="translate(-3.9 116.71) rotate(-9.09)"/><path class="cls-11" d="M698,84.71a.61.61,0,0,1-.58-.19,1,1,0,0,1-.17-1.16,5.85,5.85,0,0,1,8.15-2.63,1,1,0,0,1,.5,1.06.62.62,0,0,1-.79.49,8.75,8.75,0,0,0-6.77,2.17A.55.55,0,0,1,698,84.71Z"/><ellipse class="cls-11" cx="706.26" cy="90.73" rx="2.62" ry="3.6" transform="translate(56.57 382.17) rotate(-31.48)"/><path class="cls-7" d="M732.35,110.26a23.06,23.06,0,0,1-5-.52.58.58,0,1,1,.29-1.13c.57.15,14.15,3.43,20.83-8.26a.58.58,0,1,1,1,.58C744.94,108.8,737.37,110.26,732.35,110.26Z"/><path class="cls-7" d="M750.62,103a.58.58,0,0,1-.55-.4c-.27-.8-1.06-2-3.31-3.31l-.17-.1a.58.58,0,0,1,.64-1l.1.06c2.07,1.18,3.36,2.51,3.84,4a.58.58,0,0,1-.37.74A.57.57,0,0,1,750.62,103Z"/><path class="cls-5" d="M760.52,192.07l-.07-2.58c45.93-1.31,62.49-40.68,62.65-41.08l2.39,1A72,72,0,0,1,811,170.24C801.72,179.81,785.38,191.37,760.52,192.07Z"/><path class="cls-5" d="M782.39,214.12,781,211.93c.24-.15,23.67-15,26.7-41.64l2.56.29C807.12,198.46,782.64,214,782.39,214.12Z"/><rect class="cls-5" x="666.02" y="239.3" width="29.95" height="2.58" transform="translate(238.15 811.13) rotate(-71.64)"/><path class="cls-10" d="M703.8,117.47a12.88,12.88,0,0,1-1.71-.12c-6.18-.83-12.59-6-17.17-13.85-7.45-12.76-7.78-28.77-.74-35.67a11.17,11.17,0,0,1,9.63-3.15c6.18.83,12.59,6,17.17,13.85,7.45,12.76,7.78,28.77.74,35.67A11.06,11.06,0,0,1,703.8,117.47ZM692.11,66.3a9.39,9.39,0,0,0-6.73,2.77c-6.51,6.39-6,21.44,1,33.57,4.31,7.39,10.25,12.25,15.9,13A9.5,9.5,0,0,0,710.5,113c6.51-6.39,6-21.44-1-33.57h0c-4.31-7.39-10.25-12.25-15.9-13A10.87,10.87,0,0,0,692.11,66.3Z"/><g class="cls-12"><path class="cls-10" d="M752.89,59.78c6,12.69,4.36,28.14-3.72,34.49S729.65,95.5,723.62,82.8s-4.36-28.14,3.72-34.49S746.86,47.09,752.89,59.78Z"/></g><g class="cls-12"><path class="cls-10" d="M711.58,79.55c6,12.75,5.23,28.23-1.83,34.56s-17.68,1.13-23.73-11.62-5.23-28.23,1.83-34.56S705.53,66.8,711.58,79.55Z"/></g><path class="cls-10" d="M740.12,97.69a15.44,15.44,0,0,1-3.55-.43c-6.46-1.53-12.34-6.93-16.12-14.81-6.51-13.55-4.54-30.19,4.39-37.1a14.19,14.19,0,0,1,12.33-2.65c6.46,1.53,12.34,6.93,16.12,14.81h0c6.51,13.55,4.54,30.19-4.39,37.1A14.15,14.15,0,0,1,740.12,97.69ZM733.62,44a12.47,12.47,0,0,0-7.73,2.71c-8.32,6.43-10.06,22.12-3.89,35,3.51,7.3,9.1,12.48,15,13.87a12.52,12.52,0,0,0,10.87-2.33c8.32-6.43,10.06-22.13,3.89-35h0c-3.51-7.3-9.1-12.48-15-13.87A13.58,13.58,0,0,0,733.62,44Z"/><path class="cls-10" d="M710.55,85a1.61,1.61,0,0,1-1.28-2.6c.17-.23,4.38-5.54,13.34-5.76a1.62,1.62,0,0,1,.08,3.23c-7.35.18-10.73,4.34-10.87,4.52A1.62,1.62,0,0,1,710.55,85Z"/><path class="cls-4" d="M590.43,322.32a1.67,1.67,0,0,1-1.32-.64c-2-2.6-4.16-5.19-6.31-7.68a1.67,1.67,0,1,1,2.53-2.18c2.18,2.54,4.34,5.16,6.41,7.8a1.67,1.67,0,0,1-1.31,2.7Z"/><path class="cls-4" d="M361.91,1068.1a1.67,1.67,0,0,1,0-3.34c6.52-.06,13.2-.24,19.85-.52a1.67,1.67,0,0,1,.14,3.34c-6.69.28-13.4.46-20,.52ZM342,1068h0c-6.7-.17-13.41-.45-20-.86a1.67,1.67,0,0,1,.2-3.33c6.51.4,13.18.69,19.84.85a1.67,1.67,0,0,1,0,3.34Zm59.69-1.52a1.67,1.67,0,0,1-.12-3.34c6.52-.47,13.18-1.06,19.79-1.73a1.67,1.67,0,0,1,.34,3.32c-6.64.68-13.33,1.26-19.88,1.74Zm-99.44-.94h-.17c-6.67-.67-13.34-1.48-19.84-2.4a1.67,1.67,0,1,1,.47-3.31c6.45.92,13.08,1.72,19.7,2.39a1.67,1.67,0,0,1-.16,3.33Zm139.05-3.1a1.67,1.67,0,0,1-.21-3.33c6.48-.84,13.1-1.79,19.67-2.82a1.67,1.67,0,0,1,.52,3.3c-6.6,1-13.24,2-19.76,2.83Zm-178.47-2.53-.31,0c-6.59-1.24-13.17-2.63-19.56-4.13a1.67,1.67,0,0,1,.77-3.25c6.34,1.5,12.87,2.88,19.4,4.1a1.67,1.67,0,0,1-.31,3.31Zm217.82-3.62a1.67,1.67,0,0,1-.3-3.31c6.45-1.18,13-2.46,19.51-3.81a1.67,1.67,0,0,1,.68,3.27c-6.52,1.35-13.11,2.64-19.59,3.82ZM224.1,1050.7a1.66,1.66,0,0,1-.46-.07c-6.43-1.86-12.84-3.89-19.06-6a1.67,1.67,0,1,1,1.09-3.16c6.16,2.13,12.52,4.14,18.9,6a1.67,1.67,0,0,1-.46,3.28Zm295.55-2.55a1.67,1.67,0,0,1-.38-3.3c6.4-1.49,12.9-3.07,19.31-4.71a1.67,1.67,0,0,1,.83,3.24c-6.43,1.65-13,3.24-19.38,4.73A1.68,1.68,0,0,1,519.65,1048.16Zm38.59-9.88a1.67,1.67,0,0,1-.45-3.28c6.36-1.78,12.78-3.66,19.08-5.58a1.67,1.67,0,0,1,1,3.2c-6.32,1.93-12.77,3.81-19.15,5.6A1.67,1.67,0,0,1,558.24,1038.28Zm-371.75-.6a1.67,1.67,0,0,1-.63-.12c-6.19-2.52-12.34-5.24-18.3-8.07a1.67,1.67,0,0,1,1.44-3c5.9,2.81,12,5.5,18.13,8a1.67,1.67,0,0,1-.63,3.22Zm409.86-11a1.67,1.67,0,0,1-.52-3.26c6.37-2.1,12.69-4.28,18.8-6.46a1.67,1.67,0,0,1,1.13,3.15c-6.13,2.19-12.49,4.38-18.88,6.49A1.67,1.67,0,0,1,596.35,1026.66Zm-445.79-6.09a1.66,1.66,0,0,1-.8-.21c-5.84-3.21-11.64-6.63-17.24-10.16a1.67,1.67,0,0,1,1.78-2.83c5.54,3.49,11.28,6.88,17.06,10.05a1.67,1.67,0,0,1-.81,3.13ZM116.9,999.35a1.66,1.66,0,0,1-1-.31c-5.39-3.87-10.73-8-15.87-12.17a1.67,1.67,0,1,1,2.11-2.59c5.09,4.16,10.38,8.21,15.71,12a1.67,1.67,0,0,1-1,3ZM86.09,974.19a1.66,1.66,0,0,1-1.13-.44q-1.88-1.73-3.74-3.51c-3.62-3.45-7.17-7-10.54-10.5a1.67,1.67,0,1,1,2.41-2.31c3.34,3.48,6.85,7,10.44,10.4q1.84,1.75,3.7,3.47a1.67,1.67,0,0,1-1.13,2.9ZM58.57,945.46a1.67,1.67,0,0,1-1.28-.59c-4.33-5.15-8.49-10.45-12.35-15.76a1.67,1.67,0,1,1,2.7-2c3.81,5.24,7.92,10.48,12.2,15.57a1.67,1.67,0,0,1-1.28,2.75ZM35.21,913.27a1.67,1.67,0,0,1-1.42-.79C30.26,906.75,27,900.88,24,895a1.67,1.67,0,1,1,3-1.51c2.94,5.79,6.2,11.59,9.68,17.23a1.67,1.67,0,0,1-1.42,2.55Zm-18-35.46a1.67,1.67,0,0,1-1.55-1c-2.51-6.22-4.74-12.58-6.65-18.91a1.67,1.67,0,0,1,3.2-1c1.88,6.24,4.08,12.5,6.55,18.63a1.67,1.67,0,0,1-1.55,2.3ZM5.78,839.74a1.67,1.67,0,0,1-1.64-1.34c-1.32-6.54-2.33-13.21-3-19.83a1.67,1.67,0,1,1,3.32-.35c.68,6.51,1.68,13.08,3,19.51a1.67,1.67,0,0,1-1.31,2A1.7,1.7,0,0,1,5.78,839.74ZM1.68,800.2A1.67,1.67,0,0,1,0,798.54q0-.89,0-1.77c0-6.06.26-12.2.79-18.27a1.67,1.67,0,1,1,3.33.29c-.51,6-.77,12-.77,18q0,.87,0,1.74a1.67,1.67,0,0,1-1.66,1.68Zm3.39-39.61-.3,0a1.67,1.67,0,0,1-1.35-1.94c1.18-6.53,2.67-13.11,4.44-19.55a1.67,1.67,0,0,1,3.22.89c-1.75,6.35-3.22,12.83-4.38,19.26A1.67,1.67,0,0,1,5.07,760.59Zm141.11-.1a112,112,0,0,1-13.77-.86,1.67,1.67,0,0,1,.41-3.32,107.54,107.54,0,0,0,19.56.65,1.67,1.67,0,0,1,.2,3.34C150.47,760.43,148.32,760.5,146.19,760.5Zm25.94-3.3a1.67,1.67,0,0,1-.43-3.29,86.84,86.84,0,0,0,18.18-7,1.67,1.67,0,1,1,1.55,3,90.22,90.22,0,0,1-18.88,7.3A1.67,1.67,0,0,1,172.12,757.19Zm-58.94-1.71a1.67,1.67,0,0,1-.49-.07A121.73,121.73,0,0,1,94,747.92a1.67,1.67,0,1,1,1.49-3,118.4,118.4,0,0,0,18.2,7.29,1.67,1.67,0,0,1-.49,3.27Zm93.72-16.85a1.67,1.67,0,0,1-1.13-2.9,64.72,64.72,0,0,0,12.11-15.06,1.67,1.67,0,1,1,2.89,1.67A68.08,68.08,0,0,1,208,738.19,1.67,1.67,0,0,1,206.9,738.63Zm-129.19-.82a1.66,1.66,0,0,1-1-.31,135.08,135.08,0,0,1-15.42-12.94,1.67,1.67,0,0,1,2.33-2.39,131.63,131.63,0,0,0,15,12.62,1.67,1.67,0,0,1-1,3ZM15.6,722.25A1.67,1.67,0,0,1,14,720c2.32-6.22,4.95-12.44,7.81-18.46a1.67,1.67,0,0,1,3,1.43c-2.82,5.94-5.42,12.06-7.7,18.2A1.67,1.67,0,0,1,15.6,722.25Zm33.64-12a1.67,1.67,0,0,1-1.32-.65,161.18,161.18,0,0,1-11.29-16.62,1.67,1.67,0,0,1,2.87-1.7,157.7,157.7,0,0,0,11.05,16.27,1.67,1.67,0,0,1-1.32,2.7Zm177.22-5.5a1.67,1.67,0,0,1-1.63-2,68.65,68.65,0,0,0,1.54-14.6c0-1.56,0-3.15-.15-4.72a1.67,1.67,0,1,1,3.33-.21c.1,1.64.16,3.3.16,4.93a72,72,0,0,1-1.61,15.31A1.67,1.67,0,0,1,226.47,704.7ZM32.68,686.33a1.67,1.67,0,0,1-1.44-2.52c3.38-5.77,7-11.43,10.9-16.84a1.67,1.67,0,1,1,2.72,1.94c-3.79,5.32-7.4,10.9-10.74,16.59A1.67,1.67,0,0,1,32.68,686.33ZM28.93,676.1a1.67,1.67,0,0,1-1.52-1c-2.68-5.94-5.14-12.23-7.31-18.67a1.67,1.67,0,1,1,3.17-1.07c2.13,6.34,4.55,12.52,7.19,18.37a1.67,1.67,0,0,1-1.52,2.36Zm195.46-10.74a1.67,1.67,0,0,1-1.6-1.2q-.29-1-.61-2a139.89,139.89,0,0,0-6.23-16.37,1.67,1.67,0,1,1,3-1.39,143,143,0,0,1,6.38,16.77q.33,1.06.64,2.1a1.67,1.67,0,0,1-1.6,2.14ZM55.77,653.94a1.67,1.67,0,0,1-1.27-2.76c4.41-5.13,9.05-10,13.8-14.57A1.67,1.67,0,1,1,70.61,639c-4.67,4.47-9.24,9.29-13.58,14.33A1.67,1.67,0,0,1,55.77,653.94ZM16.17,638.47a1.67,1.67,0,0,1-1.62-1.28c-1.53-6.32-2.87-12.92-4-19.62a1.67,1.67,0,1,1,3.3-.54c1.08,6.62,2.4,13.14,3.91,19.37a1.67,1.67,0,0,1-1.23,2A1.69,1.69,0,0,1,16.17,638.47Zm191.41-9a1.67,1.67,0,0,1-1.36-.7,76,76,0,0,0-13.14-14.3,1.67,1.67,0,1,1,2.14-2.57,79.34,79.34,0,0,1,13.72,14.92,1.67,1.67,0,0,1-1.36,2.64Zm-123-3a1.67,1.67,0,0,1-1-3,159.84,159.84,0,0,1,16.69-11.23,1.67,1.67,0,1,1,1.68,2.89,156.34,156.34,0,0,0-16.33,11A1.66,1.66,0,0,1,84.56,626.52ZM119,606.71a1.67,1.67,0,0,1-.61-3.23,103.19,103.19,0,0,1,19.42-5.55,1.67,1.67,0,0,1,.59,3.29,99.8,99.8,0,0,0-18.79,5.38A1.67,1.67,0,0,1,119,606.71Zm58.22-2.06a1.67,1.67,0,0,1-.62-.12,63.27,63.27,0,0,0-18.81-4.36,1.67,1.67,0,1,1,.26-3.33,66.63,66.63,0,0,1,19.8,4.6,1.67,1.67,0,0,1-.63,3.22ZM9.7,599.25A1.67,1.67,0,0,1,8,597.73c-.62-6.47-1.06-13.19-1.3-19.95a1.67,1.67,0,0,1,3.34-.12c.24,6.7.68,13.34,1.29,19.75a1.67,1.67,0,0,1-1.5,1.82ZM8.22,559.5h0a1.67,1.67,0,0,1-1.64-1.7c.1-6.5.37-13.22.79-20a1.67,1.67,0,1,1,3.33.21c-.42,6.7-.68,13.37-.78,19.81A1.67,1.67,0,0,1,8.22,559.5Zm2.46-39.73H10.5A1.67,1.67,0,0,1,9,517.92c.71-6.66,1.6-13.32,2.63-19.81a1.67,1.67,0,1,1,3.3.53c-1,6.43-1.91,13-2.61,19.64A1.67,1.67,0,0,1,10.68,519.76ZM17,480.49a1.67,1.67,0,0,1-1.63-2c1.41-6.53,3-13.06,4.77-19.41a1.67,1.67,0,1,1,3.22.89c-1.74,6.28-3.33,12.75-4.72,19.22A1.67,1.67,0,0,1,17,480.49Zm10.6-38.32A1.67,1.67,0,0,1,26,440c2.15-6.31,4.52-12.61,7-18.72a1.67,1.67,0,1,1,3.09,1.27c-2.48,6-4.82,12.28-7,18.52A1.67,1.67,0,0,1,27.56,442.17ZM42.68,405.4a1.67,1.67,0,0,1-1.5-2.4c2.91-6,6-11.94,9.31-17.7a1.67,1.67,0,0,1,2.91,1.65c-3.23,5.69-6.34,11.58-9.22,17.51A1.67,1.67,0,0,1,42.68,405.4Zm19.65-34.57a1.67,1.67,0,0,1-1.39-2.59c3.64-5.55,7.52-11,11.52-16.35a1.67,1.67,0,0,1,2.67,2c-4,5.24-7.79,10.68-11.4,16.17A1.67,1.67,0,0,1,62.33,370.83Zm24-31.74A1.67,1.67,0,0,1,85,336.32c4.33-5,8.89-10,13.54-14.72a1.67,1.67,0,0,1,2.38,2.34c-4.61,4.7-9.11,9.6-13.4,14.56A1.67,1.67,0,0,1,86.28,339.09Zm27.85-28.39a1.67,1.67,0,0,1-1.12-2.91c4.91-4.41,10.05-8.74,15.27-12.87a1.67,1.67,0,0,1,2.07,2.62c-5.17,4.09-10.25,8.37-15.11,12.74A1.66,1.66,0,0,1,114.13,310.69Zm456.29-10.61a1.67,1.67,0,0,1-1.16-.47c-4.66-4.54-9.62-9-14.73-13.16a1.67,1.67,0,1,1,2.12-2.58c5.18,4.25,10.21,8.74,14.94,13.34a1.67,1.67,0,0,1-1.16,2.87ZM145.28,286a1.67,1.67,0,0,1-1-3c5.42-3.78,11.05-7.45,16.73-10.93a1.67,1.67,0,1,1,1.74,2.85c-5.62,3.44-11.2,7.08-16.57,10.82A1.66,1.66,0,0,1,145.28,286ZM539.7,274.86a1.66,1.66,0,0,1-1-.3c-5.34-3.7-10.95-7.28-16.66-10.63a1.67,1.67,0,1,1,1.69-2.88c5.79,3.39,11.46,7,16.88,10.77a1.67,1.67,0,0,1-1,3Zm-360.5-9.57a1.67,1.67,0,0,1-.79-3.14c5.82-3.11,11.84-6.11,17.89-8.92a1.67,1.67,0,0,1,1.41,3c-6,2.78-12,5.75-17.72,8.83A1.66,1.66,0,0,1,179.2,265.28Zm326.22-10.55a1.66,1.66,0,0,1-.74-.17c-5.84-2.88-11.9-5.61-18-8.13a1.67,1.67,0,0,1,1.27-3.09c6.2,2.54,12.33,5.31,18.24,8.22a1.67,1.67,0,0,1-.74,3.17Zm-290.14-6.2a1.67,1.67,0,0,1-.62-3.22c6.14-2.45,12.46-4.77,18.76-6.89a1.67,1.67,0,0,1,1.07,3.17c-6.25,2.11-12.51,4.4-18.59,6.83A1.67,1.67,0,0,1,215.28,248.54Zm253.37-8.93a1.66,1.66,0,0,1-.53-.09c-6.18-2.08-12.55-4-18.94-5.74a1.67,1.67,0,0,1,.87-3.23c6.46,1.74,12.89,3.69,19.14,5.8a1.67,1.67,0,0,1-.53,3.25ZM253,235.83a1.67,1.67,0,0,1-.45-3.28c6.37-1.78,12.89-3.41,19.38-4.86a1.67,1.67,0,1,1,.73,3.26c-6.44,1.44-12.9,3.06-19.22,4.82A1.66,1.66,0,0,1,253,235.83Zm177.28-6.6a1.68,1.68,0,0,1-.34,0c-6.4-1.33-13-2.5-19.5-3.47a1.67,1.67,0,1,1,.49-3.3c6.6,1,13.22,2.16,19.68,3.5a1.67,1.67,0,0,1-.34,3.31ZM291.8,227.17a1.67,1.67,0,0,1-.28-3.32c6.53-1.11,13.19-2.06,19.78-2.83a1.67,1.67,0,0,1,.39,3.32c-6.53.76-13.13,1.71-19.61,2.8Zm99.12-3.81h-.16c-6.53-.61-13.18-1-19.77-1.31a1.67,1.67,0,0,1,.13-3.34c6.65.26,13.36.71,19.94,1.32a1.67,1.67,0,0,1-.15,3.33Zm-59.62-.8a1.67,1.67,0,0,1-.11-3.34c6.62-.43,13.34-.69,20-.78h0a1.67,1.67,0,0,1,0,3.34c-6.56.09-13.22.34-19.78.77Z"/><path class="cls-4" d="M634.61,1012.91a1.67,1.67,0,0,1-.61-3.22c5.93-2.34,9.19-3.75,9.22-3.76a1.67,1.67,0,0,1,1.33,3.06s-3.33,1.45-9.33,3.81A1.67,1.67,0,0,1,634.61,1012.91Z"/><path class="cls-5" d="M726.86,303.79a1.67,1.67,0,0,1-1.63-2c.74-3.26,1.64-6.56,2.69-9.81a1.67,1.67,0,1,1,3.18,1c-1,3.15-1.89,6.35-2.61,9.51A1.67,1.67,0,0,1,726.86,303.79Z"/><path class="cls-5" d="M1175.25,775.36a1.67,1.67,0,0,1-.59-3.23,144.14,144.14,0,0,0,17.77-8.21,1.67,1.67,0,0,1,1.6,2.93,147.54,147.54,0,0,1-18.19,8.4A1.67,1.67,0,0,1,1175.25,775.36ZM1210,756.52a1.67,1.67,0,0,1-1-3,160.85,160.85,0,0,0,15.2-12.37,1.67,1.67,0,0,1,2.26,2.46A164.26,164.26,0,0,1,1211,756.21,1.66,1.66,0,0,1,1210,756.52Zm29-26.8a1.67,1.67,0,0,1-1.28-2.75,150.15,150.15,0,0,0,11.61-15.76,1.67,1.67,0,1,1,2.81,1.8,153.29,153.29,0,0,1-11.87,16.11A1.67,1.67,0,0,1,1239,729.72Zm21.26-33.28a1.67,1.67,0,0,1-1.51-2.37,146.45,146.45,0,0,0,7-18.25,1.67,1.67,0,0,1,3.19,1,149.9,149.9,0,0,1-7.19,18.67A1.67,1.67,0,0,1,1260.31,696.44Zm11.72-37.7-.29,0a1.67,1.67,0,0,1-1.36-1.93,162.91,162.91,0,0,0,2.15-19.46,1.67,1.67,0,1,1,3.34.17,166,166,0,0,1-2.2,19.86A1.67,1.67,0,0,1,1272,658.74Zm2.07-39.45a1.67,1.67,0,0,1-1.67-1.57c-.37-6.37-1.09-12.94-2.12-19.52a1.67,1.67,0,0,1,3.3-.52c1.05,6.69,1.78,13.37,2.16,19.85a1.67,1.67,0,0,1-1.57,1.77ZM1268,580.19a1.67,1.67,0,0,1-1.62-1.27c-1.52-6.2-3.35-12.56-5.42-18.92a1.67,1.67,0,0,1,3.18-1c2.1,6.43,3.95,12.88,5.49,19.16a1.67,1.67,0,0,1-1.22,2A1.69,1.69,0,0,1,1268,580.19Zm-12-37.73a1.67,1.67,0,0,1-1.59-1.15,190.73,190.73,0,0,1-5.22-19.28,1.67,1.67,0,0,1,3.27-.7,187.25,187.25,0,0,0,5.13,18.94,1.67,1.67,0,0,1-1.59,2.19Zm-8.25-38.67a1.67,1.67,0,0,1-1.66-1.5c-.57-5.71-.86-11.49-.86-17.18q0-1.4,0-2.79a1.67,1.67,0,0,1,1.67-1.64h0a1.67,1.67,0,0,1,1.64,1.7q0,1.36,0,2.73c0,5.58.28,11.25.84,16.85a1.67,1.67,0,0,1-1.5,1.83Zm.67-39.5-.23,0a1.67,1.67,0,0,1-1.43-1.88,168.9,168.9,0,0,1,3.85-19.61,1.67,1.67,0,0,1,3.23.84,165.22,165.22,0,0,0-3.78,19.22A1.67,1.67,0,0,1,1248.47,464.29Zm138.45-2.56a1.67,1.67,0,0,1,0-3.34,153.91,153.91,0,0,0,19.52-1.55,1.67,1.67,0,1,1,.48,3.31,157.25,157.25,0,0,1-19.95,1.59Zm-19.78-.8H1367a190.77,190.77,0,0,1-19.76-3,1.67,1.67,0,1,1,.67-3.27,187.5,187.5,0,0,0,19.41,2.92,1.67,1.67,0,0,1-.16,3.33Zm58.83-5.06a1.67,1.67,0,0,1-.49-3.27,97.38,97.38,0,0,0,18-7.46,1.67,1.67,0,0,1,1.6,2.93,100.73,100.73,0,0,1-18.57,7.72A1.67,1.67,0,0,1,1426,455.86ZM1328.38,453a1.67,1.67,0,0,1-.5-.08c-6.32-2-12.62-4.28-18.75-6.87a1.67,1.67,0,0,1,1.3-3.08c6,2.55,12.22,4.82,18.44,6.76a1.67,1.67,0,0,1-.5,3.27Zm-36.43-15.4a1.66,1.66,0,0,1-.8-.2c-5.82-3.16-11.56-6.64-17.06-10.35a1.67,1.67,0,1,1,1.87-2.77c5.41,3.65,11.06,7.08,16.79,10.19a1.67,1.67,0,0,1-.8,3.14Zm168.2-1a1.67,1.67,0,0,1-1.18-2.85,46.86,46.86,0,0,0,10.6-15.74,1.67,1.67,0,1,1,3.1,1.24,50.16,50.16,0,0,1-11.34,16.87A1.67,1.67,0,0,1,1460.15,436.6ZM1258.37,426a1.67,1.67,0,0,1-1.56-2.28,171.44,171.44,0,0,1,8.34-18.17,1.67,1.67,0,1,1,2.95,1.57,168.21,168.21,0,0,0-8.17,17.81A1.67,1.67,0,0,1,1258.37,426Zm.78-10.5a1.66,1.66,0,0,1-1.06-.38c-5.1-4.19-10.08-8.69-14.8-13.38a1.67,1.67,0,1,1,2.35-2.37c4.65,4.61,9.55,9,14.57,13.17a1.67,1.67,0,0,1-1.06,3Zm214.92-14.64a1.67,1.67,0,0,1-1.66-1.55,56.7,56.7,0,0,0-4.76-18.54,1.67,1.67,0,1,1,3.06-1.33,60,60,0,0,1,5,19.64,1.67,1.67,0,0,1-1.55,1.78Zm-197.15-9.77a1.67,1.67,0,0,1-1.37-2.62,171.89,171.89,0,0,1,12.31-15.76,1.67,1.67,0,0,1,2.51,2.21,168.47,168.47,0,0,0-12.07,15.45A1.67,1.67,0,0,1,1276.92,391.13Zm-45.86-3.43a1.67,1.67,0,0,1-1.28-.6c-4.23-5-8.32-10.35-12.15-15.81a1.67,1.67,0,1,1,2.73-1.92c3.78,5.38,7.81,10.62,12,15.58a1.67,1.67,0,0,1-1.28,2.75Zm228.2-23a1.67,1.67,0,0,1-1.36-.69,102.1,102.1,0,0,0-12.78-14.67,1.67,1.67,0,1,1,2.29-2.43,105.42,105.42,0,0,1,13.2,15.15,1.67,1.67,0,0,1-1.35,2.65Zm-156.21-3.23a1.67,1.67,0,0,1-1.11-2.92,159.29,159.29,0,0,1,15.72-12.37,1.67,1.67,0,1,1,1.89,2.75A156,156,0,0,0,1304.16,361,1.66,1.66,0,0,1,1303.05,361.47Zm-94.74-6.13a1.67,1.67,0,0,1-1.44-.83c-3.3-5.65-6.45-11.56-9.37-17.58a1.67,1.67,0,1,1,3-1.46c2.88,5.94,6,11.78,9.24,17.35a1.67,1.67,0,0,1-1.44,2.51Zm127.32-16.21a1.67,1.67,0,0,1-.75-3.16,131.28,131.28,0,0,1,18.53-7.64,1.67,1.67,0,0,1,1,3.18,127.88,127.88,0,0,0-18.06,7.44A1.67,1.67,0,0,1,1335.63,339.13Zm94.85-1.23a1.66,1.66,0,0,1-.85-.23,81.9,81.9,0,0,0-17.73-7.79,1.67,1.67,0,0,1,1-3.2,85.29,85.29,0,0,1,18.45,8.11,1.67,1.67,0,0,1-.85,3.11Zm-57.29-10.75a1.67,1.67,0,0,1-.22-3.33,99.43,99.43,0,0,1,20.09-.74,1.67,1.67,0,0,1-.23,3.33,96,96,0,0,0-19.42.72ZM1191,319.75a1.67,1.67,0,0,1-1.55-1.06c-2.41-6.06-4.66-12.37-6.7-18.74a1.67,1.67,0,1,1,3.18-1c2,6.3,4.25,12.54,6.63,18.53a1.67,1.67,0,0,1-1.55,2.29Zm-12.94-37.42a1.67,1.67,0,0,1-1.56-1.08c-2.34-6.19-5-12.25-7.77-18a1.67,1.67,0,1,1,3-1.46c2.86,5.87,5.52,12,7.89,18.32a1.67,1.67,0,0,1-1.56,2.26Zm-441-6.47a1.67,1.67,0,0,1-1.48-2.43A144.52,144.52,0,0,1,746,256.32a1.67,1.67,0,1,1,2.73,1.92A141.18,141.18,0,0,0,738.61,275,1.67,1.67,0,0,1,737.12,275.87Zm423.62-29a1.67,1.67,0,0,1-1.42-.79,185.9,185.9,0,0,0-11.17-16.12,1.67,1.67,0,0,1,2.64-2,189.6,189.6,0,0,1,11.37,16.41,1.67,1.67,0,0,1-1.42,2.55Zm-401-3.33a1.67,1.67,0,0,1-1.24-2.79,198.65,198.65,0,0,1,14.09-14.15,1.67,1.67,0,1,1,2.25,2.47A195.38,195.38,0,0,0,761,242.94,1.67,1.67,0,0,1,759.75,243.49ZM789,216.8a1.67,1.67,0,0,1-1-3c5.17-3.94,10.66-7.78,16.33-11.44a1.67,1.67,0,0,1,1.81,2.81c-5.59,3.61-11,7.41-16.12,11.29A1.66,1.66,0,0,1,789,216.8Zm347.55-1.19a1.67,1.67,0,0,1-1.2-.51,178.11,178.11,0,0,0-14.39-13.31,1.67,1.67,0,0,1,2.13-2.57,181.73,181.73,0,0,1,14.66,13.56,1.67,1.67,0,0,1-1.2,2.83Zm-314.3-20.3a1.67,1.67,0,0,1-.81-3.13c5.74-3.15,11.71-6.18,17.77-9a1.67,1.67,0,1,1,1.41,3c-6,2.8-11.9,5.79-17.57,8.91A1.66,1.66,0,0,1,822.2,195.31Zm283.86-4.9a1.66,1.66,0,0,1-.92-.28,189.8,189.8,0,0,0-16.92-9.92,1.67,1.67,0,0,1,1.54-3,193,193,0,0,1,17.21,10.1,1.67,1.67,0,0,1-.92,3.06Zm-248-11.88a1.67,1.67,0,0,1-.61-3.22c6.12-2.41,12.42-4.68,18.73-6.74a1.67,1.67,0,1,1,1,3.17c-6.25,2-12.49,4.29-18.54,6.67A1.67,1.67,0,0,1,858.07,178.53ZM1071,172.16a1.67,1.67,0,0,1-.62-.12c-6-2.4-12.22-4.57-18.56-6.46a1.67,1.67,0,1,1,1-3.2c6.43,1.92,12.77,4.12,18.85,6.56a1.67,1.67,0,0,1-.62,3.22Zm-175.3-5.93a1.67,1.67,0,0,1-.42-3.29c6.4-1.68,12.93-3.2,19.39-4.5a1.67,1.67,0,1,1,.66,3.27c-6.4,1.29-12.86,2.79-19.2,4.46A1.67,1.67,0,0,1,895.7,166.22Zm137.39-5.42a1.68,1.68,0,0,1-.34,0c-6.31-1.31-12.84-2.41-19.41-3.25a1.67,1.67,0,0,1,.42-3.31c6.65.85,13.27,2,19.67,3.29a1.67,1.67,0,0,1-.34,3.31Zm-98.57-2.39a1.67,1.67,0,0,1-.23-3.32c6.59-.92,13.25-1.65,19.8-2.16a1.67,1.67,0,1,1,.26,3.33c-6.48.5-13.07,1.22-19.59,2.14Zm59.29-2.66h-.09c-6.47-.35-13.1-.48-19.69-.39a1.67,1.67,0,1,1,0-3.34c6.67-.09,13.37,0,19.92.4a1.67,1.67,0,0,1-.09,3.34Z"/><path class="cls-5" d="M1145.87,781.75a1.67,1.67,0,0,1,0-3.34,58.12,58.12,0,0,0,9.69-.9,1.67,1.67,0,1,1,.56,3.29A61.38,61.38,0,0,1,1145.87,781.75Z"/><path class="cls-13" d="M846.68,329.68h-.12c-3.29-.23-6.65-.44-10-.63a1.67,1.67,0,0,1-1.57-1.76,1.69,1.69,0,0,1,1.76-1.57c3.34.19,6.72.4,10,.63a1.67,1.67,0,0,1-.12,3.34Z"/><path class="cls-13" d="M1162.56,1284.31q-2.09,0-4.2,0a1.67,1.67,0,0,1,0-3.34h0c6.67.11,13.34,0,19.92-.48a1.67,1.67,0,1,1,.22,3.33C1173.28,1284.14,1167.89,1284.31,1162.56,1284.31Zm-24.2-1.18h-.16c-6.62-.64-13.36-1.56-20-2.73a1.67,1.67,0,0,1,.58-3.29c6.57,1.15,13.22,2.06,19.76,2.69a1.67,1.67,0,0,1-.16,3.33Zm60-1.48a1.67,1.67,0,0,1-.25-3.32c6.55-1,13.13-2.26,19.55-3.79a1.67,1.67,0,0,1,.77,3.25c-6.52,1.55-13.19,2.85-19.83,3.84Zm-99.59-5.21a1.69,1.69,0,0,1-.38,0c-6.57-1.51-13.13-3.21-19.51-5.06a1.67,1.67,0,1,1,.93-3.21c6.32,1.83,12.82,3.51,19.33,5a1.67,1.67,0,0,1-.37,3.3Zm138.59-4.08a1.67,1.67,0,0,1-.52-3.26c6.28-2.07,12.55-4.43,18.64-7a1.67,1.67,0,1,1,1.31,3.07c-6.18,2.63-12.54,5-18.91,7.12A1.68,1.68,0,0,1,1237.39,1272.37Zm-177.12-7.07a1.66,1.66,0,0,1-.55-.1c-6.34-2.23-12.67-4.67-18.82-7.24a1.67,1.67,0,0,1,1.29-3.08c6.08,2.55,12.35,5,18.63,7.17a1.67,1.67,0,0,1-.55,3.25Zm214-8.62a1.67,1.67,0,0,1-.78-3.15c5.84-3.08,11.64-6.44,17.24-10a1.67,1.67,0,1,1,1.79,2.82c-5.68,3.61-11.56,7-17.47,10.14A1.66,1.66,0,0,1,1274.29,1256.68Zm-251-6.89a1.66,1.66,0,0,1-.73-.17c-6-3-12-6.13-17.82-9.44a1.67,1.67,0,0,1,1.65-2.9c5.75,3.27,11.68,6.42,17.64,9.34a1.67,1.67,0,0,1-.74,3.17Zm284.85-14.62a1.67,1.67,0,0,1-1-3c5.27-4,10.46-8.22,15.42-12.62a1.67,1.67,0,1,1,2.22,2.5c-5,4.46-10.29,8.76-15.63,12.79A1.66,1.66,0,0,1,1308.13,1235.17Zm-319.71-5.23a1.66,1.66,0,0,1-.91-.27c-5.6-3.66-11.17-7.54-16.55-11.54a1.67,1.67,0,1,1,2-2.68c5.32,4,10.84,7.81,16.38,11.43a1.67,1.67,0,0,1-.92,3.07Zm349.72-21.35a1.67,1.67,0,0,1-1.2-2.83c4.6-4.76,9.06-9.76,13.28-14.87a1.67,1.67,0,1,1,2.58,2.13c-4.27,5.17-8.8,10.24-13.45,15.06A1.66,1.66,0,0,1,1338.13,1208.59ZM956.22,1206a1.66,1.66,0,0,1-1.08-.39c-5.11-4.31-10.17-8.84-15-13.46a1.67,1.67,0,0,1,2.3-2.42c4.82,4.58,9.82,9.06,14.88,13.33a1.67,1.67,0,0,1-1.08,2.95Zm-29.09-27.65a1.66,1.66,0,0,1-1.22-.53c-4.56-4.88-9.05-10-13.35-15.13a1.67,1.67,0,1,1,2.57-2.14c4.25,5.11,8.7,10.16,13.22,15a1.67,1.67,0,0,1-1.22,2.81Zm436.54-.67a1.67,1.67,0,0,1-1.37-2.63c3.82-5.44,7.46-11.08,10.82-16.76a1.67,1.67,0,1,1,2.88,1.7c-3.4,5.75-7.09,11.47-11,17A1.67,1.67,0,0,1,1363.66,1177.66Zm-462.21-30.19a1.67,1.67,0,0,1-1.34-.68c-4-5.39-7.86-11-11.53-16.56a1.67,1.67,0,1,1,2.79-1.83c3.63,5.55,7.48,11.07,11.42,16.4a1.67,1.67,0,0,1-1.34,2.66Zm482.61-4.36a1.67,1.67,0,0,1-1.5-2.4c2.92-6,5.6-12.14,8-18.27a1.67,1.67,0,0,1,3.12,1.21c-2.41,6.21-5.13,12.45-8.08,18.53A1.67,1.67,0,0,1,1384.06,1143.12Zm-504.61-29.24A1.67,1.67,0,0,1,878,1113c-3.39-5.89-6.61-11.87-9.55-17.79a1.67,1.67,0,1,1,3-1.49c2.92,5.86,6.1,11.79,9.46,17.62a1.67,1.67,0,0,1-1.45,2.5Zm519.07-8.17a1.67,1.67,0,0,1-1.61-2.14c1.86-6.42,3.42-12.93,4.66-19.36a1.67,1.67,0,0,1,3.28.63c-1.25,6.53-2.84,13.15-4.73,19.66A1.67,1.67,0,0,1,1398.52,1105.7Zm7.5-39.38h-.15a1.67,1.67,0,0,1-1.51-1.81c.51-5.68.77-11.4.77-17q0-1.44,0-2.89a1.67,1.67,0,0,1,1.64-1.7h0a1.67,1.67,0,0,1,1.67,1.64q0,1.47,0,2.94c0,5.69-.27,11.5-.79,17.29A1.67,1.67,0,0,1,1406,1066.32Zm-.69-40.06a1.67,1.67,0,0,1-1.65-1.45,164.58,164.58,0,0,0-3.74-19.5,1.67,1.67,0,0,1,3.24-.83,168.06,168.06,0,0,1,3.82,19.9,1.67,1.67,0,0,1-1.44,1.87Zm-10-38.78a1.67,1.67,0,0,1-1.55-1.05,152.69,152.69,0,0,0-8.51-17.93,1.67,1.67,0,1,1,2.92-1.63,155.87,155.87,0,0,1,8.69,18.32,1.67,1.67,0,0,1-1.55,2.29Zm-128.19-18a43.68,43.68,0,0,1-14.46-2.33,1.67,1.67,0,0,1,1.1-3.15,43.34,43.34,0,0,0,19.07,1.82,1.67,1.67,0,1,1,.37,3.32A55.84,55.84,0,0,1,1267.16,969.51Zm25.28-5.35a1.67,1.67,0,0,1-.61-3.23,124,124,0,0,0,17.72-8.79,1.67,1.67,0,0,1,1.7,2.87,127.34,127.34,0,0,1-18.21,9A1.67,1.67,0,0,1,1292.43,964.15Zm-55.22-8.47a1.67,1.67,0,0,1-1.33-.65,42.07,42.07,0,0,1-8-19.08,1.67,1.67,0,1,1,3.3-.52,38.74,38.74,0,0,0,7.34,17.57,1.67,1.67,0,0,1-1.32,2.69Zm138.64-3.19a1.67,1.67,0,0,1-1.34-.67,158.3,158.3,0,0,0-12.82-15.15,1.67,1.67,0,1,1,2.41-2.31,161.73,161.73,0,0,1,13.09,15.48,1.67,1.67,0,0,1-1.34,2.67Zm-48.8-8.45a1.67,1.67,0,0,1-1-3,91.18,91.18,0,0,0,14.27-13.53,1.67,1.67,0,0,1,2.54,2.17,94.6,94.6,0,0,1-14.8,14A1.67,1.67,0,0,1,1327.06,944.05Zm21.11-20.49a1.66,1.66,0,0,1-1.06-.38l-1.82-1.48c-4.76-3.81-9.5-7.35-14.09-10.52a1.67,1.67,0,1,1,1.9-2.75c4.66,3.22,9.46,6.81,14.28,10.66l1.86,1.51a1.67,1.67,0,0,1-1.06,3Zm-117.41-6.09a1.67,1.67,0,0,1-1.61-2.13,43.5,43.5,0,0,1,10.16-18,1.67,1.67,0,1,1,2.42,2.3,40.14,40.14,0,0,0-9.37,16.62A1.67,1.67,0,0,1,1230.76,917.48Zm122.3-3.64a1.67,1.67,0,0,1-1.45-2.5,130.16,130.16,0,0,0,8.44-17.91,1.67,1.67,0,0,1,3.12,1.2,133.59,133.59,0,0,1-8.66,18.37A1.67,1.67,0,0,1,1353.07,913.84Zm-38-12.92a1.67,1.67,0,0,1-.8-.2,127.59,127.59,0,0,0-18-8.17,1.67,1.67,0,1,1,1.12-3.15,130.85,130.85,0,0,1,18.51,8.38,1.67,1.67,0,0,1-.8,3.14Zm-57.63-11.1a1.67,1.67,0,0,1-.49-3.27,52.93,52.93,0,0,1,20.51-1.77,1.67,1.67,0,1,1-.32,3.33,49.62,49.62,0,0,0-19.22,1.64A1.67,1.67,0,0,1,1257.46,889.81Zm110.15-13.26a1.67,1.67,0,0,1-1.62-2.07,195.47,195.47,0,0,0,3.76-19.54,1.67,1.67,0,1,1,3.31.47,198.75,198.75,0,0,1-3.82,19.87A1.67,1.67,0,0,1,1367.61,876.55Zm5.72-39.69h-.09a1.67,1.67,0,0,1-1.58-1.76c.26-4.71.39-9.57.39-14.45q0-2.73-.05-5.49a1.67,1.67,0,0,1,1.64-1.7,1.64,1.64,0,0,1,1.7,1.64q.05,2.8.05,5.56c0,4.94-.13,9.86-.39,14.64A1.67,1.67,0,0,1,1373.33,836.87Zm-.72-40.12a1.67,1.67,0,0,1-1.66-1.53c-.55-6.5-1.31-13.18-2.27-19.85a1.67,1.67,0,1,1,3.31-.47c1,6.74,1.74,13.49,2.29,20a1.67,1.67,0,0,1-1.52,1.8ZM1367,757a1.67,1.67,0,0,1-1.64-1.35c-1.27-6.43-2.74-13-4.36-19.52a1.67,1.67,0,1,1,3.24-.81c1.64,6.58,3.12,13.2,4.4,19.68a1.67,1.67,0,0,1-1.64,2Zm-9.69-39a1.67,1.67,0,0,1-1.6-1.19c-1.88-6.32-4-12.73-6.14-19a1.67,1.67,0,1,1,3.16-1.09c2.2,6.37,4.28,12.82,6.18,19.18a1.67,1.67,0,0,1-1.6,2.15Zm-13.12-38a1.67,1.67,0,0,1-1.55-1.06c-2.41-6.14-5-12.36-7.7-18.48a1.67,1.67,0,1,1,3.06-1.35c2.71,6.16,5.32,12.42,7.75,18.6a1.67,1.67,0,0,1-1.55,2.28ZM1328,643.32a1.67,1.67,0,0,1-1.5-.94c-2.9-6-6-12-9.11-17.83a1.67,1.67,0,0,1,2.95-1.58c3.16,5.91,6.25,11.95,9.17,17.94a1.67,1.67,0,0,1-1.5,2.4ZM1309,607.91a1.67,1.67,0,0,1-1.44-.83c-3.34-5.72-6.84-11.47-10.41-17.1a1.67,1.67,0,1,1,2.82-1.79c3.59,5.66,7.12,11.45,10.48,17.2a1.67,1.67,0,0,1-1.44,2.51ZM1287.52,574a1.67,1.67,0,0,1-1.38-.72c-3.76-5.47-7.67-11-11.63-16.29a1.67,1.67,0,1,1,2.68-2c4,5.37,7.92,10.89,11.7,16.39a1.67,1.67,0,0,1-1.38,2.62Zm-23.91-32.26a1.67,1.67,0,0,1-1.31-.63c-4.14-5.18-8.43-10.37-12.77-15.41a1.67,1.67,0,0,1,2.53-2.18c4.36,5.08,8.69,10.29,12.85,15.51a1.67,1.67,0,0,1-1.3,2.71Zm-26.17-30.45a1.66,1.66,0,0,1-1.23-.54c-4.52-4.89-9.17-9.75-13.84-14.46a1.67,1.67,0,1,1,2.37-2.35c4.7,4.73,9.39,9.63,13.93,14.54a1.67,1.67,0,0,1-1.23,2.8Zm-28.29-28.49a1.67,1.67,0,0,1-1.14-.45c-4.84-4.54-9.84-9.05-14.85-13.42a1.67,1.67,0,0,1,2.2-2.52c5,4.39,10.07,8.94,14.94,13.5a1.67,1.67,0,0,1-1.14,2.89Zm-30.26-26.38a1.66,1.66,0,0,1-1.05-.37c-5.16-4.18-10.47-8.32-15.78-12.31a1.67,1.67,0,0,1,2-2.67c5.34,4,10.68,8.18,15.87,12.39a1.67,1.67,0,0,1-1.05,3Zm-32.08-24.12a1.66,1.66,0,0,1-1-.3c-5.45-3.8-11-7.54-16.62-11.14a1.67,1.67,0,1,1,1.81-2.81c5.62,3.62,11.24,7.39,16.72,11.21a1.67,1.67,0,0,1-1,3Zm-33.74-21.74a1.67,1.67,0,0,1-.85-.23c-5.71-3.39-11.55-6.73-17.38-9.91a1.67,1.67,0,0,1,1.6-2.93c5.86,3.21,11.75,6.56,17.49,10a1.67,1.67,0,0,1-.86,3.11Zm-35.21-19.26a1.67,1.67,0,0,1-.75-.18c-5.92-3-12-5.88-18-8.65a1.67,1.67,0,0,1,1.39-3c6.09,2.79,12.2,5.71,18.15,8.7a1.67,1.67,0,0,1-.75,3.16Zm-36.49-16.7a1.66,1.66,0,0,1-.64-.13c-6.12-2.54-12.38-5-18.61-7.35a1.67,1.67,0,1,1,1.17-3.13c6.26,2.35,12.56,4.84,18.72,7.4a1.67,1.67,0,0,1-.64,3.21Zm-37.57-14.1a1.67,1.67,0,0,1-.53-.09c-6.27-2.11-12.69-4.15-19.07-6.06a1.67,1.67,0,0,1,1-3.2c6.42,1.92,12.87,4,19.18,6.09a1.67,1.67,0,0,1-.53,3.25ZM965.35,349a1.67,1.67,0,0,1-.43-.06c-6.4-1.68-12.94-3.29-19.43-4.77a1.67,1.67,0,1,1,.74-3.26c6.53,1.49,13.1,3.1,19.54,4.79a1.67,1.67,0,0,1-.42,3.29Zm-39.12-8.93a1.69,1.69,0,0,1-.32,0c-6.49-1.26-13.12-2.44-19.7-3.51a1.67,1.67,0,1,1,.53-3.3c6.62,1.07,13.28,2.26,19.81,3.53a1.67,1.67,0,0,1-.32,3.31Zm-39.61-6.42h-.22c-6.56-.85-13.25-1.62-19.88-2.29a1.67,1.67,0,0,1,.33-3.32c6.67.67,13.39,1.44,20,2.3a1.67,1.67,0,0,1-.21,3.33Z"/><path class="cls-13" d="M861.43,1077.5a1.67,1.67,0,0,1-1.55-1c-2.44-6-3.54-9.35-3.59-9.49a1.67,1.67,0,0,1,3.18-1s1.12,3.43,3.5,9.25a1.67,1.67,0,0,1-1.54,2.3Z"/><path class="cls-14" d="M480.36,680.55c-3.33,0-6.69-.12-10-.35a1.25,1.25,0,1,1,.18-2.5,140,140,0,0,0,19.85,0,1.25,1.25,0,0,1,.18,2.5C487.17,680.43,483.74,680.55,480.36,680.55Zm29.94-3.17a1.25,1.25,0,0,1-.26-2.48c1.54-.33,3.1-.68,4.65-1.06a1.25,1.25,0,1,1,.6,2.43c-1.57.39-3.16.75-4.72,1.08Zm-59.67,0-.27,0A138.52,138.52,0,0,1,431,671.55a1.25,1.25,0,0,1,.89-2.34,136.15,136.15,0,0,0,19,5.65,1.25,1.25,0,0,1-.27,2.48Zm-37.32-14.15a1.25,1.25,0,0,1-.61-.16,139.7,139.7,0,0,1-16.88-11.1,1.25,1.25,0,1,1,1.52-2,137.33,137.33,0,0,0,16.58,10.9,1.25,1.25,0,0,1-.61,2.35ZM381.6,638.89a1.25,1.25,0,0,1-.9-.38,144.75,144.75,0,0,1-13.06-15.41,1.25,1.25,0,1,1,2-1.48,142.24,142.24,0,0,0,12.83,15.14,1.25,1.25,0,0,1-.9,2.13Zm-23.67-32.18a1.25,1.25,0,0,1-1.1-.66,154.64,154.64,0,0,1-8.44-18.34,1.25,1.25,0,1,1,2.34-.9,152.29,152.29,0,0,0,8.3,18,1.25,1.25,0,0,1-1.1,1.85Zm-14.35-37.3a1.25,1.25,0,0,1-1.22-1,172.9,172.9,0,0,1-3.65-19.84,1.25,1.25,0,0,1,2.49-.31,170.26,170.26,0,0,0,3.6,19.55,1.25,1.25,0,0,1-1.22,1.55Zm-5-39.67a1.25,1.25,0,0,1-1.25-1.23q0-1.44,0-2.89c0-5.67.25-11.47.75-17.26a1.25,1.25,0,1,1,2.5.21c-.49,5.71-.74,11.44-.74,17q0,1.43,0,2.86a1.25,1.25,0,0,1-1.23,1.27Zm3.37-39.88-.22,0a1.25,1.25,0,0,1-1-1.45c.54-3,1.16-6.1,1.84-9.15a82.57,82.57,0,0,0,1.65-10.46,1.25,1.25,0,0,1,2.5.22,85.09,85.09,0,0,1-1.7,10.78c-.67,3-1.28,6.07-1.82,9.05A1.25,1.25,0,0,1,341.95,489.85Zm1.9-39.47a1.25,1.25,0,0,1-1.2-.91,41.81,41.81,0,0,0-9.33-16.68,1.25,1.25,0,0,1,1.86-1.67,44.27,44.27,0,0,1,9.87,17.66,1.25,1.25,0,0,1-1.2,1.6Zm-25.19-29.51a1.25,1.25,0,0,1-.63-.17,126.17,126.17,0,0,0-17.91-8.51,1.25,1.25,0,0,1,.92-2.33,128.69,128.69,0,0,1,18.26,8.69,1.25,1.25,0,0,1-.64,2.33ZM281.6,405.73a1.25,1.25,0,0,1-.37-.06c-6.63-2-13.45-4-19.25-5.59a1.25,1.25,0,0,1,.67-2.41c5.82,1.62,12.66,3.55,19.32,5.61a1.25,1.25,0,0,1-.37,2.45Zm-38.64-11a1.26,1.26,0,0,1-.34,0c-7.55-2.12-13.68-3.93-19.3-5.69a1.25,1.25,0,0,1,.75-2.39c5.59,1.75,11.7,3.55,19.23,5.67a1.25,1.25,0,0,1-.34,2.46ZM204.7,382.61a1.24,1.24,0,0,1-.44-.08c-6.74-2.52-12.83-5.07-18.59-7.79a1.25,1.25,0,1,1,1.07-2.27c5.7,2.69,11.72,5.21,18.4,7.71a1.25,1.25,0,0,1-.44,2.43Zm-36.11-17.29a1.25,1.25,0,0,1-.66-.19,133.71,133.71,0,0,1-16.3-11.89,1.25,1.25,0,0,1,1.63-1.9,131.25,131.25,0,0,0,16,11.66,1.25,1.25,0,0,1-.66,2.32Zm-30.08-26.05a1.25,1.25,0,0,1-1-.46A104.71,104.71,0,0,1,126.42,322a1.25,1.25,0,1,1,2.21-1.17,102.25,102.25,0,0,0,10.84,16.42,1.25,1.25,0,0,1-1,2ZM655.21,305a1.25,1.25,0,0,1-1.2-.9c-1.88-6.41-3.91-12.82-6-19.06a1.25,1.25,0,0,1,2.37-.8c2.12,6.27,4.16,12.71,6,19.15a1.25,1.25,0,0,1-1.2,1.61Zm-535.34-.76a1.25,1.25,0,0,1-1.19-.88,131.82,131.82,0,0,1-4.53-19.59,1.25,1.25,0,0,1,2.48-.38,129.47,129.47,0,0,0,4.44,19.22,1.25,1.25,0,0,1-1.19,1.63ZM642.34,267.1a1.25,1.25,0,0,1-1.17-.8c-2.41-6.22-5-12.44-7.64-18.46a1.25,1.25,0,1,1,2.29-1c2.67,6.06,5.26,12.3,7.68,18.56a1.25,1.25,0,0,1-1.17,1.71ZM113.61,265a1.25,1.25,0,0,1-1.25-1.22c-.06-1.89-.08-3.81-.08-5.71,0-4.65.17-9.51.5-14.43a1.25,1.25,0,0,1,2.5.17c-.33,4.86-.49,9.66-.49,14.26,0,1.88,0,3.78.08,5.64a1.25,1.25,0,0,1-1.21,1.29Zm202.71-11a91.59,91.59,0,0,1-11.12-.68,1.25,1.25,0,1,1,.3-2.49,88.63,88.63,0,0,0,19.72.21,1.25,1.25,0,1,1,.25,2.49A90.41,90.41,0,0,1,316.32,254.07Zm28.56-4.74a1.25,1.25,0,0,1-.41-2.44,87.3,87.3,0,0,0,17.8-8.48,1.25,1.25,0,1,1,1.32,2.13,89.79,89.79,0,0,1-18.31,8.72A1.26,1.26,0,0,1,344.89,249.32Zm-59-.54a1.25,1.25,0,0,1-.42-.07,89.71,89.71,0,0,1-18.21-8.93,1.25,1.25,0,1,1,1.35-2.11,87.19,87.19,0,0,0,17.7,8.68,1.25,1.25,0,0,1-.42,2.43Zm340.27-18.33a1.25,1.25,0,0,1-1.12-.69c-3-6-6.13-11.91-9.36-17.64a1.25,1.25,0,1,1,2.18-1.23c3.25,5.77,6.42,11.74,9.42,17.75a1.25,1.25,0,0,1-1.12,1.81Zm-247.72-2.33a1.25,1.25,0,0,1-.93-2.09,49.5,49.5,0,0,0,10.08-16.6,1.25,1.25,0,1,1,2.36.84,52,52,0,0,1-10.58,17.44A1.25,1.25,0,0,1,378.45,228.12Zm-125.91-.87a1.25,1.25,0,0,1-.91-.39,76,76,0,0,1-11.87-16.48,1.25,1.25,0,1,1,2.21-1.18,73.51,73.51,0,0,0,11.48,15.93,1.25,1.25,0,0,1-.91,2.11Zm-136.36-2.18H116a1.25,1.25,0,0,1-1.06-1.42c.93-6.37,2.12-13,3.53-19.81a1.25,1.25,0,1,1,2.45.51c-1.41,6.72-2.59,13.33-3.51,19.65A1.25,1.25,0,0,1,116.17,225.08Zm490.32-29.51a1.25,1.25,0,0,1-1.06-.58c-3.58-5.63-7.33-11.21-11.15-16.56a1.25,1.25,0,1,1,2-1.46c3.85,5.39,7.63,11,11.23,16.67a1.25,1.25,0,0,1-1.06,1.92Zm-372.41-3.3a1.25,1.25,0,0,1-1.23-1,73.25,73.25,0,0,1-1.49-14.77c0-1.81.07-3.66.2-5.5a1.25,1.25,0,1,1,2.5.18c-.13,1.78-.19,3.57-.19,5.32a70.82,70.82,0,0,0,1.44,14.26,1.25,1.25,0,0,1-1,1.48Zm157.56-.86a1.25,1.25,0,0,1-1.25-1.2A68.87,68.87,0,0,0,386.61,171a1.25,1.25,0,0,1,2.37-.81,71.38,71.38,0,0,1,3.91,19.94,1.25,1.25,0,0,1-1.2,1.3Zm-267.28-5.54a1.27,1.27,0,0,1-.33,0,1.25,1.25,0,0,1-.88-1.54c1.82-6.65,3.85-13.11,6-19.2a1.25,1.25,0,0,1,2.36.85c-2.16,6-4.17,12.43-6,19A1.25,1.25,0,0,1,124.36,185.86ZM583.19,163a1.25,1.25,0,0,1-1-.47c-4.19-5.2-8.55-10.3-13-15.17a1.25,1.25,0,0,1,1.85-1.69c4.46,4.9,8.86,10,13.07,15.28a1.25,1.25,0,0,1-1,2Zm-203.82-9.32a1.25,1.25,0,0,1-1.08-.62,131.3,131.3,0,0,0-11.35-16.27,1.25,1.25,0,1,1,1.94-1.58,133.79,133.79,0,0,1,11.57,16.59,1.25,1.25,0,0,1-1.08,1.89Zm-142.71-1a1.25,1.25,0,0,1-1.19-1.63,108.14,108.14,0,0,1,8-18.6,1.25,1.25,0,1,1,2.2,1.19,105.61,105.61,0,0,0-7.81,18.17A1.25,1.25,0,0,1,236.66,152.71ZM138,148.22a1.25,1.25,0,0,1-1.13-1.78,177.89,177.89,0,0,1,9.53-17.77A1.25,1.25,0,1,1,148.5,130a175.65,175.65,0,0,0-9.4,17.52A1.25,1.25,0,0,1,138,148.22Zm418.27-14.87a1.25,1.25,0,0,1-.87-.35c-4.79-4.65-9.75-9.16-14.76-13.43a1.25,1.25,0,0,1,1.62-1.91c5,4.3,10.06,8.85,14.88,13.54a1.25,1.25,0,0,1-.87,2.15ZM354.3,122.52a1.25,1.25,0,0,1-.87-.35,178.75,178.75,0,0,0-15.13-12.93,1.25,1.25,0,1,1,1.52-2,181.17,181.17,0,0,1,15.34,13.11,1.25,1.25,0,0,1-.87,2.16Zm-98.91-5a1.25,1.25,0,0,1-1-2c2.78-3.72,5.84-7.47,9.11-11.16,1.27-1.43,2.59-2.86,3.93-4.25a1.25,1.25,0,1,1,1.8,1.74c-1.31,1.36-2.61,2.77-3.86,4.17-3.22,3.63-6.24,7.33-9,11A1.25,1.25,0,0,1,255.39,117.49ZM159,114.27a1.25,1.25,0,0,1-1-2.05,122.73,122.73,0,0,1,14.08-14.5,1.25,1.25,0,1,1,1.64,1.89A120.31,120.31,0,0,0,160,113.82,1.25,1.25,0,0,1,159,114.27Zm366.7-6.87a1.25,1.25,0,0,1-.74-.25c-5.36-4-10.89-7.77-16.44-11.3a1.25,1.25,0,1,1,1.35-2.11c5.6,3.56,11.18,7.4,16.58,11.4a1.25,1.25,0,0,1-.75,2.26ZM322.51,98.21a1.25,1.25,0,0,1-.65-.18,181.75,181.75,0,0,0-17.56-9.37,1.25,1.25,0,0,1,1.05-2.27,184.32,184.32,0,0,1,17.81,9.5,1.25,1.25,0,0,1-.65,2.32Zm-39.26-9.36a1.25,1.25,0,0,1-.77-2.24,143.64,143.64,0,0,1,16.83-11.18,1.25,1.25,0,0,1,1.24,2.18,141.08,141.08,0,0,0-16.53,11A1.25,1.25,0,0,1,283.25,88.85Zm-94-.59a1.25,1.25,0,0,1-.63-2.34A103.16,103.16,0,0,1,207,77.5a1.25,1.25,0,0,1,.81,2.37,100.66,100.66,0,0,0-18,8.22A1.24,1.24,0,0,1,189.22,88.26Zm302.72-2.34a1.24,1.24,0,0,1-.59-.15c-5.88-3.16-11.9-6.11-17.91-8.77a1.25,1.25,0,1,1,1-2.29c6.07,2.68,12.15,5.66,18.08,8.85a1.25,1.25,0,0,1-.59,2.36Zm-205.77-4.5a1.25,1.25,0,0,1-.39-.06,150.82,150.82,0,0,0-19.26-4.94A1.25,1.25,0,0,1,267,74a153.27,153.27,0,0,1,19.58,5,1.25,1.25,0,0,1-.39,2.44Zm-59.31-6.13a1.25,1.25,0,0,1-.17-2.49,117.64,117.64,0,0,1,20.2-1.05A1.25,1.25,0,0,1,248.1,73a1.27,1.27,0,0,1-1.29,1.21,115.07,115.07,0,0,0-19.77,1Zm228.45-5.55a1.26,1.26,0,0,1-.41-.07c-6.3-2.2-12.72-4.15-19.07-5.78a1.25,1.25,0,1,1,.62-2.43c6.42,1.65,12.91,3.62,19.28,5.84a1.25,1.25,0,0,1-.41,2.44ZM318,69.09a1.25,1.25,0,0,1-.47-2.42,162.1,162.1,0,0,1,19.17-6.34,1.25,1.25,0,0,1,.64,2.42A159.57,159.57,0,0,0,318.44,69,1.25,1.25,0,0,1,318,69.09Zm98.56-9.29-.2,0c-6.6-1.08-13.25-1.85-19.78-2.3a1.25,1.25,0,0,1,.17-2.5c6.61.45,13.34,1.23,20,2.33a1.25,1.25,0,0,1-.2,2.49Zm-59.89-1a1.25,1.25,0,0,1-.17-2.49,187.52,187.52,0,0,1,20.09-1.74,1.23,1.23,0,0,1,1.29,1.21,1.25,1.25,0,0,1-1.21,1.29,184.91,184.91,0,0,0-19.82,1.71Z"/><path class="cls-14" d="M103,168.79H158a5.46,5.46,0,0,1,5.46,5.46v32.21a5.45,5.45,0,0,1-5.45,5.45H103a5.45,5.45,0,0,1-5.45-5.45V174.25A5.46,5.46,0,0,1,103,168.79Z"/><path class="cls-14" d="M163,208.65l-32.57-19.74L98,208.6a5.46,5.46,0,0,0,5,3.32H158A5.45,5.45,0,0,0,163,208.65Z"/><path class="cls-14" d="M98,172.05l32.57,22.18,32.51-22.12a5.46,5.46,0,0,0-5-3.32H103A5.45,5.45,0,0,0,98,172.05Z"/><polygon class="cls-5" points="130.54 194.86 97.68 172.48 98.26 171.63 130.54 193.6 162.76 171.68 163.34 172.54 130.54 194.86"/><path class="cls-13" d="M1156.31,282.23h55.07a5.46,5.46,0,0,1,5.46,5.46v32.21a5.45,5.45,0,0,1-5.45,5.45h-55.07a5.45,5.45,0,0,1-5.45-5.45V287.68A5.46,5.46,0,0,1,1156.31,282.23Z"/><path class="cls-13" d="M1216.38,322.09l-32.57-19.74L1151.29,322a5.46,5.46,0,0,0,5,3.32h55.07A5.45,5.45,0,0,0,1216.38,322.09Z"/><path class="cls-13" d="M1151.31,285.49l32.57,22.18,32.51-22.12a5.46,5.46,0,0,0-5-3.32H1156.3A5.45,5.45,0,0,0,1151.31,285.49Z"/><polygon class="cls-5" points="1183.88 308.3 1151.02 285.92 1151.6 285.06 1183.88 307.04 1216.1 285.11 1216.68 285.97 1183.88 308.3"/><path class="cls-4" d="M1380.93,1012.91H1436a5.46,5.46,0,0,1,5.46,5.46v32.21A5.45,5.45,0,0,1,1436,1056h-55.07a5.45,5.45,0,0,1-5.45-5.45v-32.21A5.46,5.46,0,0,1,1380.93,1012.91Z"/><path class="cls-4" d="M1441,1052.77,1408.43,1033l-32.51,19.69a5.46,5.46,0,0,0,5,3.32H1436A5.45,5.45,0,0,0,1441,1052.77Z"/><path class="cls-4" d="M1375.93,1016.17l32.57,22.18,32.51-22.12a5.46,5.46,0,0,0-5-3.32h-55.07A5.45,5.45,0,0,0,1375.93,1016.17Z"/><polygon class="cls-5" points="1408.5 1038.98 1375.63 1016.6 1376.22 1015.74 1408.5 1037.72 1440.72 1015.79 1441.3 1016.65 1408.5 1038.98"/><rect class="cls-6" x="189.23" y="633.36" width="65.98" height="43.12" rx="5.46" ry="5.46"/><path class="cls-6" d="M254.75,673.22l-32.57-19.74-32.51,19.69a5.46,5.46,0,0,0,5,3.32h55.07A5.45,5.45,0,0,0,254.75,673.22Z"/><path class="cls-6" d="M189.68,636.62l32.57,22.18,32.51-22.12a5.46,5.46,0,0,0-5-3.32H194.67A5.45,5.45,0,0,0,189.68,636.62Z"/><polygon class="cls-5" points="222.25 659.42 189.39 637.05 189.97 636.19 222.25 658.17 254.47 636.24 255.06 637.1 222.25 659.42"/></g></g></svg>